%TF.GenerationSoftware,KiCad,Pcbnew,9.0.7*%
%TF.CreationDate,2026-04-29T20:10:20+02:00*%
%TF.ProjectId,SEIENTS_EDD,53454945-4e54-4535-9f45-44442e6b6963,rev?*%
%TF.SameCoordinates,Original*%
%TF.FileFunction,Legend,Top*%
%TF.FilePolarity,Positive*%
%FSLAX46Y46*%
G04 Gerber Fmt 4.6, Leading zero omitted, Abs format (unit mm)*
G04 Created by KiCad (PCBNEW 9.0.7) date 2026-04-29 20:10:20*
%MOMM*%
%LPD*%
G01*
G04 APERTURE LIST*
%ADD10C,0.150000*%
%ADD11C,0.254000*%
%ADD12C,0.120000*%
%ADD13C,0.100000*%
%ADD14C,0.152400*%
%ADD15C,0.000000*%
G04 APERTURE END LIST*
D10*
X143907200Y-99959523D02*
X143954819Y-99816666D01*
X143954819Y-99816666D02*
X143954819Y-99578571D01*
X143954819Y-99578571D02*
X143907200Y-99483333D01*
X143907200Y-99483333D02*
X143859580Y-99435714D01*
X143859580Y-99435714D02*
X143764342Y-99388095D01*
X143764342Y-99388095D02*
X143669104Y-99388095D01*
X143669104Y-99388095D02*
X143573866Y-99435714D01*
X143573866Y-99435714D02*
X143526247Y-99483333D01*
X143526247Y-99483333D02*
X143478628Y-99578571D01*
X143478628Y-99578571D02*
X143431009Y-99769047D01*
X143431009Y-99769047D02*
X143383390Y-99864285D01*
X143383390Y-99864285D02*
X143335771Y-99911904D01*
X143335771Y-99911904D02*
X143240533Y-99959523D01*
X143240533Y-99959523D02*
X143145295Y-99959523D01*
X143145295Y-99959523D02*
X143050057Y-99911904D01*
X143050057Y-99911904D02*
X143002438Y-99864285D01*
X143002438Y-99864285D02*
X142954819Y-99769047D01*
X142954819Y-99769047D02*
X142954819Y-99530952D01*
X142954819Y-99530952D02*
X143002438Y-99388095D01*
X142954819Y-99054761D02*
X143954819Y-98816666D01*
X143954819Y-98816666D02*
X143240533Y-98626190D01*
X143240533Y-98626190D02*
X143954819Y-98435714D01*
X143954819Y-98435714D02*
X142954819Y-98197619D01*
X143954819Y-97292857D02*
X143954819Y-97864285D01*
X143954819Y-97578571D02*
X142954819Y-97578571D01*
X142954819Y-97578571D02*
X143097676Y-97673809D01*
X143097676Y-97673809D02*
X143192914Y-97769047D01*
X143192914Y-97769047D02*
X143240533Y-97864285D01*
X143050057Y-96911904D02*
X143002438Y-96864285D01*
X143002438Y-96864285D02*
X142954819Y-96769047D01*
X142954819Y-96769047D02*
X142954819Y-96530952D01*
X142954819Y-96530952D02*
X143002438Y-96435714D01*
X143002438Y-96435714D02*
X143050057Y-96388095D01*
X143050057Y-96388095D02*
X143145295Y-96340476D01*
X143145295Y-96340476D02*
X143240533Y-96340476D01*
X143240533Y-96340476D02*
X143383390Y-96388095D01*
X143383390Y-96388095D02*
X143954819Y-96959523D01*
X143954819Y-96959523D02*
X143954819Y-96340476D01*
X130497142Y-111929580D02*
X130449523Y-111977200D01*
X130449523Y-111977200D02*
X130306666Y-112024819D01*
X130306666Y-112024819D02*
X130211428Y-112024819D01*
X130211428Y-112024819D02*
X130068571Y-111977200D01*
X130068571Y-111977200D02*
X129973333Y-111881961D01*
X129973333Y-111881961D02*
X129925714Y-111786723D01*
X129925714Y-111786723D02*
X129878095Y-111596247D01*
X129878095Y-111596247D02*
X129878095Y-111453390D01*
X129878095Y-111453390D02*
X129925714Y-111262914D01*
X129925714Y-111262914D02*
X129973333Y-111167676D01*
X129973333Y-111167676D02*
X130068571Y-111072438D01*
X130068571Y-111072438D02*
X130211428Y-111024819D01*
X130211428Y-111024819D02*
X130306666Y-111024819D01*
X130306666Y-111024819D02*
X130449523Y-111072438D01*
X130449523Y-111072438D02*
X130497142Y-111120057D01*
X130830476Y-111024819D02*
X131449523Y-111024819D01*
X131449523Y-111024819D02*
X131116190Y-111405771D01*
X131116190Y-111405771D02*
X131259047Y-111405771D01*
X131259047Y-111405771D02*
X131354285Y-111453390D01*
X131354285Y-111453390D02*
X131401904Y-111501009D01*
X131401904Y-111501009D02*
X131449523Y-111596247D01*
X131449523Y-111596247D02*
X131449523Y-111834342D01*
X131449523Y-111834342D02*
X131401904Y-111929580D01*
X131401904Y-111929580D02*
X131354285Y-111977200D01*
X131354285Y-111977200D02*
X131259047Y-112024819D01*
X131259047Y-112024819D02*
X130973333Y-112024819D01*
X130973333Y-112024819D02*
X130878095Y-111977200D01*
X130878095Y-111977200D02*
X130830476Y-111929580D01*
X131830476Y-111120057D02*
X131878095Y-111072438D01*
X131878095Y-111072438D02*
X131973333Y-111024819D01*
X131973333Y-111024819D02*
X132211428Y-111024819D01*
X132211428Y-111024819D02*
X132306666Y-111072438D01*
X132306666Y-111072438D02*
X132354285Y-111120057D01*
X132354285Y-111120057D02*
X132401904Y-111215295D01*
X132401904Y-111215295D02*
X132401904Y-111310533D01*
X132401904Y-111310533D02*
X132354285Y-111453390D01*
X132354285Y-111453390D02*
X131782857Y-112024819D01*
X131782857Y-112024819D02*
X132401904Y-112024819D01*
X81800952Y-64259580D02*
X81753333Y-64307200D01*
X81753333Y-64307200D02*
X81610476Y-64354819D01*
X81610476Y-64354819D02*
X81515238Y-64354819D01*
X81515238Y-64354819D02*
X81372381Y-64307200D01*
X81372381Y-64307200D02*
X81277143Y-64211961D01*
X81277143Y-64211961D02*
X81229524Y-64116723D01*
X81229524Y-64116723D02*
X81181905Y-63926247D01*
X81181905Y-63926247D02*
X81181905Y-63783390D01*
X81181905Y-63783390D02*
X81229524Y-63592914D01*
X81229524Y-63592914D02*
X81277143Y-63497676D01*
X81277143Y-63497676D02*
X81372381Y-63402438D01*
X81372381Y-63402438D02*
X81515238Y-63354819D01*
X81515238Y-63354819D02*
X81610476Y-63354819D01*
X81610476Y-63354819D02*
X81753333Y-63402438D01*
X81753333Y-63402438D02*
X81800952Y-63450057D01*
X82134286Y-63354819D02*
X82753333Y-63354819D01*
X82753333Y-63354819D02*
X82420000Y-63735771D01*
X82420000Y-63735771D02*
X82562857Y-63735771D01*
X82562857Y-63735771D02*
X82658095Y-63783390D01*
X82658095Y-63783390D02*
X82705714Y-63831009D01*
X82705714Y-63831009D02*
X82753333Y-63926247D01*
X82753333Y-63926247D02*
X82753333Y-64164342D01*
X82753333Y-64164342D02*
X82705714Y-64259580D01*
X82705714Y-64259580D02*
X82658095Y-64307200D01*
X82658095Y-64307200D02*
X82562857Y-64354819D01*
X82562857Y-64354819D02*
X82277143Y-64354819D01*
X82277143Y-64354819D02*
X82181905Y-64307200D01*
X82181905Y-64307200D02*
X82134286Y-64259580D01*
X83372381Y-63354819D02*
X83467619Y-63354819D01*
X83467619Y-63354819D02*
X83562857Y-63402438D01*
X83562857Y-63402438D02*
X83610476Y-63450057D01*
X83610476Y-63450057D02*
X83658095Y-63545295D01*
X83658095Y-63545295D02*
X83705714Y-63735771D01*
X83705714Y-63735771D02*
X83705714Y-63973866D01*
X83705714Y-63973866D02*
X83658095Y-64164342D01*
X83658095Y-64164342D02*
X83610476Y-64259580D01*
X83610476Y-64259580D02*
X83562857Y-64307200D01*
X83562857Y-64307200D02*
X83467619Y-64354819D01*
X83467619Y-64354819D02*
X83372381Y-64354819D01*
X83372381Y-64354819D02*
X83277143Y-64307200D01*
X83277143Y-64307200D02*
X83229524Y-64259580D01*
X83229524Y-64259580D02*
X83181905Y-64164342D01*
X83181905Y-64164342D02*
X83134286Y-63973866D01*
X83134286Y-63973866D02*
X83134286Y-63735771D01*
X83134286Y-63735771D02*
X83181905Y-63545295D01*
X83181905Y-63545295D02*
X83229524Y-63450057D01*
X83229524Y-63450057D02*
X83277143Y-63402438D01*
X83277143Y-63402438D02*
X83372381Y-63354819D01*
X84086667Y-63450057D02*
X84134286Y-63402438D01*
X84134286Y-63402438D02*
X84229524Y-63354819D01*
X84229524Y-63354819D02*
X84467619Y-63354819D01*
X84467619Y-63354819D02*
X84562857Y-63402438D01*
X84562857Y-63402438D02*
X84610476Y-63450057D01*
X84610476Y-63450057D02*
X84658095Y-63545295D01*
X84658095Y-63545295D02*
X84658095Y-63640533D01*
X84658095Y-63640533D02*
X84610476Y-63783390D01*
X84610476Y-63783390D02*
X84039048Y-64354819D01*
X84039048Y-64354819D02*
X84658095Y-64354819D01*
D11*
X117801318Y-73969762D02*
X116531318Y-73969762D01*
X117680365Y-72639285D02*
X117740842Y-72699761D01*
X117740842Y-72699761D02*
X117801318Y-72881190D01*
X117801318Y-72881190D02*
X117801318Y-73002142D01*
X117801318Y-73002142D02*
X117740842Y-73183571D01*
X117740842Y-73183571D02*
X117619889Y-73304523D01*
X117619889Y-73304523D02*
X117498937Y-73365000D01*
X117498937Y-73365000D02*
X117257032Y-73425476D01*
X117257032Y-73425476D02*
X117075603Y-73425476D01*
X117075603Y-73425476D02*
X116833699Y-73365000D01*
X116833699Y-73365000D02*
X116712746Y-73304523D01*
X116712746Y-73304523D02*
X116591794Y-73183571D01*
X116591794Y-73183571D02*
X116531318Y-73002142D01*
X116531318Y-73002142D02*
X116531318Y-72881190D01*
X116531318Y-72881190D02*
X116591794Y-72699761D01*
X116591794Y-72699761D02*
X116652270Y-72639285D01*
X117801318Y-71429761D02*
X117801318Y-72155476D01*
X117801318Y-71792619D02*
X116531318Y-71792619D01*
X116531318Y-71792619D02*
X116712746Y-71913571D01*
X116712746Y-71913571D02*
X116833699Y-72034523D01*
X116833699Y-72034523D02*
X116894175Y-72155476D01*
D10*
X158626666Y-130864819D02*
X158626666Y-131579104D01*
X158626666Y-131579104D02*
X158579047Y-131721961D01*
X158579047Y-131721961D02*
X158483809Y-131817200D01*
X158483809Y-131817200D02*
X158340952Y-131864819D01*
X158340952Y-131864819D02*
X158245714Y-131864819D01*
X159245714Y-131293390D02*
X159150476Y-131245771D01*
X159150476Y-131245771D02*
X159102857Y-131198152D01*
X159102857Y-131198152D02*
X159055238Y-131102914D01*
X159055238Y-131102914D02*
X159055238Y-131055295D01*
X159055238Y-131055295D02*
X159102857Y-130960057D01*
X159102857Y-130960057D02*
X159150476Y-130912438D01*
X159150476Y-130912438D02*
X159245714Y-130864819D01*
X159245714Y-130864819D02*
X159436190Y-130864819D01*
X159436190Y-130864819D02*
X159531428Y-130912438D01*
X159531428Y-130912438D02*
X159579047Y-130960057D01*
X159579047Y-130960057D02*
X159626666Y-131055295D01*
X159626666Y-131055295D02*
X159626666Y-131102914D01*
X159626666Y-131102914D02*
X159579047Y-131198152D01*
X159579047Y-131198152D02*
X159531428Y-131245771D01*
X159531428Y-131245771D02*
X159436190Y-131293390D01*
X159436190Y-131293390D02*
X159245714Y-131293390D01*
X159245714Y-131293390D02*
X159150476Y-131341009D01*
X159150476Y-131341009D02*
X159102857Y-131388628D01*
X159102857Y-131388628D02*
X159055238Y-131483866D01*
X159055238Y-131483866D02*
X159055238Y-131674342D01*
X159055238Y-131674342D02*
X159102857Y-131769580D01*
X159102857Y-131769580D02*
X159150476Y-131817200D01*
X159150476Y-131817200D02*
X159245714Y-131864819D01*
X159245714Y-131864819D02*
X159436190Y-131864819D01*
X159436190Y-131864819D02*
X159531428Y-131817200D01*
X159531428Y-131817200D02*
X159579047Y-131769580D01*
X159579047Y-131769580D02*
X159626666Y-131674342D01*
X159626666Y-131674342D02*
X159626666Y-131483866D01*
X159626666Y-131483866D02*
X159579047Y-131388628D01*
X159579047Y-131388628D02*
X159531428Y-131341009D01*
X159531428Y-131341009D02*
X159436190Y-131293390D01*
X184499642Y-113757080D02*
X184452023Y-113804700D01*
X184452023Y-113804700D02*
X184309166Y-113852319D01*
X184309166Y-113852319D02*
X184213928Y-113852319D01*
X184213928Y-113852319D02*
X184071071Y-113804700D01*
X184071071Y-113804700D02*
X183975833Y-113709461D01*
X183975833Y-113709461D02*
X183928214Y-113614223D01*
X183928214Y-113614223D02*
X183880595Y-113423747D01*
X183880595Y-113423747D02*
X183880595Y-113280890D01*
X183880595Y-113280890D02*
X183928214Y-113090414D01*
X183928214Y-113090414D02*
X183975833Y-112995176D01*
X183975833Y-112995176D02*
X184071071Y-112899938D01*
X184071071Y-112899938D02*
X184213928Y-112852319D01*
X184213928Y-112852319D02*
X184309166Y-112852319D01*
X184309166Y-112852319D02*
X184452023Y-112899938D01*
X184452023Y-112899938D02*
X184499642Y-112947557D01*
X184832976Y-112852319D02*
X185499642Y-112852319D01*
X185499642Y-112852319D02*
X185071071Y-113852319D01*
X186071071Y-112852319D02*
X186166309Y-112852319D01*
X186166309Y-112852319D02*
X186261547Y-112899938D01*
X186261547Y-112899938D02*
X186309166Y-112947557D01*
X186309166Y-112947557D02*
X186356785Y-113042795D01*
X186356785Y-113042795D02*
X186404404Y-113233271D01*
X186404404Y-113233271D02*
X186404404Y-113471366D01*
X186404404Y-113471366D02*
X186356785Y-113661842D01*
X186356785Y-113661842D02*
X186309166Y-113757080D01*
X186309166Y-113757080D02*
X186261547Y-113804700D01*
X186261547Y-113804700D02*
X186166309Y-113852319D01*
X186166309Y-113852319D02*
X186071071Y-113852319D01*
X186071071Y-113852319D02*
X185975833Y-113804700D01*
X185975833Y-113804700D02*
X185928214Y-113757080D01*
X185928214Y-113757080D02*
X185880595Y-113661842D01*
X185880595Y-113661842D02*
X185832976Y-113471366D01*
X185832976Y-113471366D02*
X185832976Y-113233271D01*
X185832976Y-113233271D02*
X185880595Y-113042795D01*
X185880595Y-113042795D02*
X185928214Y-112947557D01*
X185928214Y-112947557D02*
X185975833Y-112899938D01*
X185975833Y-112899938D02*
X186071071Y-112852319D01*
X160484580Y-63142857D02*
X160532200Y-63190476D01*
X160532200Y-63190476D02*
X160579819Y-63333333D01*
X160579819Y-63333333D02*
X160579819Y-63428571D01*
X160579819Y-63428571D02*
X160532200Y-63571428D01*
X160532200Y-63571428D02*
X160436961Y-63666666D01*
X160436961Y-63666666D02*
X160341723Y-63714285D01*
X160341723Y-63714285D02*
X160151247Y-63761904D01*
X160151247Y-63761904D02*
X160008390Y-63761904D01*
X160008390Y-63761904D02*
X159817914Y-63714285D01*
X159817914Y-63714285D02*
X159722676Y-63666666D01*
X159722676Y-63666666D02*
X159627438Y-63571428D01*
X159627438Y-63571428D02*
X159579819Y-63428571D01*
X159579819Y-63428571D02*
X159579819Y-63333333D01*
X159579819Y-63333333D02*
X159627438Y-63190476D01*
X159627438Y-63190476D02*
X159675057Y-63142857D01*
X160579819Y-62190476D02*
X160579819Y-62761904D01*
X160579819Y-62476190D02*
X159579819Y-62476190D01*
X159579819Y-62476190D02*
X159722676Y-62571428D01*
X159722676Y-62571428D02*
X159817914Y-62666666D01*
X159817914Y-62666666D02*
X159865533Y-62761904D01*
X159579819Y-61857142D02*
X159579819Y-61190476D01*
X159579819Y-61190476D02*
X160579819Y-61619047D01*
X105474819Y-95736666D02*
X104998628Y-96069999D01*
X105474819Y-96308094D02*
X104474819Y-96308094D01*
X104474819Y-96308094D02*
X104474819Y-95927142D01*
X104474819Y-95927142D02*
X104522438Y-95831904D01*
X104522438Y-95831904D02*
X104570057Y-95784285D01*
X104570057Y-95784285D02*
X104665295Y-95736666D01*
X104665295Y-95736666D02*
X104808152Y-95736666D01*
X104808152Y-95736666D02*
X104903390Y-95784285D01*
X104903390Y-95784285D02*
X104951009Y-95831904D01*
X104951009Y-95831904D02*
X104998628Y-95927142D01*
X104998628Y-95927142D02*
X104998628Y-96308094D01*
X105474819Y-94784285D02*
X105474819Y-95355713D01*
X105474819Y-95069999D02*
X104474819Y-95069999D01*
X104474819Y-95069999D02*
X104617676Y-95165237D01*
X104617676Y-95165237D02*
X104712914Y-95260475D01*
X104712914Y-95260475D02*
X104760533Y-95355713D01*
X115254819Y-106052857D02*
X114778628Y-106386190D01*
X115254819Y-106624285D02*
X114254819Y-106624285D01*
X114254819Y-106624285D02*
X114254819Y-106243333D01*
X114254819Y-106243333D02*
X114302438Y-106148095D01*
X114302438Y-106148095D02*
X114350057Y-106100476D01*
X114350057Y-106100476D02*
X114445295Y-106052857D01*
X114445295Y-106052857D02*
X114588152Y-106052857D01*
X114588152Y-106052857D02*
X114683390Y-106100476D01*
X114683390Y-106100476D02*
X114731009Y-106148095D01*
X114731009Y-106148095D02*
X114778628Y-106243333D01*
X114778628Y-106243333D02*
X114778628Y-106624285D01*
X115254819Y-105100476D02*
X115254819Y-105671904D01*
X115254819Y-105386190D02*
X114254819Y-105386190D01*
X114254819Y-105386190D02*
X114397676Y-105481428D01*
X114397676Y-105481428D02*
X114492914Y-105576666D01*
X114492914Y-105576666D02*
X114540533Y-105671904D01*
X114588152Y-104243333D02*
X115254819Y-104243333D01*
X114207200Y-104481428D02*
X114921485Y-104719523D01*
X114921485Y-104719523D02*
X114921485Y-104100476D01*
X112454819Y-70666666D02*
X111978628Y-70999999D01*
X112454819Y-71238094D02*
X111454819Y-71238094D01*
X111454819Y-71238094D02*
X111454819Y-70857142D01*
X111454819Y-70857142D02*
X111502438Y-70761904D01*
X111502438Y-70761904D02*
X111550057Y-70714285D01*
X111550057Y-70714285D02*
X111645295Y-70666666D01*
X111645295Y-70666666D02*
X111788152Y-70666666D01*
X111788152Y-70666666D02*
X111883390Y-70714285D01*
X111883390Y-70714285D02*
X111931009Y-70761904D01*
X111931009Y-70761904D02*
X111978628Y-70857142D01*
X111978628Y-70857142D02*
X111978628Y-71238094D01*
X111454819Y-69761904D02*
X111454819Y-70238094D01*
X111454819Y-70238094D02*
X111931009Y-70285713D01*
X111931009Y-70285713D02*
X111883390Y-70238094D01*
X111883390Y-70238094D02*
X111835771Y-70142856D01*
X111835771Y-70142856D02*
X111835771Y-69904761D01*
X111835771Y-69904761D02*
X111883390Y-69809523D01*
X111883390Y-69809523D02*
X111931009Y-69761904D01*
X111931009Y-69761904D02*
X112026247Y-69714285D01*
X112026247Y-69714285D02*
X112264342Y-69714285D01*
X112264342Y-69714285D02*
X112359580Y-69761904D01*
X112359580Y-69761904D02*
X112407200Y-69809523D01*
X112407200Y-69809523D02*
X112454819Y-69904761D01*
X112454819Y-69904761D02*
X112454819Y-70142856D01*
X112454819Y-70142856D02*
X112407200Y-70238094D01*
X112407200Y-70238094D02*
X112359580Y-70285713D01*
X175704819Y-40592857D02*
X175228628Y-40926190D01*
X175704819Y-41164285D02*
X174704819Y-41164285D01*
X174704819Y-41164285D02*
X174704819Y-40783333D01*
X174704819Y-40783333D02*
X174752438Y-40688095D01*
X174752438Y-40688095D02*
X174800057Y-40640476D01*
X174800057Y-40640476D02*
X174895295Y-40592857D01*
X174895295Y-40592857D02*
X175038152Y-40592857D01*
X175038152Y-40592857D02*
X175133390Y-40640476D01*
X175133390Y-40640476D02*
X175181009Y-40688095D01*
X175181009Y-40688095D02*
X175228628Y-40783333D01*
X175228628Y-40783333D02*
X175228628Y-41164285D01*
X175704819Y-39640476D02*
X175704819Y-40211904D01*
X175704819Y-39926190D02*
X174704819Y-39926190D01*
X174704819Y-39926190D02*
X174847676Y-40021428D01*
X174847676Y-40021428D02*
X174942914Y-40116666D01*
X174942914Y-40116666D02*
X174990533Y-40211904D01*
X174704819Y-38783333D02*
X174704819Y-38973809D01*
X174704819Y-38973809D02*
X174752438Y-39069047D01*
X174752438Y-39069047D02*
X174800057Y-39116666D01*
X174800057Y-39116666D02*
X174942914Y-39211904D01*
X174942914Y-39211904D02*
X175133390Y-39259523D01*
X175133390Y-39259523D02*
X175514342Y-39259523D01*
X175514342Y-39259523D02*
X175609580Y-39211904D01*
X175609580Y-39211904D02*
X175657200Y-39164285D01*
X175657200Y-39164285D02*
X175704819Y-39069047D01*
X175704819Y-39069047D02*
X175704819Y-38878571D01*
X175704819Y-38878571D02*
X175657200Y-38783333D01*
X175657200Y-38783333D02*
X175609580Y-38735714D01*
X175609580Y-38735714D02*
X175514342Y-38688095D01*
X175514342Y-38688095D02*
X175276247Y-38688095D01*
X175276247Y-38688095D02*
X175181009Y-38735714D01*
X175181009Y-38735714D02*
X175133390Y-38783333D01*
X175133390Y-38783333D02*
X175085771Y-38878571D01*
X175085771Y-38878571D02*
X175085771Y-39069047D01*
X175085771Y-39069047D02*
X175133390Y-39164285D01*
X175133390Y-39164285D02*
X175181009Y-39211904D01*
X175181009Y-39211904D02*
X175276247Y-39259523D01*
X169586905Y-63449819D02*
X169586905Y-64259342D01*
X169586905Y-64259342D02*
X169634524Y-64354580D01*
X169634524Y-64354580D02*
X169682143Y-64402200D01*
X169682143Y-64402200D02*
X169777381Y-64449819D01*
X169777381Y-64449819D02*
X169967857Y-64449819D01*
X169967857Y-64449819D02*
X170063095Y-64402200D01*
X170063095Y-64402200D02*
X170110714Y-64354580D01*
X170110714Y-64354580D02*
X170158333Y-64259342D01*
X170158333Y-64259342D02*
X170158333Y-63449819D01*
X171158333Y-64449819D02*
X170586905Y-64449819D01*
X170872619Y-64449819D02*
X170872619Y-63449819D01*
X170872619Y-63449819D02*
X170777381Y-63592676D01*
X170777381Y-63592676D02*
X170682143Y-63687914D01*
X170682143Y-63687914D02*
X170586905Y-63735533D01*
X172110714Y-64449819D02*
X171539286Y-64449819D01*
X171825000Y-64449819D02*
X171825000Y-63449819D01*
X171825000Y-63449819D02*
X171729762Y-63592676D01*
X171729762Y-63592676D02*
X171634524Y-63687914D01*
X171634524Y-63687914D02*
X171539286Y-63735533D01*
X94054819Y-75956547D02*
X93578628Y-76289880D01*
X94054819Y-76527975D02*
X93054819Y-76527975D01*
X93054819Y-76527975D02*
X93054819Y-76147023D01*
X93054819Y-76147023D02*
X93102438Y-76051785D01*
X93102438Y-76051785D02*
X93150057Y-76004166D01*
X93150057Y-76004166D02*
X93245295Y-75956547D01*
X93245295Y-75956547D02*
X93388152Y-75956547D01*
X93388152Y-75956547D02*
X93483390Y-76004166D01*
X93483390Y-76004166D02*
X93531009Y-76051785D01*
X93531009Y-76051785D02*
X93578628Y-76147023D01*
X93578628Y-76147023D02*
X93578628Y-76527975D01*
X94054819Y-75004166D02*
X94054819Y-75575594D01*
X94054819Y-75289880D02*
X93054819Y-75289880D01*
X93054819Y-75289880D02*
X93197676Y-75385118D01*
X93197676Y-75385118D02*
X93292914Y-75480356D01*
X93292914Y-75480356D02*
X93340533Y-75575594D01*
X93054819Y-74385118D02*
X93054819Y-74289880D01*
X93054819Y-74289880D02*
X93102438Y-74194642D01*
X93102438Y-74194642D02*
X93150057Y-74147023D01*
X93150057Y-74147023D02*
X93245295Y-74099404D01*
X93245295Y-74099404D02*
X93435771Y-74051785D01*
X93435771Y-74051785D02*
X93673866Y-74051785D01*
X93673866Y-74051785D02*
X93864342Y-74099404D01*
X93864342Y-74099404D02*
X93959580Y-74147023D01*
X93959580Y-74147023D02*
X94007200Y-74194642D01*
X94007200Y-74194642D02*
X94054819Y-74289880D01*
X94054819Y-74289880D02*
X94054819Y-74385118D01*
X94054819Y-74385118D02*
X94007200Y-74480356D01*
X94007200Y-74480356D02*
X93959580Y-74527975D01*
X93959580Y-74527975D02*
X93864342Y-74575594D01*
X93864342Y-74575594D02*
X93673866Y-74623213D01*
X93673866Y-74623213D02*
X93435771Y-74623213D01*
X93435771Y-74623213D02*
X93245295Y-74575594D01*
X93245295Y-74575594D02*
X93150057Y-74527975D01*
X93150057Y-74527975D02*
X93102438Y-74480356D01*
X93102438Y-74480356D02*
X93054819Y-74385118D01*
X93054819Y-73432737D02*
X93054819Y-73337499D01*
X93054819Y-73337499D02*
X93102438Y-73242261D01*
X93102438Y-73242261D02*
X93150057Y-73194642D01*
X93150057Y-73194642D02*
X93245295Y-73147023D01*
X93245295Y-73147023D02*
X93435771Y-73099404D01*
X93435771Y-73099404D02*
X93673866Y-73099404D01*
X93673866Y-73099404D02*
X93864342Y-73147023D01*
X93864342Y-73147023D02*
X93959580Y-73194642D01*
X93959580Y-73194642D02*
X94007200Y-73242261D01*
X94007200Y-73242261D02*
X94054819Y-73337499D01*
X94054819Y-73337499D02*
X94054819Y-73432737D01*
X94054819Y-73432737D02*
X94007200Y-73527975D01*
X94007200Y-73527975D02*
X93959580Y-73575594D01*
X93959580Y-73575594D02*
X93864342Y-73623213D01*
X93864342Y-73623213D02*
X93673866Y-73670832D01*
X93673866Y-73670832D02*
X93435771Y-73670832D01*
X93435771Y-73670832D02*
X93245295Y-73623213D01*
X93245295Y-73623213D02*
X93150057Y-73575594D01*
X93150057Y-73575594D02*
X93102438Y-73527975D01*
X93102438Y-73527975D02*
X93054819Y-73432737D01*
X128657200Y-108159523D02*
X128704819Y-108016666D01*
X128704819Y-108016666D02*
X128704819Y-107778571D01*
X128704819Y-107778571D02*
X128657200Y-107683333D01*
X128657200Y-107683333D02*
X128609580Y-107635714D01*
X128609580Y-107635714D02*
X128514342Y-107588095D01*
X128514342Y-107588095D02*
X128419104Y-107588095D01*
X128419104Y-107588095D02*
X128323866Y-107635714D01*
X128323866Y-107635714D02*
X128276247Y-107683333D01*
X128276247Y-107683333D02*
X128228628Y-107778571D01*
X128228628Y-107778571D02*
X128181009Y-107969047D01*
X128181009Y-107969047D02*
X128133390Y-108064285D01*
X128133390Y-108064285D02*
X128085771Y-108111904D01*
X128085771Y-108111904D02*
X127990533Y-108159523D01*
X127990533Y-108159523D02*
X127895295Y-108159523D01*
X127895295Y-108159523D02*
X127800057Y-108111904D01*
X127800057Y-108111904D02*
X127752438Y-108064285D01*
X127752438Y-108064285D02*
X127704819Y-107969047D01*
X127704819Y-107969047D02*
X127704819Y-107730952D01*
X127704819Y-107730952D02*
X127752438Y-107588095D01*
X127704819Y-107254761D02*
X128704819Y-107016666D01*
X128704819Y-107016666D02*
X127990533Y-106826190D01*
X127990533Y-106826190D02*
X128704819Y-106635714D01*
X128704819Y-106635714D02*
X127704819Y-106397619D01*
X128704819Y-105492857D02*
X128704819Y-106064285D01*
X128704819Y-105778571D02*
X127704819Y-105778571D01*
X127704819Y-105778571D02*
X127847676Y-105873809D01*
X127847676Y-105873809D02*
X127942914Y-105969047D01*
X127942914Y-105969047D02*
X127990533Y-106064285D01*
X128038152Y-104635714D02*
X128704819Y-104635714D01*
X127657200Y-104873809D02*
X128371485Y-105111904D01*
X128371485Y-105111904D02*
X128371485Y-104492857D01*
X135504820Y-82300694D02*
X136314343Y-82300694D01*
X136314343Y-82300694D02*
X136409581Y-82253075D01*
X136409581Y-82253075D02*
X136457201Y-82205456D01*
X136457201Y-82205456D02*
X136504820Y-82110218D01*
X136504820Y-82110218D02*
X136504820Y-81919742D01*
X136504820Y-81919742D02*
X136457201Y-81824504D01*
X136457201Y-81824504D02*
X136409581Y-81776885D01*
X136409581Y-81776885D02*
X136314343Y-81729266D01*
X136314343Y-81729266D02*
X135504820Y-81729266D01*
X135504820Y-80824504D02*
X135504820Y-81014980D01*
X135504820Y-81014980D02*
X135552439Y-81110218D01*
X135552439Y-81110218D02*
X135600058Y-81157837D01*
X135600058Y-81157837D02*
X135742915Y-81253075D01*
X135742915Y-81253075D02*
X135933391Y-81300694D01*
X135933391Y-81300694D02*
X136314343Y-81300694D01*
X136314343Y-81300694D02*
X136409581Y-81253075D01*
X136409581Y-81253075D02*
X136457201Y-81205456D01*
X136457201Y-81205456D02*
X136504820Y-81110218D01*
X136504820Y-81110218D02*
X136504820Y-80919742D01*
X136504820Y-80919742D02*
X136457201Y-80824504D01*
X136457201Y-80824504D02*
X136409581Y-80776885D01*
X136409581Y-80776885D02*
X136314343Y-80729266D01*
X136314343Y-80729266D02*
X136076248Y-80729266D01*
X136076248Y-80729266D02*
X135981010Y-80776885D01*
X135981010Y-80776885D02*
X135933391Y-80824504D01*
X135933391Y-80824504D02*
X135885772Y-80919742D01*
X135885772Y-80919742D02*
X135885772Y-81110218D01*
X135885772Y-81110218D02*
X135933391Y-81205456D01*
X135933391Y-81205456D02*
X135981010Y-81253075D01*
X135981010Y-81253075D02*
X136076248Y-81300694D01*
X135504820Y-80395932D02*
X135504820Y-79729266D01*
X135504820Y-79729266D02*
X136504820Y-80157837D01*
X134674819Y-81699999D02*
X134912914Y-81699999D01*
X134817676Y-81938094D02*
X134912914Y-81699999D01*
X134912914Y-81699999D02*
X134817676Y-81461904D01*
X135103390Y-81842856D02*
X134912914Y-81699999D01*
X134912914Y-81699999D02*
X135103390Y-81557142D01*
X134654819Y-82369999D02*
X134892914Y-82369999D01*
X134797676Y-82608094D02*
X134892914Y-82369999D01*
X134892914Y-82369999D02*
X134797676Y-82131904D01*
X135083390Y-82512856D02*
X134892914Y-82369999D01*
X134892914Y-82369999D02*
X135083390Y-82227142D01*
X145634580Y-36416666D02*
X145682200Y-36464285D01*
X145682200Y-36464285D02*
X145729819Y-36607142D01*
X145729819Y-36607142D02*
X145729819Y-36702380D01*
X145729819Y-36702380D02*
X145682200Y-36845237D01*
X145682200Y-36845237D02*
X145586961Y-36940475D01*
X145586961Y-36940475D02*
X145491723Y-36988094D01*
X145491723Y-36988094D02*
X145301247Y-37035713D01*
X145301247Y-37035713D02*
X145158390Y-37035713D01*
X145158390Y-37035713D02*
X144967914Y-36988094D01*
X144967914Y-36988094D02*
X144872676Y-36940475D01*
X144872676Y-36940475D02*
X144777438Y-36845237D01*
X144777438Y-36845237D02*
X144729819Y-36702380D01*
X144729819Y-36702380D02*
X144729819Y-36607142D01*
X144729819Y-36607142D02*
X144777438Y-36464285D01*
X144777438Y-36464285D02*
X144825057Y-36416666D01*
X144729819Y-36083332D02*
X144729819Y-35464285D01*
X144729819Y-35464285D02*
X145110771Y-35797618D01*
X145110771Y-35797618D02*
X145110771Y-35654761D01*
X145110771Y-35654761D02*
X145158390Y-35559523D01*
X145158390Y-35559523D02*
X145206009Y-35511904D01*
X145206009Y-35511904D02*
X145301247Y-35464285D01*
X145301247Y-35464285D02*
X145539342Y-35464285D01*
X145539342Y-35464285D02*
X145634580Y-35511904D01*
X145634580Y-35511904D02*
X145682200Y-35559523D01*
X145682200Y-35559523D02*
X145729819Y-35654761D01*
X145729819Y-35654761D02*
X145729819Y-35940475D01*
X145729819Y-35940475D02*
X145682200Y-36035713D01*
X145682200Y-36035713D02*
X145634580Y-36083332D01*
X112366905Y-45054819D02*
X112366905Y-44054819D01*
X112366905Y-44054819D02*
X112605000Y-44054819D01*
X112605000Y-44054819D02*
X112747857Y-44102438D01*
X112747857Y-44102438D02*
X112843095Y-44197676D01*
X112843095Y-44197676D02*
X112890714Y-44292914D01*
X112890714Y-44292914D02*
X112938333Y-44483390D01*
X112938333Y-44483390D02*
X112938333Y-44626247D01*
X112938333Y-44626247D02*
X112890714Y-44816723D01*
X112890714Y-44816723D02*
X112843095Y-44911961D01*
X112843095Y-44911961D02*
X112747857Y-45007200D01*
X112747857Y-45007200D02*
X112605000Y-45054819D01*
X112605000Y-45054819D02*
X112366905Y-45054819D01*
X113890714Y-45054819D02*
X113319286Y-45054819D01*
X113605000Y-45054819D02*
X113605000Y-44054819D01*
X113605000Y-44054819D02*
X113509762Y-44197676D01*
X113509762Y-44197676D02*
X113414524Y-44292914D01*
X113414524Y-44292914D02*
X113319286Y-44340533D01*
X124307200Y-108009523D02*
X124354819Y-107866666D01*
X124354819Y-107866666D02*
X124354819Y-107628571D01*
X124354819Y-107628571D02*
X124307200Y-107533333D01*
X124307200Y-107533333D02*
X124259580Y-107485714D01*
X124259580Y-107485714D02*
X124164342Y-107438095D01*
X124164342Y-107438095D02*
X124069104Y-107438095D01*
X124069104Y-107438095D02*
X123973866Y-107485714D01*
X123973866Y-107485714D02*
X123926247Y-107533333D01*
X123926247Y-107533333D02*
X123878628Y-107628571D01*
X123878628Y-107628571D02*
X123831009Y-107819047D01*
X123831009Y-107819047D02*
X123783390Y-107914285D01*
X123783390Y-107914285D02*
X123735771Y-107961904D01*
X123735771Y-107961904D02*
X123640533Y-108009523D01*
X123640533Y-108009523D02*
X123545295Y-108009523D01*
X123545295Y-108009523D02*
X123450057Y-107961904D01*
X123450057Y-107961904D02*
X123402438Y-107914285D01*
X123402438Y-107914285D02*
X123354819Y-107819047D01*
X123354819Y-107819047D02*
X123354819Y-107580952D01*
X123354819Y-107580952D02*
X123402438Y-107438095D01*
X123354819Y-107104761D02*
X124354819Y-106866666D01*
X124354819Y-106866666D02*
X123640533Y-106676190D01*
X123640533Y-106676190D02*
X124354819Y-106485714D01*
X124354819Y-106485714D02*
X123354819Y-106247619D01*
X124354819Y-105342857D02*
X124354819Y-105914285D01*
X124354819Y-105628571D02*
X123354819Y-105628571D01*
X123354819Y-105628571D02*
X123497676Y-105723809D01*
X123497676Y-105723809D02*
X123592914Y-105819047D01*
X123592914Y-105819047D02*
X123640533Y-105914285D01*
X123354819Y-104438095D02*
X123354819Y-104914285D01*
X123354819Y-104914285D02*
X123831009Y-104961904D01*
X123831009Y-104961904D02*
X123783390Y-104914285D01*
X123783390Y-104914285D02*
X123735771Y-104819047D01*
X123735771Y-104819047D02*
X123735771Y-104580952D01*
X123735771Y-104580952D02*
X123783390Y-104485714D01*
X123783390Y-104485714D02*
X123831009Y-104438095D01*
X123831009Y-104438095D02*
X123926247Y-104390476D01*
X123926247Y-104390476D02*
X124164342Y-104390476D01*
X124164342Y-104390476D02*
X124259580Y-104438095D01*
X124259580Y-104438095D02*
X124307200Y-104485714D01*
X124307200Y-104485714D02*
X124354819Y-104580952D01*
X124354819Y-104580952D02*
X124354819Y-104819047D01*
X124354819Y-104819047D02*
X124307200Y-104914285D01*
X124307200Y-104914285D02*
X124259580Y-104961904D01*
X118459819Y-106242857D02*
X117983628Y-106576190D01*
X118459819Y-106814285D02*
X117459819Y-106814285D01*
X117459819Y-106814285D02*
X117459819Y-106433333D01*
X117459819Y-106433333D02*
X117507438Y-106338095D01*
X117507438Y-106338095D02*
X117555057Y-106290476D01*
X117555057Y-106290476D02*
X117650295Y-106242857D01*
X117650295Y-106242857D02*
X117793152Y-106242857D01*
X117793152Y-106242857D02*
X117888390Y-106290476D01*
X117888390Y-106290476D02*
X117936009Y-106338095D01*
X117936009Y-106338095D02*
X117983628Y-106433333D01*
X117983628Y-106433333D02*
X117983628Y-106814285D01*
X117555057Y-105861904D02*
X117507438Y-105814285D01*
X117507438Y-105814285D02*
X117459819Y-105719047D01*
X117459819Y-105719047D02*
X117459819Y-105480952D01*
X117459819Y-105480952D02*
X117507438Y-105385714D01*
X117507438Y-105385714D02*
X117555057Y-105338095D01*
X117555057Y-105338095D02*
X117650295Y-105290476D01*
X117650295Y-105290476D02*
X117745533Y-105290476D01*
X117745533Y-105290476D02*
X117888390Y-105338095D01*
X117888390Y-105338095D02*
X118459819Y-105909523D01*
X118459819Y-105909523D02*
X118459819Y-105290476D01*
X117793152Y-104433333D02*
X118459819Y-104433333D01*
X117412200Y-104671428D02*
X118126485Y-104909523D01*
X118126485Y-104909523D02*
X118126485Y-104290476D01*
X184054819Y-40592857D02*
X183578628Y-40926190D01*
X184054819Y-41164285D02*
X183054819Y-41164285D01*
X183054819Y-41164285D02*
X183054819Y-40783333D01*
X183054819Y-40783333D02*
X183102438Y-40688095D01*
X183102438Y-40688095D02*
X183150057Y-40640476D01*
X183150057Y-40640476D02*
X183245295Y-40592857D01*
X183245295Y-40592857D02*
X183388152Y-40592857D01*
X183388152Y-40592857D02*
X183483390Y-40640476D01*
X183483390Y-40640476D02*
X183531009Y-40688095D01*
X183531009Y-40688095D02*
X183578628Y-40783333D01*
X183578628Y-40783333D02*
X183578628Y-41164285D01*
X184054819Y-39640476D02*
X184054819Y-40211904D01*
X184054819Y-39926190D02*
X183054819Y-39926190D01*
X183054819Y-39926190D02*
X183197676Y-40021428D01*
X183197676Y-40021428D02*
X183292914Y-40116666D01*
X183292914Y-40116666D02*
X183340533Y-40211904D01*
X183483390Y-39069047D02*
X183435771Y-39164285D01*
X183435771Y-39164285D02*
X183388152Y-39211904D01*
X183388152Y-39211904D02*
X183292914Y-39259523D01*
X183292914Y-39259523D02*
X183245295Y-39259523D01*
X183245295Y-39259523D02*
X183150057Y-39211904D01*
X183150057Y-39211904D02*
X183102438Y-39164285D01*
X183102438Y-39164285D02*
X183054819Y-39069047D01*
X183054819Y-39069047D02*
X183054819Y-38878571D01*
X183054819Y-38878571D02*
X183102438Y-38783333D01*
X183102438Y-38783333D02*
X183150057Y-38735714D01*
X183150057Y-38735714D02*
X183245295Y-38688095D01*
X183245295Y-38688095D02*
X183292914Y-38688095D01*
X183292914Y-38688095D02*
X183388152Y-38735714D01*
X183388152Y-38735714D02*
X183435771Y-38783333D01*
X183435771Y-38783333D02*
X183483390Y-38878571D01*
X183483390Y-38878571D02*
X183483390Y-39069047D01*
X183483390Y-39069047D02*
X183531009Y-39164285D01*
X183531009Y-39164285D02*
X183578628Y-39211904D01*
X183578628Y-39211904D02*
X183673866Y-39259523D01*
X183673866Y-39259523D02*
X183864342Y-39259523D01*
X183864342Y-39259523D02*
X183959580Y-39211904D01*
X183959580Y-39211904D02*
X184007200Y-39164285D01*
X184007200Y-39164285D02*
X184054819Y-39069047D01*
X184054819Y-39069047D02*
X184054819Y-38878571D01*
X184054819Y-38878571D02*
X184007200Y-38783333D01*
X184007200Y-38783333D02*
X183959580Y-38735714D01*
X183959580Y-38735714D02*
X183864342Y-38688095D01*
X183864342Y-38688095D02*
X183673866Y-38688095D01*
X183673866Y-38688095D02*
X183578628Y-38735714D01*
X183578628Y-38735714D02*
X183531009Y-38783333D01*
X183531009Y-38783333D02*
X183483390Y-38878571D01*
X133407200Y-108159523D02*
X133454819Y-108016666D01*
X133454819Y-108016666D02*
X133454819Y-107778571D01*
X133454819Y-107778571D02*
X133407200Y-107683333D01*
X133407200Y-107683333D02*
X133359580Y-107635714D01*
X133359580Y-107635714D02*
X133264342Y-107588095D01*
X133264342Y-107588095D02*
X133169104Y-107588095D01*
X133169104Y-107588095D02*
X133073866Y-107635714D01*
X133073866Y-107635714D02*
X133026247Y-107683333D01*
X133026247Y-107683333D02*
X132978628Y-107778571D01*
X132978628Y-107778571D02*
X132931009Y-107969047D01*
X132931009Y-107969047D02*
X132883390Y-108064285D01*
X132883390Y-108064285D02*
X132835771Y-108111904D01*
X132835771Y-108111904D02*
X132740533Y-108159523D01*
X132740533Y-108159523D02*
X132645295Y-108159523D01*
X132645295Y-108159523D02*
X132550057Y-108111904D01*
X132550057Y-108111904D02*
X132502438Y-108064285D01*
X132502438Y-108064285D02*
X132454819Y-107969047D01*
X132454819Y-107969047D02*
X132454819Y-107730952D01*
X132454819Y-107730952D02*
X132502438Y-107588095D01*
X132454819Y-107254761D02*
X133454819Y-107016666D01*
X133454819Y-107016666D02*
X132740533Y-106826190D01*
X132740533Y-106826190D02*
X133454819Y-106635714D01*
X133454819Y-106635714D02*
X132454819Y-106397619D01*
X133454819Y-105492857D02*
X133454819Y-106064285D01*
X133454819Y-105778571D02*
X132454819Y-105778571D01*
X132454819Y-105778571D02*
X132597676Y-105873809D01*
X132597676Y-105873809D02*
X132692914Y-105969047D01*
X132692914Y-105969047D02*
X132740533Y-106064285D01*
X132454819Y-105159523D02*
X132454819Y-104540476D01*
X132454819Y-104540476D02*
X132835771Y-104873809D01*
X132835771Y-104873809D02*
X132835771Y-104730952D01*
X132835771Y-104730952D02*
X132883390Y-104635714D01*
X132883390Y-104635714D02*
X132931009Y-104588095D01*
X132931009Y-104588095D02*
X133026247Y-104540476D01*
X133026247Y-104540476D02*
X133264342Y-104540476D01*
X133264342Y-104540476D02*
X133359580Y-104588095D01*
X133359580Y-104588095D02*
X133407200Y-104635714D01*
X133407200Y-104635714D02*
X133454819Y-104730952D01*
X133454819Y-104730952D02*
X133454819Y-105016666D01*
X133454819Y-105016666D02*
X133407200Y-105111904D01*
X133407200Y-105111904D02*
X133359580Y-105159523D01*
X193904819Y-102566666D02*
X193428628Y-102899999D01*
X193904819Y-103138094D02*
X192904819Y-103138094D01*
X192904819Y-103138094D02*
X192904819Y-102757142D01*
X192904819Y-102757142D02*
X192952438Y-102661904D01*
X192952438Y-102661904D02*
X193000057Y-102614285D01*
X193000057Y-102614285D02*
X193095295Y-102566666D01*
X193095295Y-102566666D02*
X193238152Y-102566666D01*
X193238152Y-102566666D02*
X193333390Y-102614285D01*
X193333390Y-102614285D02*
X193381009Y-102661904D01*
X193381009Y-102661904D02*
X193428628Y-102757142D01*
X193428628Y-102757142D02*
X193428628Y-103138094D01*
X193238152Y-101709523D02*
X193904819Y-101709523D01*
X192857200Y-101947618D02*
X193571485Y-102185713D01*
X193571485Y-102185713D02*
X193571485Y-101566666D01*
X140054819Y-103480357D02*
X139578628Y-103813690D01*
X140054819Y-104051785D02*
X139054819Y-104051785D01*
X139054819Y-104051785D02*
X139054819Y-103670833D01*
X139054819Y-103670833D02*
X139102438Y-103575595D01*
X139102438Y-103575595D02*
X139150057Y-103527976D01*
X139150057Y-103527976D02*
X139245295Y-103480357D01*
X139245295Y-103480357D02*
X139388152Y-103480357D01*
X139388152Y-103480357D02*
X139483390Y-103527976D01*
X139483390Y-103527976D02*
X139531009Y-103575595D01*
X139531009Y-103575595D02*
X139578628Y-103670833D01*
X139578628Y-103670833D02*
X139578628Y-104051785D01*
X140054819Y-102527976D02*
X140054819Y-103099404D01*
X140054819Y-102813690D02*
X139054819Y-102813690D01*
X139054819Y-102813690D02*
X139197676Y-102908928D01*
X139197676Y-102908928D02*
X139292914Y-103004166D01*
X139292914Y-103004166D02*
X139340533Y-103099404D01*
X140054819Y-102051785D02*
X140054819Y-101861309D01*
X140054819Y-101861309D02*
X140007200Y-101766071D01*
X140007200Y-101766071D02*
X139959580Y-101718452D01*
X139959580Y-101718452D02*
X139816723Y-101623214D01*
X139816723Y-101623214D02*
X139626247Y-101575595D01*
X139626247Y-101575595D02*
X139245295Y-101575595D01*
X139245295Y-101575595D02*
X139150057Y-101623214D01*
X139150057Y-101623214D02*
X139102438Y-101670833D01*
X139102438Y-101670833D02*
X139054819Y-101766071D01*
X139054819Y-101766071D02*
X139054819Y-101956547D01*
X139054819Y-101956547D02*
X139102438Y-102051785D01*
X139102438Y-102051785D02*
X139150057Y-102099404D01*
X139150057Y-102099404D02*
X139245295Y-102147023D01*
X139245295Y-102147023D02*
X139483390Y-102147023D01*
X139483390Y-102147023D02*
X139578628Y-102099404D01*
X139578628Y-102099404D02*
X139626247Y-102051785D01*
X139626247Y-102051785D02*
X139673866Y-101956547D01*
X139673866Y-101956547D02*
X139673866Y-101766071D01*
X139673866Y-101766071D02*
X139626247Y-101670833D01*
X139626247Y-101670833D02*
X139578628Y-101623214D01*
X139578628Y-101623214D02*
X139483390Y-101575595D01*
X177794580Y-51752857D02*
X177842200Y-51800476D01*
X177842200Y-51800476D02*
X177889819Y-51943333D01*
X177889819Y-51943333D02*
X177889819Y-52038571D01*
X177889819Y-52038571D02*
X177842200Y-52181428D01*
X177842200Y-52181428D02*
X177746961Y-52276666D01*
X177746961Y-52276666D02*
X177651723Y-52324285D01*
X177651723Y-52324285D02*
X177461247Y-52371904D01*
X177461247Y-52371904D02*
X177318390Y-52371904D01*
X177318390Y-52371904D02*
X177127914Y-52324285D01*
X177127914Y-52324285D02*
X177032676Y-52276666D01*
X177032676Y-52276666D02*
X176937438Y-52181428D01*
X176937438Y-52181428D02*
X176889819Y-52038571D01*
X176889819Y-52038571D02*
X176889819Y-51943333D01*
X176889819Y-51943333D02*
X176937438Y-51800476D01*
X176937438Y-51800476D02*
X176985057Y-51752857D01*
X176985057Y-51371904D02*
X176937438Y-51324285D01*
X176937438Y-51324285D02*
X176889819Y-51229047D01*
X176889819Y-51229047D02*
X176889819Y-50990952D01*
X176889819Y-50990952D02*
X176937438Y-50895714D01*
X176937438Y-50895714D02*
X176985057Y-50848095D01*
X176985057Y-50848095D02*
X177080295Y-50800476D01*
X177080295Y-50800476D02*
X177175533Y-50800476D01*
X177175533Y-50800476D02*
X177318390Y-50848095D01*
X177318390Y-50848095D02*
X177889819Y-51419523D01*
X177889819Y-51419523D02*
X177889819Y-50800476D01*
X177318390Y-50229047D02*
X177270771Y-50324285D01*
X177270771Y-50324285D02*
X177223152Y-50371904D01*
X177223152Y-50371904D02*
X177127914Y-50419523D01*
X177127914Y-50419523D02*
X177080295Y-50419523D01*
X177080295Y-50419523D02*
X176985057Y-50371904D01*
X176985057Y-50371904D02*
X176937438Y-50324285D01*
X176937438Y-50324285D02*
X176889819Y-50229047D01*
X176889819Y-50229047D02*
X176889819Y-50038571D01*
X176889819Y-50038571D02*
X176937438Y-49943333D01*
X176937438Y-49943333D02*
X176985057Y-49895714D01*
X176985057Y-49895714D02*
X177080295Y-49848095D01*
X177080295Y-49848095D02*
X177127914Y-49848095D01*
X177127914Y-49848095D02*
X177223152Y-49895714D01*
X177223152Y-49895714D02*
X177270771Y-49943333D01*
X177270771Y-49943333D02*
X177318390Y-50038571D01*
X177318390Y-50038571D02*
X177318390Y-50229047D01*
X177318390Y-50229047D02*
X177366009Y-50324285D01*
X177366009Y-50324285D02*
X177413628Y-50371904D01*
X177413628Y-50371904D02*
X177508866Y-50419523D01*
X177508866Y-50419523D02*
X177699342Y-50419523D01*
X177699342Y-50419523D02*
X177794580Y-50371904D01*
X177794580Y-50371904D02*
X177842200Y-50324285D01*
X177842200Y-50324285D02*
X177889819Y-50229047D01*
X177889819Y-50229047D02*
X177889819Y-50038571D01*
X177889819Y-50038571D02*
X177842200Y-49943333D01*
X177842200Y-49943333D02*
X177794580Y-49895714D01*
X177794580Y-49895714D02*
X177699342Y-49848095D01*
X177699342Y-49848095D02*
X177508866Y-49848095D01*
X177508866Y-49848095D02*
X177413628Y-49895714D01*
X177413628Y-49895714D02*
X177366009Y-49943333D01*
X177366009Y-49943333D02*
X177318390Y-50038571D01*
X154169580Y-41056666D02*
X154217200Y-41104285D01*
X154217200Y-41104285D02*
X154264819Y-41247142D01*
X154264819Y-41247142D02*
X154264819Y-41342380D01*
X154264819Y-41342380D02*
X154217200Y-41485237D01*
X154217200Y-41485237D02*
X154121961Y-41580475D01*
X154121961Y-41580475D02*
X154026723Y-41628094D01*
X154026723Y-41628094D02*
X153836247Y-41675713D01*
X153836247Y-41675713D02*
X153693390Y-41675713D01*
X153693390Y-41675713D02*
X153502914Y-41628094D01*
X153502914Y-41628094D02*
X153407676Y-41580475D01*
X153407676Y-41580475D02*
X153312438Y-41485237D01*
X153312438Y-41485237D02*
X153264819Y-41342380D01*
X153264819Y-41342380D02*
X153264819Y-41247142D01*
X153264819Y-41247142D02*
X153312438Y-41104285D01*
X153312438Y-41104285D02*
X153360057Y-41056666D01*
X153264819Y-40151904D02*
X153264819Y-40628094D01*
X153264819Y-40628094D02*
X153741009Y-40675713D01*
X153741009Y-40675713D02*
X153693390Y-40628094D01*
X153693390Y-40628094D02*
X153645771Y-40532856D01*
X153645771Y-40532856D02*
X153645771Y-40294761D01*
X153645771Y-40294761D02*
X153693390Y-40199523D01*
X153693390Y-40199523D02*
X153741009Y-40151904D01*
X153741009Y-40151904D02*
X153836247Y-40104285D01*
X153836247Y-40104285D02*
X154074342Y-40104285D01*
X154074342Y-40104285D02*
X154169580Y-40151904D01*
X154169580Y-40151904D02*
X154217200Y-40199523D01*
X154217200Y-40199523D02*
X154264819Y-40294761D01*
X154264819Y-40294761D02*
X154264819Y-40532856D01*
X154264819Y-40532856D02*
X154217200Y-40628094D01*
X154217200Y-40628094D02*
X154169580Y-40675713D01*
X140479524Y-114484819D02*
X140479524Y-113484819D01*
X140479524Y-113484819D02*
X140717619Y-113484819D01*
X140717619Y-113484819D02*
X140860476Y-113532438D01*
X140860476Y-113532438D02*
X140955714Y-113627676D01*
X140955714Y-113627676D02*
X141003333Y-113722914D01*
X141003333Y-113722914D02*
X141050952Y-113913390D01*
X141050952Y-113913390D02*
X141050952Y-114056247D01*
X141050952Y-114056247D02*
X141003333Y-114246723D01*
X141003333Y-114246723D02*
X140955714Y-114341961D01*
X140955714Y-114341961D02*
X140860476Y-114437200D01*
X140860476Y-114437200D02*
X140717619Y-114484819D01*
X140717619Y-114484819D02*
X140479524Y-114484819D01*
X142003333Y-114484819D02*
X141431905Y-114484819D01*
X141717619Y-114484819D02*
X141717619Y-113484819D01*
X141717619Y-113484819D02*
X141622381Y-113627676D01*
X141622381Y-113627676D02*
X141527143Y-113722914D01*
X141527143Y-113722914D02*
X141431905Y-113770533D01*
X142622381Y-113484819D02*
X142717619Y-113484819D01*
X142717619Y-113484819D02*
X142812857Y-113532438D01*
X142812857Y-113532438D02*
X142860476Y-113580057D01*
X142860476Y-113580057D02*
X142908095Y-113675295D01*
X142908095Y-113675295D02*
X142955714Y-113865771D01*
X142955714Y-113865771D02*
X142955714Y-114103866D01*
X142955714Y-114103866D02*
X142908095Y-114294342D01*
X142908095Y-114294342D02*
X142860476Y-114389580D01*
X142860476Y-114389580D02*
X142812857Y-114437200D01*
X142812857Y-114437200D02*
X142717619Y-114484819D01*
X142717619Y-114484819D02*
X142622381Y-114484819D01*
X142622381Y-114484819D02*
X142527143Y-114437200D01*
X142527143Y-114437200D02*
X142479524Y-114389580D01*
X142479524Y-114389580D02*
X142431905Y-114294342D01*
X142431905Y-114294342D02*
X142384286Y-114103866D01*
X142384286Y-114103866D02*
X142384286Y-113865771D01*
X142384286Y-113865771D02*
X142431905Y-113675295D01*
X142431905Y-113675295D02*
X142479524Y-113580057D01*
X142479524Y-113580057D02*
X142527143Y-113532438D01*
X142527143Y-113532438D02*
X142622381Y-113484819D01*
X143574762Y-113484819D02*
X143670000Y-113484819D01*
X143670000Y-113484819D02*
X143765238Y-113532438D01*
X143765238Y-113532438D02*
X143812857Y-113580057D01*
X143812857Y-113580057D02*
X143860476Y-113675295D01*
X143860476Y-113675295D02*
X143908095Y-113865771D01*
X143908095Y-113865771D02*
X143908095Y-114103866D01*
X143908095Y-114103866D02*
X143860476Y-114294342D01*
X143860476Y-114294342D02*
X143812857Y-114389580D01*
X143812857Y-114389580D02*
X143765238Y-114437200D01*
X143765238Y-114437200D02*
X143670000Y-114484819D01*
X143670000Y-114484819D02*
X143574762Y-114484819D01*
X143574762Y-114484819D02*
X143479524Y-114437200D01*
X143479524Y-114437200D02*
X143431905Y-114389580D01*
X143431905Y-114389580D02*
X143384286Y-114294342D01*
X143384286Y-114294342D02*
X143336667Y-114103866D01*
X143336667Y-114103866D02*
X143336667Y-113865771D01*
X143336667Y-113865771D02*
X143384286Y-113675295D01*
X143384286Y-113675295D02*
X143431905Y-113580057D01*
X143431905Y-113580057D02*
X143479524Y-113532438D01*
X143479524Y-113532438D02*
X143574762Y-113484819D01*
X136828095Y-116954819D02*
X136828095Y-115954819D01*
X137399523Y-116954819D02*
X136970952Y-116383390D01*
X137399523Y-115954819D02*
X136828095Y-116526247D01*
X137354819Y-102055357D02*
X136878628Y-102388690D01*
X137354819Y-102626785D02*
X136354819Y-102626785D01*
X136354819Y-102626785D02*
X136354819Y-102245833D01*
X136354819Y-102245833D02*
X136402438Y-102150595D01*
X136402438Y-102150595D02*
X136450057Y-102102976D01*
X136450057Y-102102976D02*
X136545295Y-102055357D01*
X136545295Y-102055357D02*
X136688152Y-102055357D01*
X136688152Y-102055357D02*
X136783390Y-102102976D01*
X136783390Y-102102976D02*
X136831009Y-102150595D01*
X136831009Y-102150595D02*
X136878628Y-102245833D01*
X136878628Y-102245833D02*
X136878628Y-102626785D01*
X136450057Y-101674404D02*
X136402438Y-101626785D01*
X136402438Y-101626785D02*
X136354819Y-101531547D01*
X136354819Y-101531547D02*
X136354819Y-101293452D01*
X136354819Y-101293452D02*
X136402438Y-101198214D01*
X136402438Y-101198214D02*
X136450057Y-101150595D01*
X136450057Y-101150595D02*
X136545295Y-101102976D01*
X136545295Y-101102976D02*
X136640533Y-101102976D01*
X136640533Y-101102976D02*
X136783390Y-101150595D01*
X136783390Y-101150595D02*
X137354819Y-101722023D01*
X137354819Y-101722023D02*
X137354819Y-101102976D01*
X136354819Y-100483928D02*
X136354819Y-100388690D01*
X136354819Y-100388690D02*
X136402438Y-100293452D01*
X136402438Y-100293452D02*
X136450057Y-100245833D01*
X136450057Y-100245833D02*
X136545295Y-100198214D01*
X136545295Y-100198214D02*
X136735771Y-100150595D01*
X136735771Y-100150595D02*
X136973866Y-100150595D01*
X136973866Y-100150595D02*
X137164342Y-100198214D01*
X137164342Y-100198214D02*
X137259580Y-100245833D01*
X137259580Y-100245833D02*
X137307200Y-100293452D01*
X137307200Y-100293452D02*
X137354819Y-100388690D01*
X137354819Y-100388690D02*
X137354819Y-100483928D01*
X137354819Y-100483928D02*
X137307200Y-100579166D01*
X137307200Y-100579166D02*
X137259580Y-100626785D01*
X137259580Y-100626785D02*
X137164342Y-100674404D01*
X137164342Y-100674404D02*
X136973866Y-100722023D01*
X136973866Y-100722023D02*
X136735771Y-100722023D01*
X136735771Y-100722023D02*
X136545295Y-100674404D01*
X136545295Y-100674404D02*
X136450057Y-100626785D01*
X136450057Y-100626785D02*
X136402438Y-100579166D01*
X136402438Y-100579166D02*
X136354819Y-100483928D01*
X133553809Y-72248628D02*
X133553809Y-72724819D01*
X133220476Y-71724819D02*
X133553809Y-72248628D01*
X133553809Y-72248628D02*
X133887142Y-71724819D01*
X134744285Y-72724819D02*
X134172857Y-72724819D01*
X134458571Y-72724819D02*
X134458571Y-71724819D01*
X134458571Y-71724819D02*
X134363333Y-71867676D01*
X134363333Y-71867676D02*
X134268095Y-71962914D01*
X134268095Y-71962914D02*
X134172857Y-72010533D01*
X112112819Y-99511904D02*
X112922342Y-99511904D01*
X112922342Y-99511904D02*
X113017580Y-99464285D01*
X113017580Y-99464285D02*
X113065200Y-99416666D01*
X113065200Y-99416666D02*
X113112819Y-99321428D01*
X113112819Y-99321428D02*
X113112819Y-99130952D01*
X113112819Y-99130952D02*
X113065200Y-99035714D01*
X113065200Y-99035714D02*
X113017580Y-98988095D01*
X113017580Y-98988095D02*
X112922342Y-98940476D01*
X112922342Y-98940476D02*
X112112819Y-98940476D01*
X112112819Y-98559523D02*
X112112819Y-97892857D01*
X112112819Y-97892857D02*
X113112819Y-98321428D01*
X110530952Y-65359580D02*
X110483333Y-65407200D01*
X110483333Y-65407200D02*
X110340476Y-65454819D01*
X110340476Y-65454819D02*
X110245238Y-65454819D01*
X110245238Y-65454819D02*
X110102381Y-65407200D01*
X110102381Y-65407200D02*
X110007143Y-65311961D01*
X110007143Y-65311961D02*
X109959524Y-65216723D01*
X109959524Y-65216723D02*
X109911905Y-65026247D01*
X109911905Y-65026247D02*
X109911905Y-64883390D01*
X109911905Y-64883390D02*
X109959524Y-64692914D01*
X109959524Y-64692914D02*
X110007143Y-64597676D01*
X110007143Y-64597676D02*
X110102381Y-64502438D01*
X110102381Y-64502438D02*
X110245238Y-64454819D01*
X110245238Y-64454819D02*
X110340476Y-64454819D01*
X110340476Y-64454819D02*
X110483333Y-64502438D01*
X110483333Y-64502438D02*
X110530952Y-64550057D01*
X110864286Y-64454819D02*
X111483333Y-64454819D01*
X111483333Y-64454819D02*
X111150000Y-64835771D01*
X111150000Y-64835771D02*
X111292857Y-64835771D01*
X111292857Y-64835771D02*
X111388095Y-64883390D01*
X111388095Y-64883390D02*
X111435714Y-64931009D01*
X111435714Y-64931009D02*
X111483333Y-65026247D01*
X111483333Y-65026247D02*
X111483333Y-65264342D01*
X111483333Y-65264342D02*
X111435714Y-65359580D01*
X111435714Y-65359580D02*
X111388095Y-65407200D01*
X111388095Y-65407200D02*
X111292857Y-65454819D01*
X111292857Y-65454819D02*
X111007143Y-65454819D01*
X111007143Y-65454819D02*
X110911905Y-65407200D01*
X110911905Y-65407200D02*
X110864286Y-65359580D01*
X112102381Y-64454819D02*
X112197619Y-64454819D01*
X112197619Y-64454819D02*
X112292857Y-64502438D01*
X112292857Y-64502438D02*
X112340476Y-64550057D01*
X112340476Y-64550057D02*
X112388095Y-64645295D01*
X112388095Y-64645295D02*
X112435714Y-64835771D01*
X112435714Y-64835771D02*
X112435714Y-65073866D01*
X112435714Y-65073866D02*
X112388095Y-65264342D01*
X112388095Y-65264342D02*
X112340476Y-65359580D01*
X112340476Y-65359580D02*
X112292857Y-65407200D01*
X112292857Y-65407200D02*
X112197619Y-65454819D01*
X112197619Y-65454819D02*
X112102381Y-65454819D01*
X112102381Y-65454819D02*
X112007143Y-65407200D01*
X112007143Y-65407200D02*
X111959524Y-65359580D01*
X111959524Y-65359580D02*
X111911905Y-65264342D01*
X111911905Y-65264342D02*
X111864286Y-65073866D01*
X111864286Y-65073866D02*
X111864286Y-64835771D01*
X111864286Y-64835771D02*
X111911905Y-64645295D01*
X111911905Y-64645295D02*
X111959524Y-64550057D01*
X111959524Y-64550057D02*
X112007143Y-64502438D01*
X112007143Y-64502438D02*
X112102381Y-64454819D01*
X112769048Y-64454819D02*
X113388095Y-64454819D01*
X113388095Y-64454819D02*
X113054762Y-64835771D01*
X113054762Y-64835771D02*
X113197619Y-64835771D01*
X113197619Y-64835771D02*
X113292857Y-64883390D01*
X113292857Y-64883390D02*
X113340476Y-64931009D01*
X113340476Y-64931009D02*
X113388095Y-65026247D01*
X113388095Y-65026247D02*
X113388095Y-65264342D01*
X113388095Y-65264342D02*
X113340476Y-65359580D01*
X113340476Y-65359580D02*
X113292857Y-65407200D01*
X113292857Y-65407200D02*
X113197619Y-65454819D01*
X113197619Y-65454819D02*
X112911905Y-65454819D01*
X112911905Y-65454819D02*
X112816667Y-65407200D01*
X112816667Y-65407200D02*
X112769048Y-65359580D01*
X124001905Y-61246819D02*
X124573333Y-61246819D01*
X124287619Y-62246819D02*
X124287619Y-61246819D01*
X124906667Y-62246819D02*
X124906667Y-61246819D01*
X124906667Y-61246819D02*
X125287619Y-61246819D01*
X125287619Y-61246819D02*
X125382857Y-61294438D01*
X125382857Y-61294438D02*
X125430476Y-61342057D01*
X125430476Y-61342057D02*
X125478095Y-61437295D01*
X125478095Y-61437295D02*
X125478095Y-61580152D01*
X125478095Y-61580152D02*
X125430476Y-61675390D01*
X125430476Y-61675390D02*
X125382857Y-61723009D01*
X125382857Y-61723009D02*
X125287619Y-61770628D01*
X125287619Y-61770628D02*
X124906667Y-61770628D01*
X126430476Y-62246819D02*
X125859048Y-62246819D01*
X126144762Y-62246819D02*
X126144762Y-61246819D01*
X126144762Y-61246819D02*
X126049524Y-61389676D01*
X126049524Y-61389676D02*
X125954286Y-61484914D01*
X125954286Y-61484914D02*
X125859048Y-61532533D01*
X127049524Y-61246819D02*
X127144762Y-61246819D01*
X127144762Y-61246819D02*
X127240000Y-61294438D01*
X127240000Y-61294438D02*
X127287619Y-61342057D01*
X127287619Y-61342057D02*
X127335238Y-61437295D01*
X127335238Y-61437295D02*
X127382857Y-61627771D01*
X127382857Y-61627771D02*
X127382857Y-61865866D01*
X127382857Y-61865866D02*
X127335238Y-62056342D01*
X127335238Y-62056342D02*
X127287619Y-62151580D01*
X127287619Y-62151580D02*
X127240000Y-62199200D01*
X127240000Y-62199200D02*
X127144762Y-62246819D01*
X127144762Y-62246819D02*
X127049524Y-62246819D01*
X127049524Y-62246819D02*
X126954286Y-62199200D01*
X126954286Y-62199200D02*
X126906667Y-62151580D01*
X126906667Y-62151580D02*
X126859048Y-62056342D01*
X126859048Y-62056342D02*
X126811429Y-61865866D01*
X126811429Y-61865866D02*
X126811429Y-61627771D01*
X126811429Y-61627771D02*
X126859048Y-61437295D01*
X126859048Y-61437295D02*
X126906667Y-61342057D01*
X126906667Y-61342057D02*
X126954286Y-61294438D01*
X126954286Y-61294438D02*
X127049524Y-61246819D01*
X188117142Y-47389580D02*
X188069523Y-47437200D01*
X188069523Y-47437200D02*
X187926666Y-47484819D01*
X187926666Y-47484819D02*
X187831428Y-47484819D01*
X187831428Y-47484819D02*
X187688571Y-47437200D01*
X187688571Y-47437200D02*
X187593333Y-47341961D01*
X187593333Y-47341961D02*
X187545714Y-47246723D01*
X187545714Y-47246723D02*
X187498095Y-47056247D01*
X187498095Y-47056247D02*
X187498095Y-46913390D01*
X187498095Y-46913390D02*
X187545714Y-46722914D01*
X187545714Y-46722914D02*
X187593333Y-46627676D01*
X187593333Y-46627676D02*
X187688571Y-46532438D01*
X187688571Y-46532438D02*
X187831428Y-46484819D01*
X187831428Y-46484819D02*
X187926666Y-46484819D01*
X187926666Y-46484819D02*
X188069523Y-46532438D01*
X188069523Y-46532438D02*
X188117142Y-46580057D01*
X189069523Y-47484819D02*
X188498095Y-47484819D01*
X188783809Y-47484819D02*
X188783809Y-46484819D01*
X188783809Y-46484819D02*
X188688571Y-46627676D01*
X188688571Y-46627676D02*
X188593333Y-46722914D01*
X188593333Y-46722914D02*
X188498095Y-46770533D01*
X189450476Y-46580057D02*
X189498095Y-46532438D01*
X189498095Y-46532438D02*
X189593333Y-46484819D01*
X189593333Y-46484819D02*
X189831428Y-46484819D01*
X189831428Y-46484819D02*
X189926666Y-46532438D01*
X189926666Y-46532438D02*
X189974285Y-46580057D01*
X189974285Y-46580057D02*
X190021904Y-46675295D01*
X190021904Y-46675295D02*
X190021904Y-46770533D01*
X190021904Y-46770533D02*
X189974285Y-46913390D01*
X189974285Y-46913390D02*
X189402857Y-47484819D01*
X189402857Y-47484819D02*
X190021904Y-47484819D01*
X157004642Y-122644819D02*
X156671309Y-122168628D01*
X156433214Y-122644819D02*
X156433214Y-121644819D01*
X156433214Y-121644819D02*
X156814166Y-121644819D01*
X156814166Y-121644819D02*
X156909404Y-121692438D01*
X156909404Y-121692438D02*
X156957023Y-121740057D01*
X156957023Y-121740057D02*
X157004642Y-121835295D01*
X157004642Y-121835295D02*
X157004642Y-121978152D01*
X157004642Y-121978152D02*
X156957023Y-122073390D01*
X156957023Y-122073390D02*
X156909404Y-122121009D01*
X156909404Y-122121009D02*
X156814166Y-122168628D01*
X156814166Y-122168628D02*
X156433214Y-122168628D01*
X157957023Y-122644819D02*
X157385595Y-122644819D01*
X157671309Y-122644819D02*
X157671309Y-121644819D01*
X157671309Y-121644819D02*
X157576071Y-121787676D01*
X157576071Y-121787676D02*
X157480833Y-121882914D01*
X157480833Y-121882914D02*
X157385595Y-121930533D01*
X158861785Y-121644819D02*
X158385595Y-121644819D01*
X158385595Y-121644819D02*
X158337976Y-122121009D01*
X158337976Y-122121009D02*
X158385595Y-122073390D01*
X158385595Y-122073390D02*
X158480833Y-122025771D01*
X158480833Y-122025771D02*
X158718928Y-122025771D01*
X158718928Y-122025771D02*
X158814166Y-122073390D01*
X158814166Y-122073390D02*
X158861785Y-122121009D01*
X158861785Y-122121009D02*
X158909404Y-122216247D01*
X158909404Y-122216247D02*
X158909404Y-122454342D01*
X158909404Y-122454342D02*
X158861785Y-122549580D01*
X158861785Y-122549580D02*
X158814166Y-122597200D01*
X158814166Y-122597200D02*
X158718928Y-122644819D01*
X158718928Y-122644819D02*
X158480833Y-122644819D01*
X158480833Y-122644819D02*
X158385595Y-122597200D01*
X158385595Y-122597200D02*
X158337976Y-122549580D01*
X83082319Y-78203333D02*
X83796604Y-78203333D01*
X83796604Y-78203333D02*
X83939461Y-78250952D01*
X83939461Y-78250952D02*
X84034700Y-78346190D01*
X84034700Y-78346190D02*
X84082319Y-78489047D01*
X84082319Y-78489047D02*
X84082319Y-78584285D01*
X83415652Y-77298571D02*
X84082319Y-77298571D01*
X83034700Y-77536666D02*
X83748985Y-77774761D01*
X83748985Y-77774761D02*
X83748985Y-77155714D01*
X176767142Y-76899580D02*
X176719523Y-76947200D01*
X176719523Y-76947200D02*
X176576666Y-76994819D01*
X176576666Y-76994819D02*
X176481428Y-76994819D01*
X176481428Y-76994819D02*
X176338571Y-76947200D01*
X176338571Y-76947200D02*
X176243333Y-76851961D01*
X176243333Y-76851961D02*
X176195714Y-76756723D01*
X176195714Y-76756723D02*
X176148095Y-76566247D01*
X176148095Y-76566247D02*
X176148095Y-76423390D01*
X176148095Y-76423390D02*
X176195714Y-76232914D01*
X176195714Y-76232914D02*
X176243333Y-76137676D01*
X176243333Y-76137676D02*
X176338571Y-76042438D01*
X176338571Y-76042438D02*
X176481428Y-75994819D01*
X176481428Y-75994819D02*
X176576666Y-75994819D01*
X176576666Y-75994819D02*
X176719523Y-76042438D01*
X176719523Y-76042438D02*
X176767142Y-76090057D01*
X177148095Y-76090057D02*
X177195714Y-76042438D01*
X177195714Y-76042438D02*
X177290952Y-75994819D01*
X177290952Y-75994819D02*
X177529047Y-75994819D01*
X177529047Y-75994819D02*
X177624285Y-76042438D01*
X177624285Y-76042438D02*
X177671904Y-76090057D01*
X177671904Y-76090057D02*
X177719523Y-76185295D01*
X177719523Y-76185295D02*
X177719523Y-76280533D01*
X177719523Y-76280533D02*
X177671904Y-76423390D01*
X177671904Y-76423390D02*
X177100476Y-76994819D01*
X177100476Y-76994819D02*
X177719523Y-76994819D01*
X178338571Y-75994819D02*
X178433809Y-75994819D01*
X178433809Y-75994819D02*
X178529047Y-76042438D01*
X178529047Y-76042438D02*
X178576666Y-76090057D01*
X178576666Y-76090057D02*
X178624285Y-76185295D01*
X178624285Y-76185295D02*
X178671904Y-76375771D01*
X178671904Y-76375771D02*
X178671904Y-76613866D01*
X178671904Y-76613866D02*
X178624285Y-76804342D01*
X178624285Y-76804342D02*
X178576666Y-76899580D01*
X178576666Y-76899580D02*
X178529047Y-76947200D01*
X178529047Y-76947200D02*
X178433809Y-76994819D01*
X178433809Y-76994819D02*
X178338571Y-76994819D01*
X178338571Y-76994819D02*
X178243333Y-76947200D01*
X178243333Y-76947200D02*
X178195714Y-76899580D01*
X178195714Y-76899580D02*
X178148095Y-76804342D01*
X178148095Y-76804342D02*
X178100476Y-76613866D01*
X178100476Y-76613866D02*
X178100476Y-76375771D01*
X178100476Y-76375771D02*
X178148095Y-76185295D01*
X178148095Y-76185295D02*
X178195714Y-76090057D01*
X178195714Y-76090057D02*
X178243333Y-76042438D01*
X178243333Y-76042438D02*
X178338571Y-75994819D01*
X88216666Y-52706009D02*
X87883333Y-52706009D01*
X87883333Y-53229819D02*
X87883333Y-52229819D01*
X87883333Y-52229819D02*
X88359523Y-52229819D01*
X89264285Y-53229819D02*
X88692857Y-53229819D01*
X88978571Y-53229819D02*
X88978571Y-52229819D01*
X88978571Y-52229819D02*
X88883333Y-52372676D01*
X88883333Y-52372676D02*
X88788095Y-52467914D01*
X88788095Y-52467914D02*
X88692857Y-52515533D01*
X82617976Y-87244819D02*
X82617976Y-86244819D01*
X82617976Y-86244819D02*
X82951309Y-86959104D01*
X82951309Y-86959104D02*
X83284642Y-86244819D01*
X83284642Y-86244819D02*
X83284642Y-87244819D01*
X84189404Y-86244819D02*
X83998928Y-86244819D01*
X83998928Y-86244819D02*
X83903690Y-86292438D01*
X83903690Y-86292438D02*
X83856071Y-86340057D01*
X83856071Y-86340057D02*
X83760833Y-86482914D01*
X83760833Y-86482914D02*
X83713214Y-86673390D01*
X83713214Y-86673390D02*
X83713214Y-87054342D01*
X83713214Y-87054342D02*
X83760833Y-87149580D01*
X83760833Y-87149580D02*
X83808452Y-87197200D01*
X83808452Y-87197200D02*
X83903690Y-87244819D01*
X83903690Y-87244819D02*
X84094166Y-87244819D01*
X84094166Y-87244819D02*
X84189404Y-87197200D01*
X84189404Y-87197200D02*
X84237023Y-87149580D01*
X84237023Y-87149580D02*
X84284642Y-87054342D01*
X84284642Y-87054342D02*
X84284642Y-86816247D01*
X84284642Y-86816247D02*
X84237023Y-86721009D01*
X84237023Y-86721009D02*
X84189404Y-86673390D01*
X84189404Y-86673390D02*
X84094166Y-86625771D01*
X84094166Y-86625771D02*
X83903690Y-86625771D01*
X83903690Y-86625771D02*
X83808452Y-86673390D01*
X83808452Y-86673390D02*
X83760833Y-86721009D01*
X83760833Y-86721009D02*
X83713214Y-86816247D01*
X177907200Y-36345832D02*
X177954819Y-36202975D01*
X177954819Y-36202975D02*
X177954819Y-35964880D01*
X177954819Y-35964880D02*
X177907200Y-35869642D01*
X177907200Y-35869642D02*
X177859580Y-35822023D01*
X177859580Y-35822023D02*
X177764342Y-35774404D01*
X177764342Y-35774404D02*
X177669104Y-35774404D01*
X177669104Y-35774404D02*
X177573866Y-35822023D01*
X177573866Y-35822023D02*
X177526247Y-35869642D01*
X177526247Y-35869642D02*
X177478628Y-35964880D01*
X177478628Y-35964880D02*
X177431009Y-36155356D01*
X177431009Y-36155356D02*
X177383390Y-36250594D01*
X177383390Y-36250594D02*
X177335771Y-36298213D01*
X177335771Y-36298213D02*
X177240533Y-36345832D01*
X177240533Y-36345832D02*
X177145295Y-36345832D01*
X177145295Y-36345832D02*
X177050057Y-36298213D01*
X177050057Y-36298213D02*
X177002438Y-36250594D01*
X177002438Y-36250594D02*
X176954819Y-36155356D01*
X176954819Y-36155356D02*
X176954819Y-35917261D01*
X176954819Y-35917261D02*
X177002438Y-35774404D01*
X176954819Y-35441070D02*
X177954819Y-35202975D01*
X177954819Y-35202975D02*
X177240533Y-35012499D01*
X177240533Y-35012499D02*
X177954819Y-34822023D01*
X177954819Y-34822023D02*
X176954819Y-34583928D01*
X177954819Y-34155356D02*
X177954819Y-33964880D01*
X177954819Y-33964880D02*
X177907200Y-33869642D01*
X177907200Y-33869642D02*
X177859580Y-33822023D01*
X177859580Y-33822023D02*
X177716723Y-33726785D01*
X177716723Y-33726785D02*
X177526247Y-33679166D01*
X177526247Y-33679166D02*
X177145295Y-33679166D01*
X177145295Y-33679166D02*
X177050057Y-33726785D01*
X177050057Y-33726785D02*
X177002438Y-33774404D01*
X177002438Y-33774404D02*
X176954819Y-33869642D01*
X176954819Y-33869642D02*
X176954819Y-34060118D01*
X176954819Y-34060118D02*
X177002438Y-34155356D01*
X177002438Y-34155356D02*
X177050057Y-34202975D01*
X177050057Y-34202975D02*
X177145295Y-34250594D01*
X177145295Y-34250594D02*
X177383390Y-34250594D01*
X177383390Y-34250594D02*
X177478628Y-34202975D01*
X177478628Y-34202975D02*
X177526247Y-34155356D01*
X177526247Y-34155356D02*
X177573866Y-34060118D01*
X177573866Y-34060118D02*
X177573866Y-33869642D01*
X177573866Y-33869642D02*
X177526247Y-33774404D01*
X177526247Y-33774404D02*
X177478628Y-33726785D01*
X177478628Y-33726785D02*
X177383390Y-33679166D01*
X176757142Y-85519580D02*
X176709523Y-85567200D01*
X176709523Y-85567200D02*
X176566666Y-85614819D01*
X176566666Y-85614819D02*
X176471428Y-85614819D01*
X176471428Y-85614819D02*
X176328571Y-85567200D01*
X176328571Y-85567200D02*
X176233333Y-85471961D01*
X176233333Y-85471961D02*
X176185714Y-85376723D01*
X176185714Y-85376723D02*
X176138095Y-85186247D01*
X176138095Y-85186247D02*
X176138095Y-85043390D01*
X176138095Y-85043390D02*
X176185714Y-84852914D01*
X176185714Y-84852914D02*
X176233333Y-84757676D01*
X176233333Y-84757676D02*
X176328571Y-84662438D01*
X176328571Y-84662438D02*
X176471428Y-84614819D01*
X176471428Y-84614819D02*
X176566666Y-84614819D01*
X176566666Y-84614819D02*
X176709523Y-84662438D01*
X176709523Y-84662438D02*
X176757142Y-84710057D01*
X177709523Y-85614819D02*
X177138095Y-85614819D01*
X177423809Y-85614819D02*
X177423809Y-84614819D01*
X177423809Y-84614819D02*
X177328571Y-84757676D01*
X177328571Y-84757676D02*
X177233333Y-84852914D01*
X177233333Y-84852914D02*
X177138095Y-84900533D01*
X178328571Y-84614819D02*
X178423809Y-84614819D01*
X178423809Y-84614819D02*
X178519047Y-84662438D01*
X178519047Y-84662438D02*
X178566666Y-84710057D01*
X178566666Y-84710057D02*
X178614285Y-84805295D01*
X178614285Y-84805295D02*
X178661904Y-84995771D01*
X178661904Y-84995771D02*
X178661904Y-85233866D01*
X178661904Y-85233866D02*
X178614285Y-85424342D01*
X178614285Y-85424342D02*
X178566666Y-85519580D01*
X178566666Y-85519580D02*
X178519047Y-85567200D01*
X178519047Y-85567200D02*
X178423809Y-85614819D01*
X178423809Y-85614819D02*
X178328571Y-85614819D01*
X178328571Y-85614819D02*
X178233333Y-85567200D01*
X178233333Y-85567200D02*
X178185714Y-85519580D01*
X178185714Y-85519580D02*
X178138095Y-85424342D01*
X178138095Y-85424342D02*
X178090476Y-85233866D01*
X178090476Y-85233866D02*
X178090476Y-84995771D01*
X178090476Y-84995771D02*
X178138095Y-84805295D01*
X178138095Y-84805295D02*
X178185714Y-84710057D01*
X178185714Y-84710057D02*
X178233333Y-84662438D01*
X178233333Y-84662438D02*
X178328571Y-84614819D01*
X178204580Y-58237857D02*
X178252200Y-58285476D01*
X178252200Y-58285476D02*
X178299819Y-58428333D01*
X178299819Y-58428333D02*
X178299819Y-58523571D01*
X178299819Y-58523571D02*
X178252200Y-58666428D01*
X178252200Y-58666428D02*
X178156961Y-58761666D01*
X178156961Y-58761666D02*
X178061723Y-58809285D01*
X178061723Y-58809285D02*
X177871247Y-58856904D01*
X177871247Y-58856904D02*
X177728390Y-58856904D01*
X177728390Y-58856904D02*
X177537914Y-58809285D01*
X177537914Y-58809285D02*
X177442676Y-58761666D01*
X177442676Y-58761666D02*
X177347438Y-58666428D01*
X177347438Y-58666428D02*
X177299819Y-58523571D01*
X177299819Y-58523571D02*
X177299819Y-58428333D01*
X177299819Y-58428333D02*
X177347438Y-58285476D01*
X177347438Y-58285476D02*
X177395057Y-58237857D01*
X177395057Y-57856904D02*
X177347438Y-57809285D01*
X177347438Y-57809285D02*
X177299819Y-57714047D01*
X177299819Y-57714047D02*
X177299819Y-57475952D01*
X177299819Y-57475952D02*
X177347438Y-57380714D01*
X177347438Y-57380714D02*
X177395057Y-57333095D01*
X177395057Y-57333095D02*
X177490295Y-57285476D01*
X177490295Y-57285476D02*
X177585533Y-57285476D01*
X177585533Y-57285476D02*
X177728390Y-57333095D01*
X177728390Y-57333095D02*
X178299819Y-57904523D01*
X178299819Y-57904523D02*
X178299819Y-57285476D01*
X177299819Y-56380714D02*
X177299819Y-56856904D01*
X177299819Y-56856904D02*
X177776009Y-56904523D01*
X177776009Y-56904523D02*
X177728390Y-56856904D01*
X177728390Y-56856904D02*
X177680771Y-56761666D01*
X177680771Y-56761666D02*
X177680771Y-56523571D01*
X177680771Y-56523571D02*
X177728390Y-56428333D01*
X177728390Y-56428333D02*
X177776009Y-56380714D01*
X177776009Y-56380714D02*
X177871247Y-56333095D01*
X177871247Y-56333095D02*
X178109342Y-56333095D01*
X178109342Y-56333095D02*
X178204580Y-56380714D01*
X178204580Y-56380714D02*
X178252200Y-56428333D01*
X178252200Y-56428333D02*
X178299819Y-56523571D01*
X178299819Y-56523571D02*
X178299819Y-56761666D01*
X178299819Y-56761666D02*
X178252200Y-56856904D01*
X178252200Y-56856904D02*
X178204580Y-56904523D01*
X178204580Y-63337857D02*
X178252200Y-63385476D01*
X178252200Y-63385476D02*
X178299819Y-63528333D01*
X178299819Y-63528333D02*
X178299819Y-63623571D01*
X178299819Y-63623571D02*
X178252200Y-63766428D01*
X178252200Y-63766428D02*
X178156961Y-63861666D01*
X178156961Y-63861666D02*
X178061723Y-63909285D01*
X178061723Y-63909285D02*
X177871247Y-63956904D01*
X177871247Y-63956904D02*
X177728390Y-63956904D01*
X177728390Y-63956904D02*
X177537914Y-63909285D01*
X177537914Y-63909285D02*
X177442676Y-63861666D01*
X177442676Y-63861666D02*
X177347438Y-63766428D01*
X177347438Y-63766428D02*
X177299819Y-63623571D01*
X177299819Y-63623571D02*
X177299819Y-63528333D01*
X177299819Y-63528333D02*
X177347438Y-63385476D01*
X177347438Y-63385476D02*
X177395057Y-63337857D01*
X178299819Y-62385476D02*
X178299819Y-62956904D01*
X178299819Y-62671190D02*
X177299819Y-62671190D01*
X177299819Y-62671190D02*
X177442676Y-62766428D01*
X177442676Y-62766428D02*
X177537914Y-62861666D01*
X177537914Y-62861666D02*
X177585533Y-62956904D01*
X177299819Y-62052142D02*
X177299819Y-61433095D01*
X177299819Y-61433095D02*
X177680771Y-61766428D01*
X177680771Y-61766428D02*
X177680771Y-61623571D01*
X177680771Y-61623571D02*
X177728390Y-61528333D01*
X177728390Y-61528333D02*
X177776009Y-61480714D01*
X177776009Y-61480714D02*
X177871247Y-61433095D01*
X177871247Y-61433095D02*
X178109342Y-61433095D01*
X178109342Y-61433095D02*
X178204580Y-61480714D01*
X178204580Y-61480714D02*
X178252200Y-61528333D01*
X178252200Y-61528333D02*
X178299819Y-61623571D01*
X178299819Y-61623571D02*
X178299819Y-61909285D01*
X178299819Y-61909285D02*
X178252200Y-62004523D01*
X178252200Y-62004523D02*
X178204580Y-62052142D01*
X148679580Y-63158057D02*
X148727200Y-63205676D01*
X148727200Y-63205676D02*
X148774819Y-63348533D01*
X148774819Y-63348533D02*
X148774819Y-63443771D01*
X148774819Y-63443771D02*
X148727200Y-63586628D01*
X148727200Y-63586628D02*
X148631961Y-63681866D01*
X148631961Y-63681866D02*
X148536723Y-63729485D01*
X148536723Y-63729485D02*
X148346247Y-63777104D01*
X148346247Y-63777104D02*
X148203390Y-63777104D01*
X148203390Y-63777104D02*
X148012914Y-63729485D01*
X148012914Y-63729485D02*
X147917676Y-63681866D01*
X147917676Y-63681866D02*
X147822438Y-63586628D01*
X147822438Y-63586628D02*
X147774819Y-63443771D01*
X147774819Y-63443771D02*
X147774819Y-63348533D01*
X147774819Y-63348533D02*
X147822438Y-63205676D01*
X147822438Y-63205676D02*
X147870057Y-63158057D01*
X147774819Y-62824723D02*
X147774819Y-62158057D01*
X147774819Y-62158057D02*
X148774819Y-62586628D01*
X147870057Y-61824723D02*
X147822438Y-61777104D01*
X147822438Y-61777104D02*
X147774819Y-61681866D01*
X147774819Y-61681866D02*
X147774819Y-61443771D01*
X147774819Y-61443771D02*
X147822438Y-61348533D01*
X147822438Y-61348533D02*
X147870057Y-61300914D01*
X147870057Y-61300914D02*
X147965295Y-61253295D01*
X147965295Y-61253295D02*
X148060533Y-61253295D01*
X148060533Y-61253295D02*
X148203390Y-61300914D01*
X148203390Y-61300914D02*
X148774819Y-61872342D01*
X148774819Y-61872342D02*
X148774819Y-61253295D01*
X119869580Y-55141666D02*
X119917200Y-55189285D01*
X119917200Y-55189285D02*
X119964819Y-55332142D01*
X119964819Y-55332142D02*
X119964819Y-55427380D01*
X119964819Y-55427380D02*
X119917200Y-55570237D01*
X119917200Y-55570237D02*
X119821961Y-55665475D01*
X119821961Y-55665475D02*
X119726723Y-55713094D01*
X119726723Y-55713094D02*
X119536247Y-55760713D01*
X119536247Y-55760713D02*
X119393390Y-55760713D01*
X119393390Y-55760713D02*
X119202914Y-55713094D01*
X119202914Y-55713094D02*
X119107676Y-55665475D01*
X119107676Y-55665475D02*
X119012438Y-55570237D01*
X119012438Y-55570237D02*
X118964819Y-55427380D01*
X118964819Y-55427380D02*
X118964819Y-55332142D01*
X118964819Y-55332142D02*
X119012438Y-55189285D01*
X119012438Y-55189285D02*
X119060057Y-55141666D01*
X119964819Y-54189285D02*
X119964819Y-54760713D01*
X119964819Y-54474999D02*
X118964819Y-54474999D01*
X118964819Y-54474999D02*
X119107676Y-54570237D01*
X119107676Y-54570237D02*
X119202914Y-54665475D01*
X119202914Y-54665475D02*
X119250533Y-54760713D01*
X139272130Y-64442857D02*
X139319750Y-64490476D01*
X139319750Y-64490476D02*
X139367369Y-64633333D01*
X139367369Y-64633333D02*
X139367369Y-64728571D01*
X139367369Y-64728571D02*
X139319750Y-64871428D01*
X139319750Y-64871428D02*
X139224511Y-64966666D01*
X139224511Y-64966666D02*
X139129273Y-65014285D01*
X139129273Y-65014285D02*
X138938797Y-65061904D01*
X138938797Y-65061904D02*
X138795940Y-65061904D01*
X138795940Y-65061904D02*
X138605464Y-65014285D01*
X138605464Y-65014285D02*
X138510226Y-64966666D01*
X138510226Y-64966666D02*
X138414988Y-64871428D01*
X138414988Y-64871428D02*
X138367369Y-64728571D01*
X138367369Y-64728571D02*
X138367369Y-64633333D01*
X138367369Y-64633333D02*
X138414988Y-64490476D01*
X138414988Y-64490476D02*
X138462607Y-64442857D01*
X138462607Y-64061904D02*
X138414988Y-64014285D01*
X138414988Y-64014285D02*
X138367369Y-63919047D01*
X138367369Y-63919047D02*
X138367369Y-63680952D01*
X138367369Y-63680952D02*
X138414988Y-63585714D01*
X138414988Y-63585714D02*
X138462607Y-63538095D01*
X138462607Y-63538095D02*
X138557845Y-63490476D01*
X138557845Y-63490476D02*
X138653083Y-63490476D01*
X138653083Y-63490476D02*
X138795940Y-63538095D01*
X138795940Y-63538095D02*
X139367369Y-64109523D01*
X139367369Y-64109523D02*
X139367369Y-63490476D01*
X138700702Y-62633333D02*
X139367369Y-62633333D01*
X138319750Y-62871428D02*
X139034035Y-63109523D01*
X139034035Y-63109523D02*
X139034035Y-62490476D01*
X155679580Y-63058057D02*
X155727200Y-63105676D01*
X155727200Y-63105676D02*
X155774819Y-63248533D01*
X155774819Y-63248533D02*
X155774819Y-63343771D01*
X155774819Y-63343771D02*
X155727200Y-63486628D01*
X155727200Y-63486628D02*
X155631961Y-63581866D01*
X155631961Y-63581866D02*
X155536723Y-63629485D01*
X155536723Y-63629485D02*
X155346247Y-63677104D01*
X155346247Y-63677104D02*
X155203390Y-63677104D01*
X155203390Y-63677104D02*
X155012914Y-63629485D01*
X155012914Y-63629485D02*
X154917676Y-63581866D01*
X154917676Y-63581866D02*
X154822438Y-63486628D01*
X154822438Y-63486628D02*
X154774819Y-63343771D01*
X154774819Y-63343771D02*
X154774819Y-63248533D01*
X154774819Y-63248533D02*
X154822438Y-63105676D01*
X154822438Y-63105676D02*
X154870057Y-63058057D01*
X154774819Y-62724723D02*
X154774819Y-62058057D01*
X154774819Y-62058057D02*
X155774819Y-62486628D01*
X154774819Y-61772342D02*
X154774819Y-61153295D01*
X154774819Y-61153295D02*
X155155771Y-61486628D01*
X155155771Y-61486628D02*
X155155771Y-61343771D01*
X155155771Y-61343771D02*
X155203390Y-61248533D01*
X155203390Y-61248533D02*
X155251009Y-61200914D01*
X155251009Y-61200914D02*
X155346247Y-61153295D01*
X155346247Y-61153295D02*
X155584342Y-61153295D01*
X155584342Y-61153295D02*
X155679580Y-61200914D01*
X155679580Y-61200914D02*
X155727200Y-61248533D01*
X155727200Y-61248533D02*
X155774819Y-61343771D01*
X155774819Y-61343771D02*
X155774819Y-61629485D01*
X155774819Y-61629485D02*
X155727200Y-61724723D01*
X155727200Y-61724723D02*
X155679580Y-61772342D01*
X93988095Y-105829819D02*
X93988095Y-106639342D01*
X93988095Y-106639342D02*
X94035714Y-106734580D01*
X94035714Y-106734580D02*
X94083333Y-106782200D01*
X94083333Y-106782200D02*
X94178571Y-106829819D01*
X94178571Y-106829819D02*
X94369047Y-106829819D01*
X94369047Y-106829819D02*
X94464285Y-106782200D01*
X94464285Y-106782200D02*
X94511904Y-106734580D01*
X94511904Y-106734580D02*
X94559523Y-106639342D01*
X94559523Y-106639342D02*
X94559523Y-105829819D01*
X95511904Y-105829819D02*
X95035714Y-105829819D01*
X95035714Y-105829819D02*
X94988095Y-106306009D01*
X94988095Y-106306009D02*
X95035714Y-106258390D01*
X95035714Y-106258390D02*
X95130952Y-106210771D01*
X95130952Y-106210771D02*
X95369047Y-106210771D01*
X95369047Y-106210771D02*
X95464285Y-106258390D01*
X95464285Y-106258390D02*
X95511904Y-106306009D01*
X95511904Y-106306009D02*
X95559523Y-106401247D01*
X95559523Y-106401247D02*
X95559523Y-106639342D01*
X95559523Y-106639342D02*
X95511904Y-106734580D01*
X95511904Y-106734580D02*
X95464285Y-106782200D01*
X95464285Y-106782200D02*
X95369047Y-106829819D01*
X95369047Y-106829819D02*
X95130952Y-106829819D01*
X95130952Y-106829819D02*
X95035714Y-106782200D01*
X95035714Y-106782200D02*
X94988095Y-106734580D01*
X95677142Y-87334819D02*
X95343809Y-86858628D01*
X95105714Y-87334819D02*
X95105714Y-86334819D01*
X95105714Y-86334819D02*
X95486666Y-86334819D01*
X95486666Y-86334819D02*
X95581904Y-86382438D01*
X95581904Y-86382438D02*
X95629523Y-86430057D01*
X95629523Y-86430057D02*
X95677142Y-86525295D01*
X95677142Y-86525295D02*
X95677142Y-86668152D01*
X95677142Y-86668152D02*
X95629523Y-86763390D01*
X95629523Y-86763390D02*
X95581904Y-86811009D01*
X95581904Y-86811009D02*
X95486666Y-86858628D01*
X95486666Y-86858628D02*
X95105714Y-86858628D01*
X96058095Y-86430057D02*
X96105714Y-86382438D01*
X96105714Y-86382438D02*
X96200952Y-86334819D01*
X96200952Y-86334819D02*
X96439047Y-86334819D01*
X96439047Y-86334819D02*
X96534285Y-86382438D01*
X96534285Y-86382438D02*
X96581904Y-86430057D01*
X96581904Y-86430057D02*
X96629523Y-86525295D01*
X96629523Y-86525295D02*
X96629523Y-86620533D01*
X96629523Y-86620533D02*
X96581904Y-86763390D01*
X96581904Y-86763390D02*
X96010476Y-87334819D01*
X96010476Y-87334819D02*
X96629523Y-87334819D01*
X96962857Y-86334819D02*
X97581904Y-86334819D01*
X97581904Y-86334819D02*
X97248571Y-86715771D01*
X97248571Y-86715771D02*
X97391428Y-86715771D01*
X97391428Y-86715771D02*
X97486666Y-86763390D01*
X97486666Y-86763390D02*
X97534285Y-86811009D01*
X97534285Y-86811009D02*
X97581904Y-86906247D01*
X97581904Y-86906247D02*
X97581904Y-87144342D01*
X97581904Y-87144342D02*
X97534285Y-87239580D01*
X97534285Y-87239580D02*
X97486666Y-87287200D01*
X97486666Y-87287200D02*
X97391428Y-87334819D01*
X97391428Y-87334819D02*
X97105714Y-87334819D01*
X97105714Y-87334819D02*
X97010476Y-87287200D01*
X97010476Y-87287200D02*
X96962857Y-87239580D01*
X116493095Y-49802819D02*
X117064523Y-49802819D01*
X116778809Y-50802819D02*
X116778809Y-49802819D01*
X117397857Y-50802819D02*
X117397857Y-49802819D01*
X117397857Y-49802819D02*
X117778809Y-49802819D01*
X117778809Y-49802819D02*
X117874047Y-49850438D01*
X117874047Y-49850438D02*
X117921666Y-49898057D01*
X117921666Y-49898057D02*
X117969285Y-49993295D01*
X117969285Y-49993295D02*
X117969285Y-50136152D01*
X117969285Y-50136152D02*
X117921666Y-50231390D01*
X117921666Y-50231390D02*
X117874047Y-50279009D01*
X117874047Y-50279009D02*
X117778809Y-50326628D01*
X117778809Y-50326628D02*
X117397857Y-50326628D01*
X118921666Y-50802819D02*
X118350238Y-50802819D01*
X118635952Y-50802819D02*
X118635952Y-49802819D01*
X118635952Y-49802819D02*
X118540714Y-49945676D01*
X118540714Y-49945676D02*
X118445476Y-50040914D01*
X118445476Y-50040914D02*
X118350238Y-50088533D01*
X100715840Y-72604580D02*
X100668221Y-72652200D01*
X100668221Y-72652200D02*
X100525364Y-72699819D01*
X100525364Y-72699819D02*
X100430126Y-72699819D01*
X100430126Y-72699819D02*
X100287269Y-72652200D01*
X100287269Y-72652200D02*
X100192031Y-72556961D01*
X100192031Y-72556961D02*
X100144412Y-72461723D01*
X100144412Y-72461723D02*
X100096793Y-72271247D01*
X100096793Y-72271247D02*
X100096793Y-72128390D01*
X100096793Y-72128390D02*
X100144412Y-71937914D01*
X100144412Y-71937914D02*
X100192031Y-71842676D01*
X100192031Y-71842676D02*
X100287269Y-71747438D01*
X100287269Y-71747438D02*
X100430126Y-71699819D01*
X100430126Y-71699819D02*
X100525364Y-71699819D01*
X100525364Y-71699819D02*
X100668221Y-71747438D01*
X100668221Y-71747438D02*
X100715840Y-71795057D01*
X101049174Y-71699819D02*
X101668221Y-71699819D01*
X101668221Y-71699819D02*
X101334888Y-72080771D01*
X101334888Y-72080771D02*
X101477745Y-72080771D01*
X101477745Y-72080771D02*
X101572983Y-72128390D01*
X101572983Y-72128390D02*
X101620602Y-72176009D01*
X101620602Y-72176009D02*
X101668221Y-72271247D01*
X101668221Y-72271247D02*
X101668221Y-72509342D01*
X101668221Y-72509342D02*
X101620602Y-72604580D01*
X101620602Y-72604580D02*
X101572983Y-72652200D01*
X101572983Y-72652200D02*
X101477745Y-72699819D01*
X101477745Y-72699819D02*
X101192031Y-72699819D01*
X101192031Y-72699819D02*
X101096793Y-72652200D01*
X101096793Y-72652200D02*
X101049174Y-72604580D01*
X102287269Y-71699819D02*
X102382507Y-71699819D01*
X102382507Y-71699819D02*
X102477745Y-71747438D01*
X102477745Y-71747438D02*
X102525364Y-71795057D01*
X102525364Y-71795057D02*
X102572983Y-71890295D01*
X102572983Y-71890295D02*
X102620602Y-72080771D01*
X102620602Y-72080771D02*
X102620602Y-72318866D01*
X102620602Y-72318866D02*
X102572983Y-72509342D01*
X102572983Y-72509342D02*
X102525364Y-72604580D01*
X102525364Y-72604580D02*
X102477745Y-72652200D01*
X102477745Y-72652200D02*
X102382507Y-72699819D01*
X102382507Y-72699819D02*
X102287269Y-72699819D01*
X102287269Y-72699819D02*
X102192031Y-72652200D01*
X102192031Y-72652200D02*
X102144412Y-72604580D01*
X102144412Y-72604580D02*
X102096793Y-72509342D01*
X102096793Y-72509342D02*
X102049174Y-72318866D01*
X102049174Y-72318866D02*
X102049174Y-72080771D01*
X102049174Y-72080771D02*
X102096793Y-71890295D01*
X102096793Y-71890295D02*
X102144412Y-71795057D01*
X102144412Y-71795057D02*
X102192031Y-71747438D01*
X102192031Y-71747438D02*
X102287269Y-71699819D01*
X103572983Y-72699819D02*
X103001555Y-72699819D01*
X103287269Y-72699819D02*
X103287269Y-71699819D01*
X103287269Y-71699819D02*
X103192031Y-71842676D01*
X103192031Y-71842676D02*
X103096793Y-71937914D01*
X103096793Y-71937914D02*
X103001555Y-71985533D01*
X169816667Y-70407200D02*
X169959524Y-70454819D01*
X169959524Y-70454819D02*
X170197619Y-70454819D01*
X170197619Y-70454819D02*
X170292857Y-70407200D01*
X170292857Y-70407200D02*
X170340476Y-70359580D01*
X170340476Y-70359580D02*
X170388095Y-70264342D01*
X170388095Y-70264342D02*
X170388095Y-70169104D01*
X170388095Y-70169104D02*
X170340476Y-70073866D01*
X170340476Y-70073866D02*
X170292857Y-70026247D01*
X170292857Y-70026247D02*
X170197619Y-69978628D01*
X170197619Y-69978628D02*
X170007143Y-69931009D01*
X170007143Y-69931009D02*
X169911905Y-69883390D01*
X169911905Y-69883390D02*
X169864286Y-69835771D01*
X169864286Y-69835771D02*
X169816667Y-69740533D01*
X169816667Y-69740533D02*
X169816667Y-69645295D01*
X169816667Y-69645295D02*
X169864286Y-69550057D01*
X169864286Y-69550057D02*
X169911905Y-69502438D01*
X169911905Y-69502438D02*
X170007143Y-69454819D01*
X170007143Y-69454819D02*
X170245238Y-69454819D01*
X170245238Y-69454819D02*
X170388095Y-69502438D01*
X170721429Y-69454819D02*
X170959524Y-70454819D01*
X170959524Y-70454819D02*
X171150000Y-69740533D01*
X171150000Y-69740533D02*
X171340476Y-70454819D01*
X171340476Y-70454819D02*
X171578572Y-69454819D01*
X172102381Y-69883390D02*
X172007143Y-69835771D01*
X172007143Y-69835771D02*
X171959524Y-69788152D01*
X171959524Y-69788152D02*
X171911905Y-69692914D01*
X171911905Y-69692914D02*
X171911905Y-69645295D01*
X171911905Y-69645295D02*
X171959524Y-69550057D01*
X171959524Y-69550057D02*
X172007143Y-69502438D01*
X172007143Y-69502438D02*
X172102381Y-69454819D01*
X172102381Y-69454819D02*
X172292857Y-69454819D01*
X172292857Y-69454819D02*
X172388095Y-69502438D01*
X172388095Y-69502438D02*
X172435714Y-69550057D01*
X172435714Y-69550057D02*
X172483333Y-69645295D01*
X172483333Y-69645295D02*
X172483333Y-69692914D01*
X172483333Y-69692914D02*
X172435714Y-69788152D01*
X172435714Y-69788152D02*
X172388095Y-69835771D01*
X172388095Y-69835771D02*
X172292857Y-69883390D01*
X172292857Y-69883390D02*
X172102381Y-69883390D01*
X172102381Y-69883390D02*
X172007143Y-69931009D01*
X172007143Y-69931009D02*
X171959524Y-69978628D01*
X171959524Y-69978628D02*
X171911905Y-70073866D01*
X171911905Y-70073866D02*
X171911905Y-70264342D01*
X171911905Y-70264342D02*
X171959524Y-70359580D01*
X171959524Y-70359580D02*
X172007143Y-70407200D01*
X172007143Y-70407200D02*
X172102381Y-70454819D01*
X172102381Y-70454819D02*
X172292857Y-70454819D01*
X172292857Y-70454819D02*
X172388095Y-70407200D01*
X172388095Y-70407200D02*
X172435714Y-70359580D01*
X172435714Y-70359580D02*
X172483333Y-70264342D01*
X172483333Y-70264342D02*
X172483333Y-70073866D01*
X172483333Y-70073866D02*
X172435714Y-69978628D01*
X172435714Y-69978628D02*
X172388095Y-69931009D01*
X172388095Y-69931009D02*
X172292857Y-69883390D01*
X89894819Y-131719047D02*
X89418628Y-132052380D01*
X89894819Y-132290475D02*
X88894819Y-132290475D01*
X88894819Y-132290475D02*
X88894819Y-131909523D01*
X88894819Y-131909523D02*
X88942438Y-131814285D01*
X88942438Y-131814285D02*
X88990057Y-131766666D01*
X88990057Y-131766666D02*
X89085295Y-131719047D01*
X89085295Y-131719047D02*
X89228152Y-131719047D01*
X89228152Y-131719047D02*
X89323390Y-131766666D01*
X89323390Y-131766666D02*
X89371009Y-131814285D01*
X89371009Y-131814285D02*
X89418628Y-131909523D01*
X89418628Y-131909523D02*
X89418628Y-132290475D01*
X88990057Y-131338094D02*
X88942438Y-131290475D01*
X88942438Y-131290475D02*
X88894819Y-131195237D01*
X88894819Y-131195237D02*
X88894819Y-130957142D01*
X88894819Y-130957142D02*
X88942438Y-130861904D01*
X88942438Y-130861904D02*
X88990057Y-130814285D01*
X88990057Y-130814285D02*
X89085295Y-130766666D01*
X89085295Y-130766666D02*
X89180533Y-130766666D01*
X89180533Y-130766666D02*
X89323390Y-130814285D01*
X89323390Y-130814285D02*
X89894819Y-131385713D01*
X89894819Y-131385713D02*
X89894819Y-130766666D01*
X88894819Y-130147618D02*
X88894819Y-130052380D01*
X88894819Y-130052380D02*
X88942438Y-129957142D01*
X88942438Y-129957142D02*
X88990057Y-129909523D01*
X88990057Y-129909523D02*
X89085295Y-129861904D01*
X89085295Y-129861904D02*
X89275771Y-129814285D01*
X89275771Y-129814285D02*
X89513866Y-129814285D01*
X89513866Y-129814285D02*
X89704342Y-129861904D01*
X89704342Y-129861904D02*
X89799580Y-129909523D01*
X89799580Y-129909523D02*
X89847200Y-129957142D01*
X89847200Y-129957142D02*
X89894819Y-130052380D01*
X89894819Y-130052380D02*
X89894819Y-130147618D01*
X89894819Y-130147618D02*
X89847200Y-130242856D01*
X89847200Y-130242856D02*
X89799580Y-130290475D01*
X89799580Y-130290475D02*
X89704342Y-130338094D01*
X89704342Y-130338094D02*
X89513866Y-130385713D01*
X89513866Y-130385713D02*
X89275771Y-130385713D01*
X89275771Y-130385713D02*
X89085295Y-130338094D01*
X89085295Y-130338094D02*
X88990057Y-130290475D01*
X88990057Y-130290475D02*
X88942438Y-130242856D01*
X88942438Y-130242856D02*
X88894819Y-130147618D01*
X89894819Y-129338094D02*
X89894819Y-129147618D01*
X89894819Y-129147618D02*
X89847200Y-129052380D01*
X89847200Y-129052380D02*
X89799580Y-129004761D01*
X89799580Y-129004761D02*
X89656723Y-128909523D01*
X89656723Y-128909523D02*
X89466247Y-128861904D01*
X89466247Y-128861904D02*
X89085295Y-128861904D01*
X89085295Y-128861904D02*
X88990057Y-128909523D01*
X88990057Y-128909523D02*
X88942438Y-128957142D01*
X88942438Y-128957142D02*
X88894819Y-129052380D01*
X88894819Y-129052380D02*
X88894819Y-129242856D01*
X88894819Y-129242856D02*
X88942438Y-129338094D01*
X88942438Y-129338094D02*
X88990057Y-129385713D01*
X88990057Y-129385713D02*
X89085295Y-129433332D01*
X89085295Y-129433332D02*
X89323390Y-129433332D01*
X89323390Y-129433332D02*
X89418628Y-129385713D01*
X89418628Y-129385713D02*
X89466247Y-129338094D01*
X89466247Y-129338094D02*
X89513866Y-129242856D01*
X89513866Y-129242856D02*
X89513866Y-129052380D01*
X89513866Y-129052380D02*
X89466247Y-128957142D01*
X89466247Y-128957142D02*
X89418628Y-128909523D01*
X89418628Y-128909523D02*
X89323390Y-128861904D01*
X184467095Y-99900819D02*
X184467095Y-100710342D01*
X184467095Y-100710342D02*
X184514714Y-100805580D01*
X184514714Y-100805580D02*
X184562333Y-100853200D01*
X184562333Y-100853200D02*
X184657571Y-100900819D01*
X184657571Y-100900819D02*
X184848047Y-100900819D01*
X184848047Y-100900819D02*
X184943285Y-100853200D01*
X184943285Y-100853200D02*
X184990904Y-100805580D01*
X184990904Y-100805580D02*
X185038523Y-100710342D01*
X185038523Y-100710342D02*
X185038523Y-99900819D01*
X185943285Y-100234152D02*
X185943285Y-100900819D01*
X185705190Y-99853200D02*
X185467095Y-100567485D01*
X185467095Y-100567485D02*
X186086142Y-100567485D01*
X120902819Y-35511904D02*
X120902819Y-34940476D01*
X121902819Y-35226190D02*
X120902819Y-35226190D01*
X121902819Y-34607142D02*
X120902819Y-34607142D01*
X120902819Y-34607142D02*
X120902819Y-34226190D01*
X120902819Y-34226190D02*
X120950438Y-34130952D01*
X120950438Y-34130952D02*
X120998057Y-34083333D01*
X120998057Y-34083333D02*
X121093295Y-34035714D01*
X121093295Y-34035714D02*
X121236152Y-34035714D01*
X121236152Y-34035714D02*
X121331390Y-34083333D01*
X121331390Y-34083333D02*
X121379009Y-34130952D01*
X121379009Y-34130952D02*
X121426628Y-34226190D01*
X121426628Y-34226190D02*
X121426628Y-34607142D01*
X120998057Y-33654761D02*
X120950438Y-33607142D01*
X120950438Y-33607142D02*
X120902819Y-33511904D01*
X120902819Y-33511904D02*
X120902819Y-33273809D01*
X120902819Y-33273809D02*
X120950438Y-33178571D01*
X120950438Y-33178571D02*
X120998057Y-33130952D01*
X120998057Y-33130952D02*
X121093295Y-33083333D01*
X121093295Y-33083333D02*
X121188533Y-33083333D01*
X121188533Y-33083333D02*
X121331390Y-33130952D01*
X121331390Y-33130952D02*
X121902819Y-33702380D01*
X121902819Y-33702380D02*
X121902819Y-33083333D01*
X176817142Y-79579580D02*
X176769523Y-79627200D01*
X176769523Y-79627200D02*
X176626666Y-79674819D01*
X176626666Y-79674819D02*
X176531428Y-79674819D01*
X176531428Y-79674819D02*
X176388571Y-79627200D01*
X176388571Y-79627200D02*
X176293333Y-79531961D01*
X176293333Y-79531961D02*
X176245714Y-79436723D01*
X176245714Y-79436723D02*
X176198095Y-79246247D01*
X176198095Y-79246247D02*
X176198095Y-79103390D01*
X176198095Y-79103390D02*
X176245714Y-78912914D01*
X176245714Y-78912914D02*
X176293333Y-78817676D01*
X176293333Y-78817676D02*
X176388571Y-78722438D01*
X176388571Y-78722438D02*
X176531428Y-78674819D01*
X176531428Y-78674819D02*
X176626666Y-78674819D01*
X176626666Y-78674819D02*
X176769523Y-78722438D01*
X176769523Y-78722438D02*
X176817142Y-78770057D01*
X177769523Y-79674819D02*
X177198095Y-79674819D01*
X177483809Y-79674819D02*
X177483809Y-78674819D01*
X177483809Y-78674819D02*
X177388571Y-78817676D01*
X177388571Y-78817676D02*
X177293333Y-78912914D01*
X177293333Y-78912914D02*
X177198095Y-78960533D01*
X178626666Y-78674819D02*
X178436190Y-78674819D01*
X178436190Y-78674819D02*
X178340952Y-78722438D01*
X178340952Y-78722438D02*
X178293333Y-78770057D01*
X178293333Y-78770057D02*
X178198095Y-78912914D01*
X178198095Y-78912914D02*
X178150476Y-79103390D01*
X178150476Y-79103390D02*
X178150476Y-79484342D01*
X178150476Y-79484342D02*
X178198095Y-79579580D01*
X178198095Y-79579580D02*
X178245714Y-79627200D01*
X178245714Y-79627200D02*
X178340952Y-79674819D01*
X178340952Y-79674819D02*
X178531428Y-79674819D01*
X178531428Y-79674819D02*
X178626666Y-79627200D01*
X178626666Y-79627200D02*
X178674285Y-79579580D01*
X178674285Y-79579580D02*
X178721904Y-79484342D01*
X178721904Y-79484342D02*
X178721904Y-79246247D01*
X178721904Y-79246247D02*
X178674285Y-79151009D01*
X178674285Y-79151009D02*
X178626666Y-79103390D01*
X178626666Y-79103390D02*
X178531428Y-79055771D01*
X178531428Y-79055771D02*
X178340952Y-79055771D01*
X178340952Y-79055771D02*
X178245714Y-79103390D01*
X178245714Y-79103390D02*
X178198095Y-79151009D01*
X178198095Y-79151009D02*
X178150476Y-79246247D01*
X150729580Y-36241666D02*
X150777200Y-36289285D01*
X150777200Y-36289285D02*
X150824819Y-36432142D01*
X150824819Y-36432142D02*
X150824819Y-36527380D01*
X150824819Y-36527380D02*
X150777200Y-36670237D01*
X150777200Y-36670237D02*
X150681961Y-36765475D01*
X150681961Y-36765475D02*
X150586723Y-36813094D01*
X150586723Y-36813094D02*
X150396247Y-36860713D01*
X150396247Y-36860713D02*
X150253390Y-36860713D01*
X150253390Y-36860713D02*
X150062914Y-36813094D01*
X150062914Y-36813094D02*
X149967676Y-36765475D01*
X149967676Y-36765475D02*
X149872438Y-36670237D01*
X149872438Y-36670237D02*
X149824819Y-36527380D01*
X149824819Y-36527380D02*
X149824819Y-36432142D01*
X149824819Y-36432142D02*
X149872438Y-36289285D01*
X149872438Y-36289285D02*
X149920057Y-36241666D01*
X150158152Y-35384523D02*
X150824819Y-35384523D01*
X149777200Y-35622618D02*
X150491485Y-35860713D01*
X150491485Y-35860713D02*
X150491485Y-35241666D01*
X110914819Y-73468094D02*
X109914819Y-73468094D01*
X109914819Y-73468094D02*
X109914819Y-73229999D01*
X109914819Y-73229999D02*
X109962438Y-73087142D01*
X109962438Y-73087142D02*
X110057676Y-72991904D01*
X110057676Y-72991904D02*
X110152914Y-72944285D01*
X110152914Y-72944285D02*
X110343390Y-72896666D01*
X110343390Y-72896666D02*
X110486247Y-72896666D01*
X110486247Y-72896666D02*
X110676723Y-72944285D01*
X110676723Y-72944285D02*
X110771961Y-72991904D01*
X110771961Y-72991904D02*
X110867200Y-73087142D01*
X110867200Y-73087142D02*
X110914819Y-73229999D01*
X110914819Y-73229999D02*
X110914819Y-73468094D01*
X109914819Y-72563332D02*
X109914819Y-71944285D01*
X109914819Y-71944285D02*
X110295771Y-72277618D01*
X110295771Y-72277618D02*
X110295771Y-72134761D01*
X110295771Y-72134761D02*
X110343390Y-72039523D01*
X110343390Y-72039523D02*
X110391009Y-71991904D01*
X110391009Y-71991904D02*
X110486247Y-71944285D01*
X110486247Y-71944285D02*
X110724342Y-71944285D01*
X110724342Y-71944285D02*
X110819580Y-71991904D01*
X110819580Y-71991904D02*
X110867200Y-72039523D01*
X110867200Y-72039523D02*
X110914819Y-72134761D01*
X110914819Y-72134761D02*
X110914819Y-72420475D01*
X110914819Y-72420475D02*
X110867200Y-72515713D01*
X110867200Y-72515713D02*
X110819580Y-72563332D01*
X178804819Y-40592857D02*
X178328628Y-40926190D01*
X178804819Y-41164285D02*
X177804819Y-41164285D01*
X177804819Y-41164285D02*
X177804819Y-40783333D01*
X177804819Y-40783333D02*
X177852438Y-40688095D01*
X177852438Y-40688095D02*
X177900057Y-40640476D01*
X177900057Y-40640476D02*
X177995295Y-40592857D01*
X177995295Y-40592857D02*
X178138152Y-40592857D01*
X178138152Y-40592857D02*
X178233390Y-40640476D01*
X178233390Y-40640476D02*
X178281009Y-40688095D01*
X178281009Y-40688095D02*
X178328628Y-40783333D01*
X178328628Y-40783333D02*
X178328628Y-41164285D01*
X178804819Y-39640476D02*
X178804819Y-40211904D01*
X178804819Y-39926190D02*
X177804819Y-39926190D01*
X177804819Y-39926190D02*
X177947676Y-40021428D01*
X177947676Y-40021428D02*
X178042914Y-40116666D01*
X178042914Y-40116666D02*
X178090533Y-40211904D01*
X177804819Y-39307142D02*
X177804819Y-38640476D01*
X177804819Y-38640476D02*
X178804819Y-39069047D01*
X182657200Y-36822023D02*
X182704819Y-36679166D01*
X182704819Y-36679166D02*
X182704819Y-36441071D01*
X182704819Y-36441071D02*
X182657200Y-36345833D01*
X182657200Y-36345833D02*
X182609580Y-36298214D01*
X182609580Y-36298214D02*
X182514342Y-36250595D01*
X182514342Y-36250595D02*
X182419104Y-36250595D01*
X182419104Y-36250595D02*
X182323866Y-36298214D01*
X182323866Y-36298214D02*
X182276247Y-36345833D01*
X182276247Y-36345833D02*
X182228628Y-36441071D01*
X182228628Y-36441071D02*
X182181009Y-36631547D01*
X182181009Y-36631547D02*
X182133390Y-36726785D01*
X182133390Y-36726785D02*
X182085771Y-36774404D01*
X182085771Y-36774404D02*
X181990533Y-36822023D01*
X181990533Y-36822023D02*
X181895295Y-36822023D01*
X181895295Y-36822023D02*
X181800057Y-36774404D01*
X181800057Y-36774404D02*
X181752438Y-36726785D01*
X181752438Y-36726785D02*
X181704819Y-36631547D01*
X181704819Y-36631547D02*
X181704819Y-36393452D01*
X181704819Y-36393452D02*
X181752438Y-36250595D01*
X181704819Y-35917261D02*
X182704819Y-35679166D01*
X182704819Y-35679166D02*
X181990533Y-35488690D01*
X181990533Y-35488690D02*
X182704819Y-35298214D01*
X182704819Y-35298214D02*
X181704819Y-35060119D01*
X182704819Y-34155357D02*
X182704819Y-34726785D01*
X182704819Y-34441071D02*
X181704819Y-34441071D01*
X181704819Y-34441071D02*
X181847676Y-34536309D01*
X181847676Y-34536309D02*
X181942914Y-34631547D01*
X181942914Y-34631547D02*
X181990533Y-34726785D01*
X181704819Y-33536309D02*
X181704819Y-33441071D01*
X181704819Y-33441071D02*
X181752438Y-33345833D01*
X181752438Y-33345833D02*
X181800057Y-33298214D01*
X181800057Y-33298214D02*
X181895295Y-33250595D01*
X181895295Y-33250595D02*
X182085771Y-33202976D01*
X182085771Y-33202976D02*
X182323866Y-33202976D01*
X182323866Y-33202976D02*
X182514342Y-33250595D01*
X182514342Y-33250595D02*
X182609580Y-33298214D01*
X182609580Y-33298214D02*
X182657200Y-33345833D01*
X182657200Y-33345833D02*
X182704819Y-33441071D01*
X182704819Y-33441071D02*
X182704819Y-33536309D01*
X182704819Y-33536309D02*
X182657200Y-33631547D01*
X182657200Y-33631547D02*
X182609580Y-33679166D01*
X182609580Y-33679166D02*
X182514342Y-33726785D01*
X182514342Y-33726785D02*
X182323866Y-33774404D01*
X182323866Y-33774404D02*
X182085771Y-33774404D01*
X182085771Y-33774404D02*
X181895295Y-33726785D01*
X181895295Y-33726785D02*
X181800057Y-33679166D01*
X181800057Y-33679166D02*
X181752438Y-33631547D01*
X181752438Y-33631547D02*
X181704819Y-33536309D01*
X176513095Y-93469819D02*
X176513095Y-94279342D01*
X176513095Y-94279342D02*
X176560714Y-94374580D01*
X176560714Y-94374580D02*
X176608333Y-94422200D01*
X176608333Y-94422200D02*
X176703571Y-94469819D01*
X176703571Y-94469819D02*
X176894047Y-94469819D01*
X176894047Y-94469819D02*
X176989285Y-94422200D01*
X176989285Y-94422200D02*
X177036904Y-94374580D01*
X177036904Y-94374580D02*
X177084523Y-94279342D01*
X177084523Y-94279342D02*
X177084523Y-93469819D01*
X177989285Y-93469819D02*
X177798809Y-93469819D01*
X177798809Y-93469819D02*
X177703571Y-93517438D01*
X177703571Y-93517438D02*
X177655952Y-93565057D01*
X177655952Y-93565057D02*
X177560714Y-93707914D01*
X177560714Y-93707914D02*
X177513095Y-93898390D01*
X177513095Y-93898390D02*
X177513095Y-94279342D01*
X177513095Y-94279342D02*
X177560714Y-94374580D01*
X177560714Y-94374580D02*
X177608333Y-94422200D01*
X177608333Y-94422200D02*
X177703571Y-94469819D01*
X177703571Y-94469819D02*
X177894047Y-94469819D01*
X177894047Y-94469819D02*
X177989285Y-94422200D01*
X177989285Y-94422200D02*
X178036904Y-94374580D01*
X178036904Y-94374580D02*
X178084523Y-94279342D01*
X178084523Y-94279342D02*
X178084523Y-94041247D01*
X178084523Y-94041247D02*
X178036904Y-93946009D01*
X178036904Y-93946009D02*
X177989285Y-93898390D01*
X177989285Y-93898390D02*
X177894047Y-93850771D01*
X177894047Y-93850771D02*
X177703571Y-93850771D01*
X177703571Y-93850771D02*
X177608333Y-93898390D01*
X177608333Y-93898390D02*
X177560714Y-93946009D01*
X177560714Y-93946009D02*
X177513095Y-94041247D01*
X121184819Y-39336904D02*
X121994342Y-39336904D01*
X121994342Y-39336904D02*
X122089580Y-39289285D01*
X122089580Y-39289285D02*
X122137200Y-39241666D01*
X122137200Y-39241666D02*
X122184819Y-39146428D01*
X122184819Y-39146428D02*
X122184819Y-38955952D01*
X122184819Y-38955952D02*
X122137200Y-38860714D01*
X122137200Y-38860714D02*
X122089580Y-38813095D01*
X122089580Y-38813095D02*
X121994342Y-38765476D01*
X121994342Y-38765476D02*
X121184819Y-38765476D01*
X122184819Y-37765476D02*
X122184819Y-38336904D01*
X122184819Y-38051190D02*
X121184819Y-38051190D01*
X121184819Y-38051190D02*
X121327676Y-38146428D01*
X121327676Y-38146428D02*
X121422914Y-38241666D01*
X121422914Y-38241666D02*
X121470533Y-38336904D01*
X163429819Y-45926904D02*
X164239342Y-45926904D01*
X164239342Y-45926904D02*
X164334580Y-45879285D01*
X164334580Y-45879285D02*
X164382200Y-45831666D01*
X164382200Y-45831666D02*
X164429819Y-45736428D01*
X164429819Y-45736428D02*
X164429819Y-45545952D01*
X164429819Y-45545952D02*
X164382200Y-45450714D01*
X164382200Y-45450714D02*
X164334580Y-45403095D01*
X164334580Y-45403095D02*
X164239342Y-45355476D01*
X164239342Y-45355476D02*
X163429819Y-45355476D01*
X163525057Y-44926904D02*
X163477438Y-44879285D01*
X163477438Y-44879285D02*
X163429819Y-44784047D01*
X163429819Y-44784047D02*
X163429819Y-44545952D01*
X163429819Y-44545952D02*
X163477438Y-44450714D01*
X163477438Y-44450714D02*
X163525057Y-44403095D01*
X163525057Y-44403095D02*
X163620295Y-44355476D01*
X163620295Y-44355476D02*
X163715533Y-44355476D01*
X163715533Y-44355476D02*
X163858390Y-44403095D01*
X163858390Y-44403095D02*
X164429819Y-44974523D01*
X164429819Y-44974523D02*
X164429819Y-44355476D01*
X130419580Y-64452857D02*
X130467200Y-64500476D01*
X130467200Y-64500476D02*
X130514819Y-64643333D01*
X130514819Y-64643333D02*
X130514819Y-64738571D01*
X130514819Y-64738571D02*
X130467200Y-64881428D01*
X130467200Y-64881428D02*
X130371961Y-64976666D01*
X130371961Y-64976666D02*
X130276723Y-65024285D01*
X130276723Y-65024285D02*
X130086247Y-65071904D01*
X130086247Y-65071904D02*
X129943390Y-65071904D01*
X129943390Y-65071904D02*
X129752914Y-65024285D01*
X129752914Y-65024285D02*
X129657676Y-64976666D01*
X129657676Y-64976666D02*
X129562438Y-64881428D01*
X129562438Y-64881428D02*
X129514819Y-64738571D01*
X129514819Y-64738571D02*
X129514819Y-64643333D01*
X129514819Y-64643333D02*
X129562438Y-64500476D01*
X129562438Y-64500476D02*
X129610057Y-64452857D01*
X130514819Y-63500476D02*
X130514819Y-64071904D01*
X130514819Y-63786190D02*
X129514819Y-63786190D01*
X129514819Y-63786190D02*
X129657676Y-63881428D01*
X129657676Y-63881428D02*
X129752914Y-63976666D01*
X129752914Y-63976666D02*
X129800533Y-64071904D01*
X129848152Y-62643333D02*
X130514819Y-62643333D01*
X129467200Y-62881428D02*
X130181485Y-63119523D01*
X130181485Y-63119523D02*
X130181485Y-62500476D01*
X138859580Y-93892857D02*
X138907200Y-93940476D01*
X138907200Y-93940476D02*
X138954819Y-94083333D01*
X138954819Y-94083333D02*
X138954819Y-94178571D01*
X138954819Y-94178571D02*
X138907200Y-94321428D01*
X138907200Y-94321428D02*
X138811961Y-94416666D01*
X138811961Y-94416666D02*
X138716723Y-94464285D01*
X138716723Y-94464285D02*
X138526247Y-94511904D01*
X138526247Y-94511904D02*
X138383390Y-94511904D01*
X138383390Y-94511904D02*
X138192914Y-94464285D01*
X138192914Y-94464285D02*
X138097676Y-94416666D01*
X138097676Y-94416666D02*
X138002438Y-94321428D01*
X138002438Y-94321428D02*
X137954819Y-94178571D01*
X137954819Y-94178571D02*
X137954819Y-94083333D01*
X137954819Y-94083333D02*
X138002438Y-93940476D01*
X138002438Y-93940476D02*
X138050057Y-93892857D01*
X138954819Y-92940476D02*
X138954819Y-93511904D01*
X138954819Y-93226190D02*
X137954819Y-93226190D01*
X137954819Y-93226190D02*
X138097676Y-93321428D01*
X138097676Y-93321428D02*
X138192914Y-93416666D01*
X138192914Y-93416666D02*
X138240533Y-93511904D01*
X137954819Y-92035714D02*
X137954819Y-92511904D01*
X137954819Y-92511904D02*
X138431009Y-92559523D01*
X138431009Y-92559523D02*
X138383390Y-92511904D01*
X138383390Y-92511904D02*
X138335771Y-92416666D01*
X138335771Y-92416666D02*
X138335771Y-92178571D01*
X138335771Y-92178571D02*
X138383390Y-92083333D01*
X138383390Y-92083333D02*
X138431009Y-92035714D01*
X138431009Y-92035714D02*
X138526247Y-91988095D01*
X138526247Y-91988095D02*
X138764342Y-91988095D01*
X138764342Y-91988095D02*
X138859580Y-92035714D01*
X138859580Y-92035714D02*
X138907200Y-92083333D01*
X138907200Y-92083333D02*
X138954819Y-92178571D01*
X138954819Y-92178571D02*
X138954819Y-92416666D01*
X138954819Y-92416666D02*
X138907200Y-92511904D01*
X138907200Y-92511904D02*
X138859580Y-92559523D01*
X93613095Y-92819819D02*
X93613095Y-93629342D01*
X93613095Y-93629342D02*
X93660714Y-93724580D01*
X93660714Y-93724580D02*
X93708333Y-93772200D01*
X93708333Y-93772200D02*
X93803571Y-93819819D01*
X93803571Y-93819819D02*
X93994047Y-93819819D01*
X93994047Y-93819819D02*
X94089285Y-93772200D01*
X94089285Y-93772200D02*
X94136904Y-93724580D01*
X94136904Y-93724580D02*
X94184523Y-93629342D01*
X94184523Y-93629342D02*
X94184523Y-92819819D01*
X94803571Y-93248390D02*
X94708333Y-93200771D01*
X94708333Y-93200771D02*
X94660714Y-93153152D01*
X94660714Y-93153152D02*
X94613095Y-93057914D01*
X94613095Y-93057914D02*
X94613095Y-93010295D01*
X94613095Y-93010295D02*
X94660714Y-92915057D01*
X94660714Y-92915057D02*
X94708333Y-92867438D01*
X94708333Y-92867438D02*
X94803571Y-92819819D01*
X94803571Y-92819819D02*
X94994047Y-92819819D01*
X94994047Y-92819819D02*
X95089285Y-92867438D01*
X95089285Y-92867438D02*
X95136904Y-92915057D01*
X95136904Y-92915057D02*
X95184523Y-93010295D01*
X95184523Y-93010295D02*
X95184523Y-93057914D01*
X95184523Y-93057914D02*
X95136904Y-93153152D01*
X95136904Y-93153152D02*
X95089285Y-93200771D01*
X95089285Y-93200771D02*
X94994047Y-93248390D01*
X94994047Y-93248390D02*
X94803571Y-93248390D01*
X94803571Y-93248390D02*
X94708333Y-93296009D01*
X94708333Y-93296009D02*
X94660714Y-93343628D01*
X94660714Y-93343628D02*
X94613095Y-93438866D01*
X94613095Y-93438866D02*
X94613095Y-93629342D01*
X94613095Y-93629342D02*
X94660714Y-93724580D01*
X94660714Y-93724580D02*
X94708333Y-93772200D01*
X94708333Y-93772200D02*
X94803571Y-93819819D01*
X94803571Y-93819819D02*
X94994047Y-93819819D01*
X94994047Y-93819819D02*
X95089285Y-93772200D01*
X95089285Y-93772200D02*
X95136904Y-93724580D01*
X95136904Y-93724580D02*
X95184523Y-93629342D01*
X95184523Y-93629342D02*
X95184523Y-93438866D01*
X95184523Y-93438866D02*
X95136904Y-93343628D01*
X95136904Y-93343628D02*
X95089285Y-93296009D01*
X95089285Y-93296009D02*
X94994047Y-93248390D01*
X141754819Y-43186666D02*
X141754819Y-43662856D01*
X141754819Y-43662856D02*
X140754819Y-43662856D01*
X141754819Y-42329523D02*
X141754819Y-42900951D01*
X141754819Y-42615237D02*
X140754819Y-42615237D01*
X140754819Y-42615237D02*
X140897676Y-42710475D01*
X140897676Y-42710475D02*
X140992914Y-42805713D01*
X140992914Y-42805713D02*
X141040533Y-42900951D01*
X179752319Y-104891666D02*
X179276128Y-105224999D01*
X179752319Y-105463094D02*
X178752319Y-105463094D01*
X178752319Y-105463094D02*
X178752319Y-105082142D01*
X178752319Y-105082142D02*
X178799938Y-104986904D01*
X178799938Y-104986904D02*
X178847557Y-104939285D01*
X178847557Y-104939285D02*
X178942795Y-104891666D01*
X178942795Y-104891666D02*
X179085652Y-104891666D01*
X179085652Y-104891666D02*
X179180890Y-104939285D01*
X179180890Y-104939285D02*
X179228509Y-104986904D01*
X179228509Y-104986904D02*
X179276128Y-105082142D01*
X179276128Y-105082142D02*
X179276128Y-105463094D01*
X178752319Y-104558332D02*
X178752319Y-103939285D01*
X178752319Y-103939285D02*
X179133271Y-104272618D01*
X179133271Y-104272618D02*
X179133271Y-104129761D01*
X179133271Y-104129761D02*
X179180890Y-104034523D01*
X179180890Y-104034523D02*
X179228509Y-103986904D01*
X179228509Y-103986904D02*
X179323747Y-103939285D01*
X179323747Y-103939285D02*
X179561842Y-103939285D01*
X179561842Y-103939285D02*
X179657080Y-103986904D01*
X179657080Y-103986904D02*
X179704700Y-104034523D01*
X179704700Y-104034523D02*
X179752319Y-104129761D01*
X179752319Y-104129761D02*
X179752319Y-104415475D01*
X179752319Y-104415475D02*
X179704700Y-104510713D01*
X179704700Y-104510713D02*
X179657080Y-104558332D01*
X93350057Y-130757619D02*
X93302438Y-130852857D01*
X93302438Y-130852857D02*
X93207200Y-130948095D01*
X93207200Y-130948095D02*
X93064342Y-131090952D01*
X93064342Y-131090952D02*
X93016723Y-131186190D01*
X93016723Y-131186190D02*
X93016723Y-131281428D01*
X93254819Y-131233809D02*
X93207200Y-131329047D01*
X93207200Y-131329047D02*
X93111961Y-131424285D01*
X93111961Y-131424285D02*
X92921485Y-131471904D01*
X92921485Y-131471904D02*
X92588152Y-131471904D01*
X92588152Y-131471904D02*
X92397676Y-131424285D01*
X92397676Y-131424285D02*
X92302438Y-131329047D01*
X92302438Y-131329047D02*
X92254819Y-131233809D01*
X92254819Y-131233809D02*
X92254819Y-131043333D01*
X92254819Y-131043333D02*
X92302438Y-130948095D01*
X92302438Y-130948095D02*
X92397676Y-130852857D01*
X92397676Y-130852857D02*
X92588152Y-130805238D01*
X92588152Y-130805238D02*
X92921485Y-130805238D01*
X92921485Y-130805238D02*
X93111961Y-130852857D01*
X93111961Y-130852857D02*
X93207200Y-130948095D01*
X93207200Y-130948095D02*
X93254819Y-131043333D01*
X93254819Y-131043333D02*
X93254819Y-131233809D01*
X92350057Y-130424285D02*
X92302438Y-130376666D01*
X92302438Y-130376666D02*
X92254819Y-130281428D01*
X92254819Y-130281428D02*
X92254819Y-130043333D01*
X92254819Y-130043333D02*
X92302438Y-129948095D01*
X92302438Y-129948095D02*
X92350057Y-129900476D01*
X92350057Y-129900476D02*
X92445295Y-129852857D01*
X92445295Y-129852857D02*
X92540533Y-129852857D01*
X92540533Y-129852857D02*
X92683390Y-129900476D01*
X92683390Y-129900476D02*
X93254819Y-130471904D01*
X93254819Y-130471904D02*
X93254819Y-129852857D01*
X92254819Y-129233809D02*
X92254819Y-129138571D01*
X92254819Y-129138571D02*
X92302438Y-129043333D01*
X92302438Y-129043333D02*
X92350057Y-128995714D01*
X92350057Y-128995714D02*
X92445295Y-128948095D01*
X92445295Y-128948095D02*
X92635771Y-128900476D01*
X92635771Y-128900476D02*
X92873866Y-128900476D01*
X92873866Y-128900476D02*
X93064342Y-128948095D01*
X93064342Y-128948095D02*
X93159580Y-128995714D01*
X93159580Y-128995714D02*
X93207200Y-129043333D01*
X93207200Y-129043333D02*
X93254819Y-129138571D01*
X93254819Y-129138571D02*
X93254819Y-129233809D01*
X93254819Y-129233809D02*
X93207200Y-129329047D01*
X93207200Y-129329047D02*
X93159580Y-129376666D01*
X93159580Y-129376666D02*
X93064342Y-129424285D01*
X93064342Y-129424285D02*
X92873866Y-129471904D01*
X92873866Y-129471904D02*
X92635771Y-129471904D01*
X92635771Y-129471904D02*
X92445295Y-129424285D01*
X92445295Y-129424285D02*
X92350057Y-129376666D01*
X92350057Y-129376666D02*
X92302438Y-129329047D01*
X92302438Y-129329047D02*
X92254819Y-129233809D01*
X93254819Y-127948095D02*
X93254819Y-128519523D01*
X93254819Y-128233809D02*
X92254819Y-128233809D01*
X92254819Y-128233809D02*
X92397676Y-128329047D01*
X92397676Y-128329047D02*
X92492914Y-128424285D01*
X92492914Y-128424285D02*
X92540533Y-128519523D01*
X132604819Y-102055357D02*
X132128628Y-102388690D01*
X132604819Y-102626785D02*
X131604819Y-102626785D01*
X131604819Y-102626785D02*
X131604819Y-102245833D01*
X131604819Y-102245833D02*
X131652438Y-102150595D01*
X131652438Y-102150595D02*
X131700057Y-102102976D01*
X131700057Y-102102976D02*
X131795295Y-102055357D01*
X131795295Y-102055357D02*
X131938152Y-102055357D01*
X131938152Y-102055357D02*
X132033390Y-102102976D01*
X132033390Y-102102976D02*
X132081009Y-102150595D01*
X132081009Y-102150595D02*
X132128628Y-102245833D01*
X132128628Y-102245833D02*
X132128628Y-102626785D01*
X131700057Y-101674404D02*
X131652438Y-101626785D01*
X131652438Y-101626785D02*
X131604819Y-101531547D01*
X131604819Y-101531547D02*
X131604819Y-101293452D01*
X131604819Y-101293452D02*
X131652438Y-101198214D01*
X131652438Y-101198214D02*
X131700057Y-101150595D01*
X131700057Y-101150595D02*
X131795295Y-101102976D01*
X131795295Y-101102976D02*
X131890533Y-101102976D01*
X131890533Y-101102976D02*
X132033390Y-101150595D01*
X132033390Y-101150595D02*
X132604819Y-101722023D01*
X132604819Y-101722023D02*
X132604819Y-101102976D01*
X132604819Y-100150595D02*
X132604819Y-100722023D01*
X132604819Y-100436309D02*
X131604819Y-100436309D01*
X131604819Y-100436309D02*
X131747676Y-100531547D01*
X131747676Y-100531547D02*
X131842914Y-100626785D01*
X131842914Y-100626785D02*
X131890533Y-100722023D01*
X174939642Y-74354819D02*
X174606309Y-73878628D01*
X174368214Y-74354819D02*
X174368214Y-73354819D01*
X174368214Y-73354819D02*
X174749166Y-73354819D01*
X174749166Y-73354819D02*
X174844404Y-73402438D01*
X174844404Y-73402438D02*
X174892023Y-73450057D01*
X174892023Y-73450057D02*
X174939642Y-73545295D01*
X174939642Y-73545295D02*
X174939642Y-73688152D01*
X174939642Y-73688152D02*
X174892023Y-73783390D01*
X174892023Y-73783390D02*
X174844404Y-73831009D01*
X174844404Y-73831009D02*
X174749166Y-73878628D01*
X174749166Y-73878628D02*
X174368214Y-73878628D01*
X175892023Y-74354819D02*
X175320595Y-74354819D01*
X175606309Y-74354819D02*
X175606309Y-73354819D01*
X175606309Y-73354819D02*
X175511071Y-73497676D01*
X175511071Y-73497676D02*
X175415833Y-73592914D01*
X175415833Y-73592914D02*
X175320595Y-73640533D01*
X176225357Y-73354819D02*
X176844404Y-73354819D01*
X176844404Y-73354819D02*
X176511071Y-73735771D01*
X176511071Y-73735771D02*
X176653928Y-73735771D01*
X176653928Y-73735771D02*
X176749166Y-73783390D01*
X176749166Y-73783390D02*
X176796785Y-73831009D01*
X176796785Y-73831009D02*
X176844404Y-73926247D01*
X176844404Y-73926247D02*
X176844404Y-74164342D01*
X176844404Y-74164342D02*
X176796785Y-74259580D01*
X176796785Y-74259580D02*
X176749166Y-74307200D01*
X176749166Y-74307200D02*
X176653928Y-74354819D01*
X176653928Y-74354819D02*
X176368214Y-74354819D01*
X176368214Y-74354819D02*
X176272976Y-74307200D01*
X176272976Y-74307200D02*
X176225357Y-74259580D01*
X158814580Y-33942857D02*
X158862200Y-33990476D01*
X158862200Y-33990476D02*
X158909819Y-34133333D01*
X158909819Y-34133333D02*
X158909819Y-34228571D01*
X158909819Y-34228571D02*
X158862200Y-34371428D01*
X158862200Y-34371428D02*
X158766961Y-34466666D01*
X158766961Y-34466666D02*
X158671723Y-34514285D01*
X158671723Y-34514285D02*
X158481247Y-34561904D01*
X158481247Y-34561904D02*
X158338390Y-34561904D01*
X158338390Y-34561904D02*
X158147914Y-34514285D01*
X158147914Y-34514285D02*
X158052676Y-34466666D01*
X158052676Y-34466666D02*
X157957438Y-34371428D01*
X157957438Y-34371428D02*
X157909819Y-34228571D01*
X157909819Y-34228571D02*
X157909819Y-34133333D01*
X157909819Y-34133333D02*
X157957438Y-33990476D01*
X157957438Y-33990476D02*
X158005057Y-33942857D01*
X158005057Y-33561904D02*
X157957438Y-33514285D01*
X157957438Y-33514285D02*
X157909819Y-33419047D01*
X157909819Y-33419047D02*
X157909819Y-33180952D01*
X157909819Y-33180952D02*
X157957438Y-33085714D01*
X157957438Y-33085714D02*
X158005057Y-33038095D01*
X158005057Y-33038095D02*
X158100295Y-32990476D01*
X158100295Y-32990476D02*
X158195533Y-32990476D01*
X158195533Y-32990476D02*
X158338390Y-33038095D01*
X158338390Y-33038095D02*
X158909819Y-33609523D01*
X158909819Y-33609523D02*
X158909819Y-32990476D01*
X157909819Y-32133333D02*
X157909819Y-32323809D01*
X157909819Y-32323809D02*
X157957438Y-32419047D01*
X157957438Y-32419047D02*
X158005057Y-32466666D01*
X158005057Y-32466666D02*
X158147914Y-32561904D01*
X158147914Y-32561904D02*
X158338390Y-32609523D01*
X158338390Y-32609523D02*
X158719342Y-32609523D01*
X158719342Y-32609523D02*
X158814580Y-32561904D01*
X158814580Y-32561904D02*
X158862200Y-32514285D01*
X158862200Y-32514285D02*
X158909819Y-32419047D01*
X158909819Y-32419047D02*
X158909819Y-32228571D01*
X158909819Y-32228571D02*
X158862200Y-32133333D01*
X158862200Y-32133333D02*
X158814580Y-32085714D01*
X158814580Y-32085714D02*
X158719342Y-32038095D01*
X158719342Y-32038095D02*
X158481247Y-32038095D01*
X158481247Y-32038095D02*
X158386009Y-32085714D01*
X158386009Y-32085714D02*
X158338390Y-32133333D01*
X158338390Y-32133333D02*
X158290771Y-32228571D01*
X158290771Y-32228571D02*
X158290771Y-32419047D01*
X158290771Y-32419047D02*
X158338390Y-32514285D01*
X158338390Y-32514285D02*
X158386009Y-32561904D01*
X158386009Y-32561904D02*
X158481247Y-32609523D01*
X188943333Y-101157219D02*
X188610000Y-100681028D01*
X188371905Y-101157219D02*
X188371905Y-100157219D01*
X188371905Y-100157219D02*
X188752857Y-100157219D01*
X188752857Y-100157219D02*
X188848095Y-100204838D01*
X188848095Y-100204838D02*
X188895714Y-100252457D01*
X188895714Y-100252457D02*
X188943333Y-100347695D01*
X188943333Y-100347695D02*
X188943333Y-100490552D01*
X188943333Y-100490552D02*
X188895714Y-100585790D01*
X188895714Y-100585790D02*
X188848095Y-100633409D01*
X188848095Y-100633409D02*
X188752857Y-100681028D01*
X188752857Y-100681028D02*
X188371905Y-100681028D01*
X189324286Y-100252457D02*
X189371905Y-100204838D01*
X189371905Y-100204838D02*
X189467143Y-100157219D01*
X189467143Y-100157219D02*
X189705238Y-100157219D01*
X189705238Y-100157219D02*
X189800476Y-100204838D01*
X189800476Y-100204838D02*
X189848095Y-100252457D01*
X189848095Y-100252457D02*
X189895714Y-100347695D01*
X189895714Y-100347695D02*
X189895714Y-100442933D01*
X189895714Y-100442933D02*
X189848095Y-100585790D01*
X189848095Y-100585790D02*
X189276667Y-101157219D01*
X189276667Y-101157219D02*
X189895714Y-101157219D01*
X133521905Y-53854819D02*
X133521905Y-52854819D01*
X133521905Y-52854819D02*
X133760000Y-52854819D01*
X133760000Y-52854819D02*
X133902857Y-52902438D01*
X133902857Y-52902438D02*
X133998095Y-52997676D01*
X133998095Y-52997676D02*
X134045714Y-53092914D01*
X134045714Y-53092914D02*
X134093333Y-53283390D01*
X134093333Y-53283390D02*
X134093333Y-53426247D01*
X134093333Y-53426247D02*
X134045714Y-53616723D01*
X134045714Y-53616723D02*
X133998095Y-53711961D01*
X133998095Y-53711961D02*
X133902857Y-53807200D01*
X133902857Y-53807200D02*
X133760000Y-53854819D01*
X133760000Y-53854819D02*
X133521905Y-53854819D01*
X134474286Y-52950057D02*
X134521905Y-52902438D01*
X134521905Y-52902438D02*
X134617143Y-52854819D01*
X134617143Y-52854819D02*
X134855238Y-52854819D01*
X134855238Y-52854819D02*
X134950476Y-52902438D01*
X134950476Y-52902438D02*
X134998095Y-52950057D01*
X134998095Y-52950057D02*
X135045714Y-53045295D01*
X135045714Y-53045295D02*
X135045714Y-53140533D01*
X135045714Y-53140533D02*
X134998095Y-53283390D01*
X134998095Y-53283390D02*
X134426667Y-53854819D01*
X134426667Y-53854819D02*
X135045714Y-53854819D01*
X133998095Y-51254819D02*
X133998095Y-50254819D01*
X134569523Y-51254819D02*
X134140952Y-50683390D01*
X134569523Y-50254819D02*
X133998095Y-50826247D01*
X81680952Y-50609580D02*
X81633333Y-50657200D01*
X81633333Y-50657200D02*
X81490476Y-50704819D01*
X81490476Y-50704819D02*
X81395238Y-50704819D01*
X81395238Y-50704819D02*
X81252381Y-50657200D01*
X81252381Y-50657200D02*
X81157143Y-50561961D01*
X81157143Y-50561961D02*
X81109524Y-50466723D01*
X81109524Y-50466723D02*
X81061905Y-50276247D01*
X81061905Y-50276247D02*
X81061905Y-50133390D01*
X81061905Y-50133390D02*
X81109524Y-49942914D01*
X81109524Y-49942914D02*
X81157143Y-49847676D01*
X81157143Y-49847676D02*
X81252381Y-49752438D01*
X81252381Y-49752438D02*
X81395238Y-49704819D01*
X81395238Y-49704819D02*
X81490476Y-49704819D01*
X81490476Y-49704819D02*
X81633333Y-49752438D01*
X81633333Y-49752438D02*
X81680952Y-49800057D01*
X82014286Y-49704819D02*
X82633333Y-49704819D01*
X82633333Y-49704819D02*
X82300000Y-50085771D01*
X82300000Y-50085771D02*
X82442857Y-50085771D01*
X82442857Y-50085771D02*
X82538095Y-50133390D01*
X82538095Y-50133390D02*
X82585714Y-50181009D01*
X82585714Y-50181009D02*
X82633333Y-50276247D01*
X82633333Y-50276247D02*
X82633333Y-50514342D01*
X82633333Y-50514342D02*
X82585714Y-50609580D01*
X82585714Y-50609580D02*
X82538095Y-50657200D01*
X82538095Y-50657200D02*
X82442857Y-50704819D01*
X82442857Y-50704819D02*
X82157143Y-50704819D01*
X82157143Y-50704819D02*
X82061905Y-50657200D01*
X82061905Y-50657200D02*
X82014286Y-50609580D01*
X83252381Y-49704819D02*
X83347619Y-49704819D01*
X83347619Y-49704819D02*
X83442857Y-49752438D01*
X83442857Y-49752438D02*
X83490476Y-49800057D01*
X83490476Y-49800057D02*
X83538095Y-49895295D01*
X83538095Y-49895295D02*
X83585714Y-50085771D01*
X83585714Y-50085771D02*
X83585714Y-50323866D01*
X83585714Y-50323866D02*
X83538095Y-50514342D01*
X83538095Y-50514342D02*
X83490476Y-50609580D01*
X83490476Y-50609580D02*
X83442857Y-50657200D01*
X83442857Y-50657200D02*
X83347619Y-50704819D01*
X83347619Y-50704819D02*
X83252381Y-50704819D01*
X83252381Y-50704819D02*
X83157143Y-50657200D01*
X83157143Y-50657200D02*
X83109524Y-50609580D01*
X83109524Y-50609580D02*
X83061905Y-50514342D01*
X83061905Y-50514342D02*
X83014286Y-50323866D01*
X83014286Y-50323866D02*
X83014286Y-50085771D01*
X83014286Y-50085771D02*
X83061905Y-49895295D01*
X83061905Y-49895295D02*
X83109524Y-49800057D01*
X83109524Y-49800057D02*
X83157143Y-49752438D01*
X83157143Y-49752438D02*
X83252381Y-49704819D01*
X84442857Y-50038152D02*
X84442857Y-50704819D01*
X84204762Y-49657200D02*
X83966667Y-50371485D01*
X83966667Y-50371485D02*
X84585714Y-50371485D01*
X119468452Y-131054819D02*
X119135119Y-130578628D01*
X118897024Y-131054819D02*
X118897024Y-130054819D01*
X118897024Y-130054819D02*
X119277976Y-130054819D01*
X119277976Y-130054819D02*
X119373214Y-130102438D01*
X119373214Y-130102438D02*
X119420833Y-130150057D01*
X119420833Y-130150057D02*
X119468452Y-130245295D01*
X119468452Y-130245295D02*
X119468452Y-130388152D01*
X119468452Y-130388152D02*
X119420833Y-130483390D01*
X119420833Y-130483390D02*
X119373214Y-130531009D01*
X119373214Y-130531009D02*
X119277976Y-130578628D01*
X119277976Y-130578628D02*
X118897024Y-130578628D01*
X119849405Y-130150057D02*
X119897024Y-130102438D01*
X119897024Y-130102438D02*
X119992262Y-130054819D01*
X119992262Y-130054819D02*
X120230357Y-130054819D01*
X120230357Y-130054819D02*
X120325595Y-130102438D01*
X120325595Y-130102438D02*
X120373214Y-130150057D01*
X120373214Y-130150057D02*
X120420833Y-130245295D01*
X120420833Y-130245295D02*
X120420833Y-130340533D01*
X120420833Y-130340533D02*
X120373214Y-130483390D01*
X120373214Y-130483390D02*
X119801786Y-131054819D01*
X119801786Y-131054819D02*
X120420833Y-131054819D01*
X121373214Y-131054819D02*
X120801786Y-131054819D01*
X121087500Y-131054819D02*
X121087500Y-130054819D01*
X121087500Y-130054819D02*
X120992262Y-130197676D01*
X120992262Y-130197676D02*
X120897024Y-130292914D01*
X120897024Y-130292914D02*
X120801786Y-130340533D01*
X121992262Y-130054819D02*
X122087500Y-130054819D01*
X122087500Y-130054819D02*
X122182738Y-130102438D01*
X122182738Y-130102438D02*
X122230357Y-130150057D01*
X122230357Y-130150057D02*
X122277976Y-130245295D01*
X122277976Y-130245295D02*
X122325595Y-130435771D01*
X122325595Y-130435771D02*
X122325595Y-130673866D01*
X122325595Y-130673866D02*
X122277976Y-130864342D01*
X122277976Y-130864342D02*
X122230357Y-130959580D01*
X122230357Y-130959580D02*
X122182738Y-131007200D01*
X122182738Y-131007200D02*
X122087500Y-131054819D01*
X122087500Y-131054819D02*
X121992262Y-131054819D01*
X121992262Y-131054819D02*
X121897024Y-131007200D01*
X121897024Y-131007200D02*
X121849405Y-130959580D01*
X121849405Y-130959580D02*
X121801786Y-130864342D01*
X121801786Y-130864342D02*
X121754167Y-130673866D01*
X121754167Y-130673866D02*
X121754167Y-130435771D01*
X121754167Y-130435771D02*
X121801786Y-130245295D01*
X121801786Y-130245295D02*
X121849405Y-130150057D01*
X121849405Y-130150057D02*
X121897024Y-130102438D01*
X121897024Y-130102438D02*
X121992262Y-130054819D01*
X142487030Y-64422857D02*
X142534650Y-64470476D01*
X142534650Y-64470476D02*
X142582269Y-64613333D01*
X142582269Y-64613333D02*
X142582269Y-64708571D01*
X142582269Y-64708571D02*
X142534650Y-64851428D01*
X142534650Y-64851428D02*
X142439411Y-64946666D01*
X142439411Y-64946666D02*
X142344173Y-64994285D01*
X142344173Y-64994285D02*
X142153697Y-65041904D01*
X142153697Y-65041904D02*
X142010840Y-65041904D01*
X142010840Y-65041904D02*
X141820364Y-64994285D01*
X141820364Y-64994285D02*
X141725126Y-64946666D01*
X141725126Y-64946666D02*
X141629888Y-64851428D01*
X141629888Y-64851428D02*
X141582269Y-64708571D01*
X141582269Y-64708571D02*
X141582269Y-64613333D01*
X141582269Y-64613333D02*
X141629888Y-64470476D01*
X141629888Y-64470476D02*
X141677507Y-64422857D01*
X141677507Y-64041904D02*
X141629888Y-63994285D01*
X141629888Y-63994285D02*
X141582269Y-63899047D01*
X141582269Y-63899047D02*
X141582269Y-63660952D01*
X141582269Y-63660952D02*
X141629888Y-63565714D01*
X141629888Y-63565714D02*
X141677507Y-63518095D01*
X141677507Y-63518095D02*
X141772745Y-63470476D01*
X141772745Y-63470476D02*
X141867983Y-63470476D01*
X141867983Y-63470476D02*
X142010840Y-63518095D01*
X142010840Y-63518095D02*
X142582269Y-64089523D01*
X142582269Y-64089523D02*
X142582269Y-63470476D01*
X141582269Y-63137142D02*
X141582269Y-62518095D01*
X141582269Y-62518095D02*
X141963221Y-62851428D01*
X141963221Y-62851428D02*
X141963221Y-62708571D01*
X141963221Y-62708571D02*
X142010840Y-62613333D01*
X142010840Y-62613333D02*
X142058459Y-62565714D01*
X142058459Y-62565714D02*
X142153697Y-62518095D01*
X142153697Y-62518095D02*
X142391792Y-62518095D01*
X142391792Y-62518095D02*
X142487030Y-62565714D01*
X142487030Y-62565714D02*
X142534650Y-62613333D01*
X142534650Y-62613333D02*
X142582269Y-62708571D01*
X142582269Y-62708571D02*
X142582269Y-62994285D01*
X142582269Y-62994285D02*
X142534650Y-63089523D01*
X142534650Y-63089523D02*
X142487030Y-63137142D01*
X188114488Y-64333333D02*
X188828773Y-64333333D01*
X188828773Y-64333333D02*
X188971630Y-64380952D01*
X188971630Y-64380952D02*
X189066869Y-64476190D01*
X189066869Y-64476190D02*
X189114488Y-64619047D01*
X189114488Y-64619047D02*
X189114488Y-64714285D01*
X188114488Y-63952380D02*
X188114488Y-63285714D01*
X188114488Y-63285714D02*
X189114488Y-63714285D01*
X135239580Y-64432857D02*
X135287200Y-64480476D01*
X135287200Y-64480476D02*
X135334819Y-64623333D01*
X135334819Y-64623333D02*
X135334819Y-64718571D01*
X135334819Y-64718571D02*
X135287200Y-64861428D01*
X135287200Y-64861428D02*
X135191961Y-64956666D01*
X135191961Y-64956666D02*
X135096723Y-65004285D01*
X135096723Y-65004285D02*
X134906247Y-65051904D01*
X134906247Y-65051904D02*
X134763390Y-65051904D01*
X134763390Y-65051904D02*
X134572914Y-65004285D01*
X134572914Y-65004285D02*
X134477676Y-64956666D01*
X134477676Y-64956666D02*
X134382438Y-64861428D01*
X134382438Y-64861428D02*
X134334819Y-64718571D01*
X134334819Y-64718571D02*
X134334819Y-64623333D01*
X134334819Y-64623333D02*
X134382438Y-64480476D01*
X134382438Y-64480476D02*
X134430057Y-64432857D01*
X135334819Y-63480476D02*
X135334819Y-64051904D01*
X135334819Y-63766190D02*
X134334819Y-63766190D01*
X134334819Y-63766190D02*
X134477676Y-63861428D01*
X134477676Y-63861428D02*
X134572914Y-63956666D01*
X134572914Y-63956666D02*
X134620533Y-64051904D01*
X135334819Y-62528095D02*
X135334819Y-63099523D01*
X135334819Y-62813809D02*
X134334819Y-62813809D01*
X134334819Y-62813809D02*
X134477676Y-62909047D01*
X134477676Y-62909047D02*
X134572914Y-63004285D01*
X134572914Y-63004285D02*
X134620533Y-63099523D01*
X98464285Y-131704819D02*
X98464285Y-132419104D01*
X98464285Y-132419104D02*
X98416666Y-132561961D01*
X98416666Y-132561961D02*
X98321428Y-132657200D01*
X98321428Y-132657200D02*
X98178571Y-132704819D01*
X98178571Y-132704819D02*
X98083333Y-132704819D01*
X98892857Y-131800057D02*
X98940476Y-131752438D01*
X98940476Y-131752438D02*
X99035714Y-131704819D01*
X99035714Y-131704819D02*
X99273809Y-131704819D01*
X99273809Y-131704819D02*
X99369047Y-131752438D01*
X99369047Y-131752438D02*
X99416666Y-131800057D01*
X99416666Y-131800057D02*
X99464285Y-131895295D01*
X99464285Y-131895295D02*
X99464285Y-131990533D01*
X99464285Y-131990533D02*
X99416666Y-132133390D01*
X99416666Y-132133390D02*
X98845238Y-132704819D01*
X98845238Y-132704819D02*
X99464285Y-132704819D01*
X100083333Y-131704819D02*
X100178571Y-131704819D01*
X100178571Y-131704819D02*
X100273809Y-131752438D01*
X100273809Y-131752438D02*
X100321428Y-131800057D01*
X100321428Y-131800057D02*
X100369047Y-131895295D01*
X100369047Y-131895295D02*
X100416666Y-132085771D01*
X100416666Y-132085771D02*
X100416666Y-132323866D01*
X100416666Y-132323866D02*
X100369047Y-132514342D01*
X100369047Y-132514342D02*
X100321428Y-132609580D01*
X100321428Y-132609580D02*
X100273809Y-132657200D01*
X100273809Y-132657200D02*
X100178571Y-132704819D01*
X100178571Y-132704819D02*
X100083333Y-132704819D01*
X100083333Y-132704819D02*
X99988095Y-132657200D01*
X99988095Y-132657200D02*
X99940476Y-132609580D01*
X99940476Y-132609580D02*
X99892857Y-132514342D01*
X99892857Y-132514342D02*
X99845238Y-132323866D01*
X99845238Y-132323866D02*
X99845238Y-132085771D01*
X99845238Y-132085771D02*
X99892857Y-131895295D01*
X99892857Y-131895295D02*
X99940476Y-131800057D01*
X99940476Y-131800057D02*
X99988095Y-131752438D01*
X99988095Y-131752438D02*
X100083333Y-131704819D01*
X101369047Y-132704819D02*
X100797619Y-132704819D01*
X101083333Y-132704819D02*
X101083333Y-131704819D01*
X101083333Y-131704819D02*
X100988095Y-131847676D01*
X100988095Y-131847676D02*
X100892857Y-131942914D01*
X100892857Y-131942914D02*
X100797619Y-131990533D01*
X126369580Y-56541666D02*
X126417200Y-56589285D01*
X126417200Y-56589285D02*
X126464819Y-56732142D01*
X126464819Y-56732142D02*
X126464819Y-56827380D01*
X126464819Y-56827380D02*
X126417200Y-56970237D01*
X126417200Y-56970237D02*
X126321961Y-57065475D01*
X126321961Y-57065475D02*
X126226723Y-57113094D01*
X126226723Y-57113094D02*
X126036247Y-57160713D01*
X126036247Y-57160713D02*
X125893390Y-57160713D01*
X125893390Y-57160713D02*
X125702914Y-57113094D01*
X125702914Y-57113094D02*
X125607676Y-57065475D01*
X125607676Y-57065475D02*
X125512438Y-56970237D01*
X125512438Y-56970237D02*
X125464819Y-56827380D01*
X125464819Y-56827380D02*
X125464819Y-56732142D01*
X125464819Y-56732142D02*
X125512438Y-56589285D01*
X125512438Y-56589285D02*
X125560057Y-56541666D01*
X125560057Y-56160713D02*
X125512438Y-56113094D01*
X125512438Y-56113094D02*
X125464819Y-56017856D01*
X125464819Y-56017856D02*
X125464819Y-55779761D01*
X125464819Y-55779761D02*
X125512438Y-55684523D01*
X125512438Y-55684523D02*
X125560057Y-55636904D01*
X125560057Y-55636904D02*
X125655295Y-55589285D01*
X125655295Y-55589285D02*
X125750533Y-55589285D01*
X125750533Y-55589285D02*
X125893390Y-55636904D01*
X125893390Y-55636904D02*
X126464819Y-56208332D01*
X126464819Y-56208332D02*
X126464819Y-55589285D01*
X90274819Y-101599523D02*
X89274819Y-101599523D01*
X89274819Y-101599523D02*
X89989104Y-101266190D01*
X89989104Y-101266190D02*
X89274819Y-100932857D01*
X89274819Y-100932857D02*
X90274819Y-100932857D01*
X89608152Y-100028095D02*
X90274819Y-100028095D01*
X89227200Y-100266190D02*
X89941485Y-100504285D01*
X89941485Y-100504285D02*
X89941485Y-99885238D01*
X120413333Y-137812080D02*
X120365714Y-137859700D01*
X120365714Y-137859700D02*
X120222857Y-137907319D01*
X120222857Y-137907319D02*
X120127619Y-137907319D01*
X120127619Y-137907319D02*
X119984762Y-137859700D01*
X119984762Y-137859700D02*
X119889524Y-137764461D01*
X119889524Y-137764461D02*
X119841905Y-137669223D01*
X119841905Y-137669223D02*
X119794286Y-137478747D01*
X119794286Y-137478747D02*
X119794286Y-137335890D01*
X119794286Y-137335890D02*
X119841905Y-137145414D01*
X119841905Y-137145414D02*
X119889524Y-137050176D01*
X119889524Y-137050176D02*
X119984762Y-136954938D01*
X119984762Y-136954938D02*
X120127619Y-136907319D01*
X120127619Y-136907319D02*
X120222857Y-136907319D01*
X120222857Y-136907319D02*
X120365714Y-136954938D01*
X120365714Y-136954938D02*
X120413333Y-137002557D01*
X120984762Y-137335890D02*
X120889524Y-137288271D01*
X120889524Y-137288271D02*
X120841905Y-137240652D01*
X120841905Y-137240652D02*
X120794286Y-137145414D01*
X120794286Y-137145414D02*
X120794286Y-137097795D01*
X120794286Y-137097795D02*
X120841905Y-137002557D01*
X120841905Y-137002557D02*
X120889524Y-136954938D01*
X120889524Y-136954938D02*
X120984762Y-136907319D01*
X120984762Y-136907319D02*
X121175238Y-136907319D01*
X121175238Y-136907319D02*
X121270476Y-136954938D01*
X121270476Y-136954938D02*
X121318095Y-137002557D01*
X121318095Y-137002557D02*
X121365714Y-137097795D01*
X121365714Y-137097795D02*
X121365714Y-137145414D01*
X121365714Y-137145414D02*
X121318095Y-137240652D01*
X121318095Y-137240652D02*
X121270476Y-137288271D01*
X121270476Y-137288271D02*
X121175238Y-137335890D01*
X121175238Y-137335890D02*
X120984762Y-137335890D01*
X120984762Y-137335890D02*
X120889524Y-137383509D01*
X120889524Y-137383509D02*
X120841905Y-137431128D01*
X120841905Y-137431128D02*
X120794286Y-137526366D01*
X120794286Y-137526366D02*
X120794286Y-137716842D01*
X120794286Y-137716842D02*
X120841905Y-137812080D01*
X120841905Y-137812080D02*
X120889524Y-137859700D01*
X120889524Y-137859700D02*
X120984762Y-137907319D01*
X120984762Y-137907319D02*
X121175238Y-137907319D01*
X121175238Y-137907319D02*
X121270476Y-137859700D01*
X121270476Y-137859700D02*
X121318095Y-137812080D01*
X121318095Y-137812080D02*
X121365714Y-137716842D01*
X121365714Y-137716842D02*
X121365714Y-137526366D01*
X121365714Y-137526366D02*
X121318095Y-137431128D01*
X121318095Y-137431128D02*
X121270476Y-137383509D01*
X121270476Y-137383509D02*
X121175238Y-137335890D01*
X93929580Y-69919047D02*
X93977200Y-69966666D01*
X93977200Y-69966666D02*
X94024819Y-70109523D01*
X94024819Y-70109523D02*
X94024819Y-70204761D01*
X94024819Y-70204761D02*
X93977200Y-70347618D01*
X93977200Y-70347618D02*
X93881961Y-70442856D01*
X93881961Y-70442856D02*
X93786723Y-70490475D01*
X93786723Y-70490475D02*
X93596247Y-70538094D01*
X93596247Y-70538094D02*
X93453390Y-70538094D01*
X93453390Y-70538094D02*
X93262914Y-70490475D01*
X93262914Y-70490475D02*
X93167676Y-70442856D01*
X93167676Y-70442856D02*
X93072438Y-70347618D01*
X93072438Y-70347618D02*
X93024819Y-70204761D01*
X93024819Y-70204761D02*
X93024819Y-70109523D01*
X93024819Y-70109523D02*
X93072438Y-69966666D01*
X93072438Y-69966666D02*
X93120057Y-69919047D01*
X93024819Y-69585713D02*
X93024819Y-68966666D01*
X93024819Y-68966666D02*
X93405771Y-69299999D01*
X93405771Y-69299999D02*
X93405771Y-69157142D01*
X93405771Y-69157142D02*
X93453390Y-69061904D01*
X93453390Y-69061904D02*
X93501009Y-69014285D01*
X93501009Y-69014285D02*
X93596247Y-68966666D01*
X93596247Y-68966666D02*
X93834342Y-68966666D01*
X93834342Y-68966666D02*
X93929580Y-69014285D01*
X93929580Y-69014285D02*
X93977200Y-69061904D01*
X93977200Y-69061904D02*
X94024819Y-69157142D01*
X94024819Y-69157142D02*
X94024819Y-69442856D01*
X94024819Y-69442856D02*
X93977200Y-69538094D01*
X93977200Y-69538094D02*
X93929580Y-69585713D01*
X93024819Y-68347618D02*
X93024819Y-68252380D01*
X93024819Y-68252380D02*
X93072438Y-68157142D01*
X93072438Y-68157142D02*
X93120057Y-68109523D01*
X93120057Y-68109523D02*
X93215295Y-68061904D01*
X93215295Y-68061904D02*
X93405771Y-68014285D01*
X93405771Y-68014285D02*
X93643866Y-68014285D01*
X93643866Y-68014285D02*
X93834342Y-68061904D01*
X93834342Y-68061904D02*
X93929580Y-68109523D01*
X93929580Y-68109523D02*
X93977200Y-68157142D01*
X93977200Y-68157142D02*
X94024819Y-68252380D01*
X94024819Y-68252380D02*
X94024819Y-68347618D01*
X94024819Y-68347618D02*
X93977200Y-68442856D01*
X93977200Y-68442856D02*
X93929580Y-68490475D01*
X93929580Y-68490475D02*
X93834342Y-68538094D01*
X93834342Y-68538094D02*
X93643866Y-68585713D01*
X93643866Y-68585713D02*
X93405771Y-68585713D01*
X93405771Y-68585713D02*
X93215295Y-68538094D01*
X93215295Y-68538094D02*
X93120057Y-68490475D01*
X93120057Y-68490475D02*
X93072438Y-68442856D01*
X93072438Y-68442856D02*
X93024819Y-68347618D01*
X93024819Y-67395237D02*
X93024819Y-67299999D01*
X93024819Y-67299999D02*
X93072438Y-67204761D01*
X93072438Y-67204761D02*
X93120057Y-67157142D01*
X93120057Y-67157142D02*
X93215295Y-67109523D01*
X93215295Y-67109523D02*
X93405771Y-67061904D01*
X93405771Y-67061904D02*
X93643866Y-67061904D01*
X93643866Y-67061904D02*
X93834342Y-67109523D01*
X93834342Y-67109523D02*
X93929580Y-67157142D01*
X93929580Y-67157142D02*
X93977200Y-67204761D01*
X93977200Y-67204761D02*
X94024819Y-67299999D01*
X94024819Y-67299999D02*
X94024819Y-67395237D01*
X94024819Y-67395237D02*
X93977200Y-67490475D01*
X93977200Y-67490475D02*
X93929580Y-67538094D01*
X93929580Y-67538094D02*
X93834342Y-67585713D01*
X93834342Y-67585713D02*
X93643866Y-67633332D01*
X93643866Y-67633332D02*
X93405771Y-67633332D01*
X93405771Y-67633332D02*
X93215295Y-67585713D01*
X93215295Y-67585713D02*
X93120057Y-67538094D01*
X93120057Y-67538094D02*
X93072438Y-67490475D01*
X93072438Y-67490475D02*
X93024819Y-67395237D01*
X140058452Y-108304819D02*
X139725119Y-107828628D01*
X139487024Y-108304819D02*
X139487024Y-107304819D01*
X139487024Y-107304819D02*
X139867976Y-107304819D01*
X139867976Y-107304819D02*
X139963214Y-107352438D01*
X139963214Y-107352438D02*
X140010833Y-107400057D01*
X140010833Y-107400057D02*
X140058452Y-107495295D01*
X140058452Y-107495295D02*
X140058452Y-107638152D01*
X140058452Y-107638152D02*
X140010833Y-107733390D01*
X140010833Y-107733390D02*
X139963214Y-107781009D01*
X139963214Y-107781009D02*
X139867976Y-107828628D01*
X139867976Y-107828628D02*
X139487024Y-107828628D01*
X140439405Y-107400057D02*
X140487024Y-107352438D01*
X140487024Y-107352438D02*
X140582262Y-107304819D01*
X140582262Y-107304819D02*
X140820357Y-107304819D01*
X140820357Y-107304819D02*
X140915595Y-107352438D01*
X140915595Y-107352438D02*
X140963214Y-107400057D01*
X140963214Y-107400057D02*
X141010833Y-107495295D01*
X141010833Y-107495295D02*
X141010833Y-107590533D01*
X141010833Y-107590533D02*
X140963214Y-107733390D01*
X140963214Y-107733390D02*
X140391786Y-108304819D01*
X140391786Y-108304819D02*
X141010833Y-108304819D01*
X141963214Y-108304819D02*
X141391786Y-108304819D01*
X141677500Y-108304819D02*
X141677500Y-107304819D01*
X141677500Y-107304819D02*
X141582262Y-107447676D01*
X141582262Y-107447676D02*
X141487024Y-107542914D01*
X141487024Y-107542914D02*
X141391786Y-107590533D01*
X142915595Y-108304819D02*
X142344167Y-108304819D01*
X142629881Y-108304819D02*
X142629881Y-107304819D01*
X142629881Y-107304819D02*
X142534643Y-107447676D01*
X142534643Y-107447676D02*
X142439405Y-107542914D01*
X142439405Y-107542914D02*
X142344167Y-107590533D01*
X103054819Y-104692857D02*
X102578628Y-105026190D01*
X103054819Y-105264285D02*
X102054819Y-105264285D01*
X102054819Y-105264285D02*
X102054819Y-104883333D01*
X102054819Y-104883333D02*
X102102438Y-104788095D01*
X102102438Y-104788095D02*
X102150057Y-104740476D01*
X102150057Y-104740476D02*
X102245295Y-104692857D01*
X102245295Y-104692857D02*
X102388152Y-104692857D01*
X102388152Y-104692857D02*
X102483390Y-104740476D01*
X102483390Y-104740476D02*
X102531009Y-104788095D01*
X102531009Y-104788095D02*
X102578628Y-104883333D01*
X102578628Y-104883333D02*
X102578628Y-105264285D01*
X102150057Y-104311904D02*
X102102438Y-104264285D01*
X102102438Y-104264285D02*
X102054819Y-104169047D01*
X102054819Y-104169047D02*
X102054819Y-103930952D01*
X102054819Y-103930952D02*
X102102438Y-103835714D01*
X102102438Y-103835714D02*
X102150057Y-103788095D01*
X102150057Y-103788095D02*
X102245295Y-103740476D01*
X102245295Y-103740476D02*
X102340533Y-103740476D01*
X102340533Y-103740476D02*
X102483390Y-103788095D01*
X102483390Y-103788095D02*
X103054819Y-104359523D01*
X103054819Y-104359523D02*
X103054819Y-103740476D01*
X102054819Y-102883333D02*
X102054819Y-103073809D01*
X102054819Y-103073809D02*
X102102438Y-103169047D01*
X102102438Y-103169047D02*
X102150057Y-103216666D01*
X102150057Y-103216666D02*
X102292914Y-103311904D01*
X102292914Y-103311904D02*
X102483390Y-103359523D01*
X102483390Y-103359523D02*
X102864342Y-103359523D01*
X102864342Y-103359523D02*
X102959580Y-103311904D01*
X102959580Y-103311904D02*
X103007200Y-103264285D01*
X103007200Y-103264285D02*
X103054819Y-103169047D01*
X103054819Y-103169047D02*
X103054819Y-102978571D01*
X103054819Y-102978571D02*
X103007200Y-102883333D01*
X103007200Y-102883333D02*
X102959580Y-102835714D01*
X102959580Y-102835714D02*
X102864342Y-102788095D01*
X102864342Y-102788095D02*
X102626247Y-102788095D01*
X102626247Y-102788095D02*
X102531009Y-102835714D01*
X102531009Y-102835714D02*
X102483390Y-102883333D01*
X102483390Y-102883333D02*
X102435771Y-102978571D01*
X102435771Y-102978571D02*
X102435771Y-103169047D01*
X102435771Y-103169047D02*
X102483390Y-103264285D01*
X102483390Y-103264285D02*
X102531009Y-103311904D01*
X102531009Y-103311904D02*
X102626247Y-103359523D01*
X154954819Y-72583333D02*
X155669104Y-72583333D01*
X155669104Y-72583333D02*
X155811961Y-72630952D01*
X155811961Y-72630952D02*
X155907200Y-72726190D01*
X155907200Y-72726190D02*
X155954819Y-72869047D01*
X155954819Y-72869047D02*
X155954819Y-72964285D01*
X154954819Y-72202380D02*
X154954819Y-71583333D01*
X154954819Y-71583333D02*
X155335771Y-71916666D01*
X155335771Y-71916666D02*
X155335771Y-71773809D01*
X155335771Y-71773809D02*
X155383390Y-71678571D01*
X155383390Y-71678571D02*
X155431009Y-71630952D01*
X155431009Y-71630952D02*
X155526247Y-71583333D01*
X155526247Y-71583333D02*
X155764342Y-71583333D01*
X155764342Y-71583333D02*
X155859580Y-71630952D01*
X155859580Y-71630952D02*
X155907200Y-71678571D01*
X155907200Y-71678571D02*
X155954819Y-71773809D01*
X155954819Y-71773809D02*
X155954819Y-72059523D01*
X155954819Y-72059523D02*
X155907200Y-72154761D01*
X155907200Y-72154761D02*
X155859580Y-72202380D01*
X167457142Y-69029580D02*
X167409523Y-69077200D01*
X167409523Y-69077200D02*
X167266666Y-69124819D01*
X167266666Y-69124819D02*
X167171428Y-69124819D01*
X167171428Y-69124819D02*
X167028571Y-69077200D01*
X167028571Y-69077200D02*
X166933333Y-68981961D01*
X166933333Y-68981961D02*
X166885714Y-68886723D01*
X166885714Y-68886723D02*
X166838095Y-68696247D01*
X166838095Y-68696247D02*
X166838095Y-68553390D01*
X166838095Y-68553390D02*
X166885714Y-68362914D01*
X166885714Y-68362914D02*
X166933333Y-68267676D01*
X166933333Y-68267676D02*
X167028571Y-68172438D01*
X167028571Y-68172438D02*
X167171428Y-68124819D01*
X167171428Y-68124819D02*
X167266666Y-68124819D01*
X167266666Y-68124819D02*
X167409523Y-68172438D01*
X167409523Y-68172438D02*
X167457142Y-68220057D01*
X167838095Y-68220057D02*
X167885714Y-68172438D01*
X167885714Y-68172438D02*
X167980952Y-68124819D01*
X167980952Y-68124819D02*
X168219047Y-68124819D01*
X168219047Y-68124819D02*
X168314285Y-68172438D01*
X168314285Y-68172438D02*
X168361904Y-68220057D01*
X168361904Y-68220057D02*
X168409523Y-68315295D01*
X168409523Y-68315295D02*
X168409523Y-68410533D01*
X168409523Y-68410533D02*
X168361904Y-68553390D01*
X168361904Y-68553390D02*
X167790476Y-69124819D01*
X167790476Y-69124819D02*
X168409523Y-69124819D01*
X168742857Y-68124819D02*
X169409523Y-68124819D01*
X169409523Y-68124819D02*
X168980952Y-69124819D01*
X187907200Y-36959523D02*
X187954819Y-36816666D01*
X187954819Y-36816666D02*
X187954819Y-36578571D01*
X187954819Y-36578571D02*
X187907200Y-36483333D01*
X187907200Y-36483333D02*
X187859580Y-36435714D01*
X187859580Y-36435714D02*
X187764342Y-36388095D01*
X187764342Y-36388095D02*
X187669104Y-36388095D01*
X187669104Y-36388095D02*
X187573866Y-36435714D01*
X187573866Y-36435714D02*
X187526247Y-36483333D01*
X187526247Y-36483333D02*
X187478628Y-36578571D01*
X187478628Y-36578571D02*
X187431009Y-36769047D01*
X187431009Y-36769047D02*
X187383390Y-36864285D01*
X187383390Y-36864285D02*
X187335771Y-36911904D01*
X187335771Y-36911904D02*
X187240533Y-36959523D01*
X187240533Y-36959523D02*
X187145295Y-36959523D01*
X187145295Y-36959523D02*
X187050057Y-36911904D01*
X187050057Y-36911904D02*
X187002438Y-36864285D01*
X187002438Y-36864285D02*
X186954819Y-36769047D01*
X186954819Y-36769047D02*
X186954819Y-36530952D01*
X186954819Y-36530952D02*
X187002438Y-36388095D01*
X186954819Y-36054761D02*
X187954819Y-35816666D01*
X187954819Y-35816666D02*
X187240533Y-35626190D01*
X187240533Y-35626190D02*
X187954819Y-35435714D01*
X187954819Y-35435714D02*
X186954819Y-35197619D01*
X187954819Y-34292857D02*
X187954819Y-34864285D01*
X187954819Y-34578571D02*
X186954819Y-34578571D01*
X186954819Y-34578571D02*
X187097676Y-34673809D01*
X187097676Y-34673809D02*
X187192914Y-34769047D01*
X187192914Y-34769047D02*
X187240533Y-34864285D01*
X187954819Y-33340476D02*
X187954819Y-33911904D01*
X187954819Y-33626190D02*
X186954819Y-33626190D01*
X186954819Y-33626190D02*
X187097676Y-33721428D01*
X187097676Y-33721428D02*
X187192914Y-33816666D01*
X187192914Y-33816666D02*
X187240533Y-33911904D01*
X85357319Y-39113333D02*
X86071604Y-39113333D01*
X86071604Y-39113333D02*
X86214461Y-39160952D01*
X86214461Y-39160952D02*
X86309700Y-39256190D01*
X86309700Y-39256190D02*
X86357319Y-39399047D01*
X86357319Y-39399047D02*
X86357319Y-39494285D01*
X86357319Y-38113333D02*
X86357319Y-38684761D01*
X86357319Y-38399047D02*
X85357319Y-38399047D01*
X85357319Y-38399047D02*
X85500176Y-38494285D01*
X85500176Y-38494285D02*
X85595414Y-38589523D01*
X85595414Y-38589523D02*
X85643033Y-38684761D01*
X128354819Y-102142857D02*
X127878628Y-102476190D01*
X128354819Y-102714285D02*
X127354819Y-102714285D01*
X127354819Y-102714285D02*
X127354819Y-102333333D01*
X127354819Y-102333333D02*
X127402438Y-102238095D01*
X127402438Y-102238095D02*
X127450057Y-102190476D01*
X127450057Y-102190476D02*
X127545295Y-102142857D01*
X127545295Y-102142857D02*
X127688152Y-102142857D01*
X127688152Y-102142857D02*
X127783390Y-102190476D01*
X127783390Y-102190476D02*
X127831009Y-102238095D01*
X127831009Y-102238095D02*
X127878628Y-102333333D01*
X127878628Y-102333333D02*
X127878628Y-102714285D01*
X127450057Y-101761904D02*
X127402438Y-101714285D01*
X127402438Y-101714285D02*
X127354819Y-101619047D01*
X127354819Y-101619047D02*
X127354819Y-101380952D01*
X127354819Y-101380952D02*
X127402438Y-101285714D01*
X127402438Y-101285714D02*
X127450057Y-101238095D01*
X127450057Y-101238095D02*
X127545295Y-101190476D01*
X127545295Y-101190476D02*
X127640533Y-101190476D01*
X127640533Y-101190476D02*
X127783390Y-101238095D01*
X127783390Y-101238095D02*
X128354819Y-101809523D01*
X128354819Y-101809523D02*
X128354819Y-101190476D01*
X127450057Y-100809523D02*
X127402438Y-100761904D01*
X127402438Y-100761904D02*
X127354819Y-100666666D01*
X127354819Y-100666666D02*
X127354819Y-100428571D01*
X127354819Y-100428571D02*
X127402438Y-100333333D01*
X127402438Y-100333333D02*
X127450057Y-100285714D01*
X127450057Y-100285714D02*
X127545295Y-100238095D01*
X127545295Y-100238095D02*
X127640533Y-100238095D01*
X127640533Y-100238095D02*
X127783390Y-100285714D01*
X127783390Y-100285714D02*
X128354819Y-100857142D01*
X128354819Y-100857142D02*
X128354819Y-100238095D01*
X184387142Y-119162080D02*
X184339523Y-119209700D01*
X184339523Y-119209700D02*
X184196666Y-119257319D01*
X184196666Y-119257319D02*
X184101428Y-119257319D01*
X184101428Y-119257319D02*
X183958571Y-119209700D01*
X183958571Y-119209700D02*
X183863333Y-119114461D01*
X183863333Y-119114461D02*
X183815714Y-119019223D01*
X183815714Y-119019223D02*
X183768095Y-118828747D01*
X183768095Y-118828747D02*
X183768095Y-118685890D01*
X183768095Y-118685890D02*
X183815714Y-118495414D01*
X183815714Y-118495414D02*
X183863333Y-118400176D01*
X183863333Y-118400176D02*
X183958571Y-118304938D01*
X183958571Y-118304938D02*
X184101428Y-118257319D01*
X184101428Y-118257319D02*
X184196666Y-118257319D01*
X184196666Y-118257319D02*
X184339523Y-118304938D01*
X184339523Y-118304938D02*
X184387142Y-118352557D01*
X184720476Y-118257319D02*
X185387142Y-118257319D01*
X185387142Y-118257319D02*
X184958571Y-119257319D01*
X186291904Y-119257319D02*
X185720476Y-119257319D01*
X186006190Y-119257319D02*
X186006190Y-118257319D01*
X186006190Y-118257319D02*
X185910952Y-118400176D01*
X185910952Y-118400176D02*
X185815714Y-118495414D01*
X185815714Y-118495414D02*
X185720476Y-118543033D01*
X164488095Y-36442819D02*
X165059523Y-36442819D01*
X164773809Y-37442819D02*
X164773809Y-36442819D01*
X165392857Y-37442819D02*
X165392857Y-36442819D01*
X165392857Y-36442819D02*
X165773809Y-36442819D01*
X165773809Y-36442819D02*
X165869047Y-36490438D01*
X165869047Y-36490438D02*
X165916666Y-36538057D01*
X165916666Y-36538057D02*
X165964285Y-36633295D01*
X165964285Y-36633295D02*
X165964285Y-36776152D01*
X165964285Y-36776152D02*
X165916666Y-36871390D01*
X165916666Y-36871390D02*
X165869047Y-36919009D01*
X165869047Y-36919009D02*
X165773809Y-36966628D01*
X165773809Y-36966628D02*
X165392857Y-36966628D01*
X166821428Y-36776152D02*
X166821428Y-37442819D01*
X166583333Y-36395200D02*
X166345238Y-37109485D01*
X166345238Y-37109485D02*
X166964285Y-37109485D01*
X163779580Y-35716666D02*
X163827200Y-35764285D01*
X163827200Y-35764285D02*
X163874819Y-35907142D01*
X163874819Y-35907142D02*
X163874819Y-36002380D01*
X163874819Y-36002380D02*
X163827200Y-36145237D01*
X163827200Y-36145237D02*
X163731961Y-36240475D01*
X163731961Y-36240475D02*
X163636723Y-36288094D01*
X163636723Y-36288094D02*
X163446247Y-36335713D01*
X163446247Y-36335713D02*
X163303390Y-36335713D01*
X163303390Y-36335713D02*
X163112914Y-36288094D01*
X163112914Y-36288094D02*
X163017676Y-36240475D01*
X163017676Y-36240475D02*
X162922438Y-36145237D01*
X162922438Y-36145237D02*
X162874819Y-36002380D01*
X162874819Y-36002380D02*
X162874819Y-35907142D01*
X162874819Y-35907142D02*
X162922438Y-35764285D01*
X162922438Y-35764285D02*
X162970057Y-35716666D01*
X162874819Y-34859523D02*
X162874819Y-35049999D01*
X162874819Y-35049999D02*
X162922438Y-35145237D01*
X162922438Y-35145237D02*
X162970057Y-35192856D01*
X162970057Y-35192856D02*
X163112914Y-35288094D01*
X163112914Y-35288094D02*
X163303390Y-35335713D01*
X163303390Y-35335713D02*
X163684342Y-35335713D01*
X163684342Y-35335713D02*
X163779580Y-35288094D01*
X163779580Y-35288094D02*
X163827200Y-35240475D01*
X163827200Y-35240475D02*
X163874819Y-35145237D01*
X163874819Y-35145237D02*
X163874819Y-34954761D01*
X163874819Y-34954761D02*
X163827200Y-34859523D01*
X163827200Y-34859523D02*
X163779580Y-34811904D01*
X163779580Y-34811904D02*
X163684342Y-34764285D01*
X163684342Y-34764285D02*
X163446247Y-34764285D01*
X163446247Y-34764285D02*
X163351009Y-34811904D01*
X163351009Y-34811904D02*
X163303390Y-34859523D01*
X163303390Y-34859523D02*
X163255771Y-34954761D01*
X163255771Y-34954761D02*
X163255771Y-35145237D01*
X163255771Y-35145237D02*
X163303390Y-35240475D01*
X163303390Y-35240475D02*
X163351009Y-35288094D01*
X163351009Y-35288094D02*
X163446247Y-35335713D01*
X84454819Y-115809523D02*
X83454819Y-115809523D01*
X83454819Y-115809523D02*
X84169104Y-115476190D01*
X84169104Y-115476190D02*
X83454819Y-115142857D01*
X83454819Y-115142857D02*
X84454819Y-115142857D01*
X83454819Y-114190476D02*
X83454819Y-114666666D01*
X83454819Y-114666666D02*
X83931009Y-114714285D01*
X83931009Y-114714285D02*
X83883390Y-114666666D01*
X83883390Y-114666666D02*
X83835771Y-114571428D01*
X83835771Y-114571428D02*
X83835771Y-114333333D01*
X83835771Y-114333333D02*
X83883390Y-114238095D01*
X83883390Y-114238095D02*
X83931009Y-114190476D01*
X83931009Y-114190476D02*
X84026247Y-114142857D01*
X84026247Y-114142857D02*
X84264342Y-114142857D01*
X84264342Y-114142857D02*
X84359580Y-114190476D01*
X84359580Y-114190476D02*
X84407200Y-114238095D01*
X84407200Y-114238095D02*
X84454819Y-114333333D01*
X84454819Y-114333333D02*
X84454819Y-114571428D01*
X84454819Y-114571428D02*
X84407200Y-114666666D01*
X84407200Y-114666666D02*
X84359580Y-114714285D01*
X137738095Y-37652819D02*
X138309523Y-37652819D01*
X138023809Y-38652819D02*
X138023809Y-37652819D01*
X138642857Y-38652819D02*
X138642857Y-37652819D01*
X138642857Y-37652819D02*
X139023809Y-37652819D01*
X139023809Y-37652819D02*
X139119047Y-37700438D01*
X139119047Y-37700438D02*
X139166666Y-37748057D01*
X139166666Y-37748057D02*
X139214285Y-37843295D01*
X139214285Y-37843295D02*
X139214285Y-37986152D01*
X139214285Y-37986152D02*
X139166666Y-38081390D01*
X139166666Y-38081390D02*
X139119047Y-38129009D01*
X139119047Y-38129009D02*
X139023809Y-38176628D01*
X139023809Y-38176628D02*
X138642857Y-38176628D01*
X139547619Y-37652819D02*
X140166666Y-37652819D01*
X140166666Y-37652819D02*
X139833333Y-38033771D01*
X139833333Y-38033771D02*
X139976190Y-38033771D01*
X139976190Y-38033771D02*
X140071428Y-38081390D01*
X140071428Y-38081390D02*
X140119047Y-38129009D01*
X140119047Y-38129009D02*
X140166666Y-38224247D01*
X140166666Y-38224247D02*
X140166666Y-38462342D01*
X140166666Y-38462342D02*
X140119047Y-38557580D01*
X140119047Y-38557580D02*
X140071428Y-38605200D01*
X140071428Y-38605200D02*
X139976190Y-38652819D01*
X139976190Y-38652819D02*
X139690476Y-38652819D01*
X139690476Y-38652819D02*
X139595238Y-38605200D01*
X139595238Y-38605200D02*
X139547619Y-38557580D01*
D12*
%TO.C,SW12*%
X139680000Y-96080000D02*
X139980000Y-96080000D01*
X139680000Y-100220000D02*
X139680000Y-96080000D01*
X139980000Y-100220000D02*
X139680000Y-100220000D01*
X142520000Y-96080000D02*
X142820000Y-96080000D01*
X142820000Y-96080000D02*
X142820000Y-100220000D01*
X142820000Y-100220000D02*
X142520000Y-100220000D01*
%TO.C,C32*%
X130878748Y-112515000D02*
X131401252Y-112515000D01*
X130878748Y-113985000D02*
X131401252Y-113985000D01*
%TO.C,C302*%
X83231252Y-60875000D02*
X82708748Y-60875000D01*
X83231252Y-62345000D02*
X82708748Y-62345000D01*
D13*
%TO.C,IC1*%
X117000000Y-75200000D02*
X117000000Y-75200000D01*
X117000000Y-75300000D02*
X117000000Y-75300000D01*
X117000000Y-75200000D02*
G75*
G02*
X117000000Y-75300000I0J-50000D01*
G01*
X117000000Y-75300000D02*
G75*
G02*
X117000000Y-75200000I0J50000D01*
G01*
D12*
%TO.C,J8*%
X149015000Y-129550000D02*
X179985000Y-129550000D01*
X149015000Y-139130000D02*
X149015000Y-129550000D01*
X158710000Y-128655662D02*
X159210000Y-128655662D01*
X158960000Y-129088675D02*
X158710000Y-128655662D01*
X159210000Y-128655662D02*
X158960000Y-129088675D01*
X179985000Y-129550000D02*
X179985000Y-139130000D01*
%TO.C,C70*%
X185403752Y-110982500D02*
X184881248Y-110982500D01*
X185403752Y-112452500D02*
X184881248Y-112452500D01*
%TO.C,C17*%
X161255000Y-63265000D02*
X161255000Y-61735000D01*
X163095000Y-61735000D02*
X163095000Y-63265000D01*
%TO.C,R1*%
X105935000Y-95797064D02*
X105935000Y-95342936D01*
X107405000Y-95797064D02*
X107405000Y-95342936D01*
%TO.C,R14*%
X112415000Y-105182936D02*
X112415000Y-105637064D01*
X113885000Y-105182936D02*
X113885000Y-105637064D01*
%TO.C,R5*%
X111265000Y-70727064D02*
X111265000Y-70272936D01*
X112735000Y-70727064D02*
X112735000Y-70272936D01*
%TO.C,R16*%
X174515000Y-40177064D02*
X174515000Y-39722936D01*
X175985000Y-40177064D02*
X175985000Y-39722936D01*
%TO.C,U11*%
X168765000Y-53035000D02*
X172885000Y-53035000D01*
X168765000Y-53090000D02*
X168765000Y-53035000D01*
X168765000Y-63155000D02*
X168765000Y-63100000D01*
X172885000Y-53035000D02*
X172885000Y-53090000D01*
X172885000Y-63100000D02*
X172885000Y-63155000D01*
X172885000Y-63155000D02*
X168765000Y-63155000D01*
X173665000Y-63435000D02*
X173185000Y-63435000D01*
X173425000Y-63105000D01*
X173665000Y-63435000D01*
G36*
X173665000Y-63435000D02*
G01*
X173185000Y-63435000D01*
X173425000Y-63105000D01*
X173665000Y-63435000D01*
G37*
%TO.C,R100*%
X94515000Y-75064564D02*
X94515000Y-74610436D01*
X95985000Y-75064564D02*
X95985000Y-74610436D01*
%TO.C,SW14*%
X128930000Y-104280000D02*
X129230000Y-104280000D01*
X128930000Y-108420000D02*
X128930000Y-104280000D01*
X129230000Y-108420000D02*
X128930000Y-108420000D01*
X131770000Y-104280000D02*
X132070000Y-104280000D01*
X132070000Y-104280000D02*
X132070000Y-108420000D01*
X132070000Y-108420000D02*
X131770000Y-108420000D01*
D14*
%TO.C,U67*%
X130919201Y-75931800D02*
X130919201Y-76501260D01*
X130919201Y-85623940D02*
X130919201Y-86193400D01*
X130919201Y-86193400D02*
X131488661Y-86193400D01*
X131488661Y-75931800D02*
X130919201Y-75931800D01*
X140611341Y-86193400D02*
X141180801Y-86193400D01*
X141180801Y-75931800D02*
X140611341Y-75931800D01*
X141180801Y-76501260D02*
X141180801Y-75931800D01*
X141180801Y-86193400D02*
X141180801Y-85623940D01*
D15*
G36*
X129649201Y-82053101D02*
G01*
X129395201Y-82053101D01*
X129395201Y-81672101D01*
X129649201Y-81672101D01*
X129649201Y-82053101D01*
G37*
G36*
X134640502Y-74661800D02*
G01*
X134259502Y-74661800D01*
X134259502Y-74407800D01*
X134640502Y-74407800D01*
X134640502Y-74661800D01*
G37*
G36*
X139440500Y-87717400D02*
G01*
X139059500Y-87717400D01*
X139059500Y-87463400D01*
X139440500Y-87463400D01*
X139440500Y-87717400D01*
G37*
G36*
X142704801Y-78853100D02*
G01*
X142450801Y-78853100D01*
X142450801Y-78472100D01*
X142704801Y-78472100D01*
X142704801Y-78853100D01*
G37*
D12*
%TO.C,C3*%
X146220000Y-36511252D02*
X146220000Y-35988748D01*
X147690000Y-36511252D02*
X147690000Y-35988748D01*
%TO.C,D1*%
X116565000Y-40050000D02*
X111055000Y-40050000D01*
X116565000Y-43350000D02*
X111055000Y-43350000D01*
X116565000Y-43350000D02*
X116565000Y-40050000D01*
%TO.C,SW15*%
X124580000Y-104130000D02*
X124880000Y-104130000D01*
X124580000Y-108270000D02*
X124580000Y-104130000D01*
X124880000Y-108270000D02*
X124580000Y-108270000D01*
X127420000Y-104130000D02*
X127720000Y-104130000D01*
X127720000Y-104130000D02*
X127720000Y-108270000D01*
X127720000Y-108270000D02*
X127420000Y-108270000D01*
%TO.C,R24*%
X114895000Y-105202936D02*
X114895000Y-105657064D01*
X116365000Y-105202936D02*
X116365000Y-105657064D01*
%TO.C,R18*%
X184515000Y-40177064D02*
X184515000Y-39722936D01*
X185985000Y-40177064D02*
X185985000Y-39722936D01*
%TO.C,SW13*%
X133680000Y-104280000D02*
X133980000Y-104280000D01*
X133680000Y-108420000D02*
X133680000Y-104280000D01*
X133980000Y-108420000D02*
X133680000Y-108420000D01*
X136520000Y-104280000D02*
X136820000Y-104280000D01*
X136820000Y-104280000D02*
X136820000Y-108420000D01*
X136820000Y-108420000D02*
X136520000Y-108420000D01*
%TO.C,R4*%
X191065000Y-102172936D02*
X191065000Y-102627064D01*
X192535000Y-102172936D02*
X192535000Y-102627064D01*
%TO.C,R19*%
X140515000Y-103064564D02*
X140515000Y-102610436D01*
X141985000Y-103064564D02*
X141985000Y-102610436D01*
%TO.C,C28*%
X178380000Y-51371252D02*
X178380000Y-50848748D01*
X179850000Y-51371252D02*
X179850000Y-50848748D01*
%TO.C,C5*%
X151395000Y-40628748D02*
X151395000Y-41151252D01*
X152865000Y-40628748D02*
X152865000Y-41151252D01*
%TO.C,D100*%
X138430000Y-116500000D02*
X139450000Y-116500000D01*
X140230000Y-115030000D02*
X140230000Y-117970000D01*
X140350000Y-115030000D02*
X140350000Y-117970000D01*
X140470000Y-115030000D02*
X140470000Y-117970000D01*
X145910000Y-116500000D02*
X144890000Y-116500000D01*
X139450000Y-115030000D02*
X144890000Y-115030000D01*
X144890000Y-117970000D01*
X139450000Y-117970000D01*
X139450000Y-115030000D01*
%TO.C,R20*%
X134515000Y-101185436D02*
X134515000Y-101639564D01*
X135985000Y-101185436D02*
X135985000Y-101639564D01*
%TO.C,Y1*%
X130830000Y-66315000D02*
X137230000Y-66315000D01*
X137230000Y-71185000D02*
X130830000Y-71185000D01*
X130830000Y-71185000D02*
G75*
G02*
X130830000Y-66315000I0J2435000D01*
G01*
X137230000Y-66315000D02*
G75*
G02*
X137230000Y-71185000I0J-2435000D01*
G01*
%TO.C,U7*%
X114858000Y-97140000D02*
X115308000Y-97140000D01*
X114858000Y-97590000D02*
X114858000Y-97140000D01*
X114858000Y-100360000D02*
X114858000Y-99910000D01*
X115308000Y-100360000D02*
X114858000Y-100360000D01*
X117628000Y-97140000D02*
X118078000Y-97140000D01*
X118078000Y-97140000D02*
X118078000Y-97590000D01*
X118078000Y-99910000D02*
X118078000Y-100360000D01*
X118078000Y-100360000D02*
X117628000Y-100360000D01*
X115908000Y-101200000D02*
X115428000Y-101200000D01*
X115668000Y-100870000D01*
X115908000Y-101200000D01*
G36*
X115908000Y-101200000D02*
G01*
X115428000Y-101200000D01*
X115668000Y-100870000D01*
X115908000Y-101200000D01*
G37*
%TO.C,C303*%
X109445225Y-63525000D02*
X109945225Y-63525000D01*
X109695225Y-63275000D02*
X109695225Y-63775000D01*
X112250000Y-62420000D02*
X112250000Y-67580000D01*
X112290000Y-62420000D02*
X112290000Y-67580000D01*
X112330000Y-62421000D02*
X112330000Y-67579000D01*
X112370000Y-62423000D02*
X112370000Y-67577000D01*
X112410000Y-62425000D02*
X112410000Y-67575000D01*
X112450000Y-62428000D02*
X112450000Y-67572000D01*
X112490000Y-62431000D02*
X112490000Y-63960000D01*
X112490000Y-66040000D02*
X112490000Y-67569000D01*
X112530000Y-62435000D02*
X112530000Y-63960000D01*
X112530000Y-66040000D02*
X112530000Y-67565000D01*
X112570000Y-62440000D02*
X112570000Y-63960000D01*
X112570000Y-66040000D02*
X112570000Y-67560000D01*
X112610000Y-62445000D02*
X112610000Y-63960000D01*
X112610000Y-66040000D02*
X112610000Y-67555000D01*
X112650000Y-62451000D02*
X112650000Y-63960000D01*
X112650000Y-66040000D02*
X112650000Y-67549000D01*
X112690000Y-62457000D02*
X112690000Y-63960000D01*
X112690000Y-66040000D02*
X112690000Y-67543000D01*
X112730000Y-62464000D02*
X112730000Y-63960000D01*
X112730000Y-66040000D02*
X112730000Y-67536000D01*
X112770000Y-62472000D02*
X112770000Y-63960000D01*
X112770000Y-66040000D02*
X112770000Y-67528000D01*
X112810000Y-62481000D02*
X112810000Y-63960000D01*
X112810000Y-66040000D02*
X112810000Y-67519000D01*
X112850000Y-62490000D02*
X112850000Y-63960000D01*
X112850000Y-66040000D02*
X112850000Y-67510000D01*
X112890000Y-62499000D02*
X112890000Y-63960000D01*
X112890000Y-66040000D02*
X112890000Y-67501000D01*
X112930000Y-62510000D02*
X112930000Y-63960000D01*
X112930000Y-66040000D02*
X112930000Y-67490000D01*
X112970000Y-62521000D02*
X112970000Y-63960000D01*
X112970000Y-66040000D02*
X112970000Y-67479000D01*
X113010000Y-62533000D02*
X113010000Y-63960000D01*
X113010000Y-66040000D02*
X113010000Y-67467000D01*
X113050000Y-62545000D02*
X113050000Y-63960000D01*
X113050000Y-66040000D02*
X113050000Y-67455000D01*
X113090000Y-62558000D02*
X113090000Y-63960000D01*
X113090000Y-66040000D02*
X113090000Y-67442000D01*
X113130000Y-62572000D02*
X113130000Y-63960000D01*
X113130000Y-66040000D02*
X113130000Y-67428000D01*
X113170000Y-62587000D02*
X113170000Y-63960000D01*
X113170000Y-66040000D02*
X113170000Y-67413000D01*
X113210000Y-62602000D02*
X113210000Y-63960000D01*
X113210000Y-66040000D02*
X113210000Y-67398000D01*
X113250000Y-62618000D02*
X113250000Y-63960000D01*
X113250000Y-66040000D02*
X113250000Y-67382000D01*
X113290000Y-62635000D02*
X113290000Y-63960000D01*
X113290000Y-66040000D02*
X113290000Y-67365000D01*
X113330000Y-62653000D02*
X113330000Y-63960000D01*
X113330000Y-66040000D02*
X113330000Y-67347000D01*
X113370000Y-62671000D02*
X113370000Y-63960000D01*
X113370000Y-66040000D02*
X113370000Y-67329000D01*
X113410000Y-62691000D02*
X113410000Y-63960000D01*
X113410000Y-66040000D02*
X113410000Y-67309000D01*
X113450000Y-62711000D02*
X113450000Y-63960000D01*
X113450000Y-66040000D02*
X113450000Y-67289000D01*
X113490000Y-62732000D02*
X113490000Y-63960000D01*
X113490000Y-66040000D02*
X113490000Y-67268000D01*
X113530000Y-62754000D02*
X113530000Y-63960000D01*
X113530000Y-66040000D02*
X113530000Y-67246000D01*
X113570000Y-62777000D02*
X113570000Y-63960000D01*
X113570000Y-66040000D02*
X113570000Y-67223000D01*
X113610000Y-62801000D02*
X113610000Y-63960000D01*
X113610000Y-66040000D02*
X113610000Y-67199000D01*
X113650000Y-62825000D02*
X113650000Y-63960000D01*
X113650000Y-66040000D02*
X113650000Y-67175000D01*
X113690000Y-62851000D02*
X113690000Y-63960000D01*
X113690000Y-66040000D02*
X113690000Y-67149000D01*
X113730000Y-62878000D02*
X113730000Y-63960000D01*
X113730000Y-66040000D02*
X113730000Y-67122000D01*
X113770000Y-62906000D02*
X113770000Y-63960000D01*
X113770000Y-66040000D02*
X113770000Y-67094000D01*
X113810000Y-62935000D02*
X113810000Y-63960000D01*
X113810000Y-66040000D02*
X113810000Y-67065000D01*
X113850000Y-62965000D02*
X113850000Y-63960000D01*
X113850000Y-66040000D02*
X113850000Y-67035000D01*
X113890000Y-62997000D02*
X113890000Y-63960000D01*
X113890000Y-66040000D02*
X113890000Y-67003000D01*
X113930000Y-63030000D02*
X113930000Y-63960000D01*
X113930000Y-66040000D02*
X113930000Y-66970000D01*
X113970000Y-63064000D02*
X113970000Y-63960000D01*
X113970000Y-66040000D02*
X113970000Y-66936000D01*
X114010000Y-63099000D02*
X114010000Y-63960000D01*
X114010000Y-66040000D02*
X114010000Y-66901000D01*
X114050000Y-63136000D02*
X114050000Y-63960000D01*
X114050000Y-66040000D02*
X114050000Y-66864000D01*
X114090000Y-63175000D02*
X114090000Y-63960000D01*
X114090000Y-66040000D02*
X114090000Y-66825000D01*
X114130000Y-63215000D02*
X114130000Y-63960000D01*
X114130000Y-66040000D02*
X114130000Y-66785000D01*
X114170000Y-63257000D02*
X114170000Y-63960000D01*
X114170000Y-66040000D02*
X114170000Y-66743000D01*
X114210000Y-63301000D02*
X114210000Y-63960000D01*
X114210000Y-66040000D02*
X114210000Y-66699000D01*
X114250000Y-63348000D02*
X114250000Y-63960000D01*
X114250000Y-66040000D02*
X114250000Y-66652000D01*
X114290000Y-63396000D02*
X114290000Y-63960000D01*
X114290000Y-66040000D02*
X114290000Y-66604000D01*
X114330000Y-63447000D02*
X114330000Y-63960000D01*
X114330000Y-66040000D02*
X114330000Y-66553000D01*
X114370000Y-63501000D02*
X114370000Y-63960000D01*
X114370000Y-66040000D02*
X114370000Y-66499000D01*
X114410000Y-63557000D02*
X114410000Y-63960000D01*
X114410000Y-66040000D02*
X114410000Y-66443000D01*
X114450000Y-63617000D02*
X114450000Y-63960000D01*
X114450000Y-66040000D02*
X114450000Y-66383000D01*
X114490000Y-63681000D02*
X114490000Y-63960000D01*
X114490000Y-66040000D02*
X114490000Y-66319000D01*
X114530000Y-63749000D02*
X114530000Y-63960000D01*
X114530000Y-66040000D02*
X114530000Y-66251000D01*
X114570000Y-63823000D02*
X114570000Y-66177000D01*
X114610000Y-63902000D02*
X114610000Y-66098000D01*
X114650000Y-63989000D02*
X114650000Y-66011000D01*
X114690000Y-64086000D02*
X114690000Y-65914000D01*
X114730000Y-64195000D02*
X114730000Y-65805000D01*
X114770000Y-64323000D02*
X114770000Y-65677000D01*
X114810000Y-64483000D02*
X114810000Y-65517000D01*
X114850000Y-64717000D02*
X114850000Y-65283000D01*
X114870000Y-65000000D02*
G75*
G02*
X109630000Y-65000000I-2620000J0D01*
G01*
X109630000Y-65000000D02*
G75*
G02*
X114870000Y-65000000I2620000J0D01*
G01*
%TO.C,TP10*%
X126440000Y-63240000D02*
G75*
G02*
X125040000Y-63240000I-700000J0D01*
G01*
X125040000Y-63240000D02*
G75*
G02*
X126440000Y-63240000I700000J0D01*
G01*
%TO.C,C12*%
X189021252Y-44615000D02*
X188498748Y-44615000D01*
X189021252Y-46085000D02*
X188498748Y-46085000D01*
%TO.C,R15*%
X157874564Y-119805000D02*
X157420436Y-119805000D01*
X157874564Y-121275000D02*
X157420436Y-121275000D01*
%TO.C,J4*%
X78735000Y-72710000D02*
X88775000Y-72710000D01*
X78735000Y-75070000D02*
X78735000Y-72710000D01*
X78735000Y-83110000D02*
X78735000Y-75670000D01*
X79355000Y-72710000D02*
X79355000Y-83110000D01*
X80855000Y-72710000D02*
X80855000Y-83110000D01*
X85755000Y-72710000D02*
X85755000Y-83110000D01*
X88775000Y-72710000D02*
X88775000Y-83110000D01*
X88775000Y-83110000D02*
X78735000Y-83110000D01*
X78735000Y-75370000D02*
X78125000Y-75810000D01*
X78125000Y-74930000D01*
X78735000Y-75370000D01*
G36*
X78735000Y-75370000D02*
G01*
X78125000Y-75810000D01*
X78125000Y-74930000D01*
X78735000Y-75370000D01*
G37*
%TO.C,C20*%
X177148748Y-77485000D02*
X177671252Y-77485000D01*
X177148748Y-78955000D02*
X177671252Y-78955000D01*
%TO.C,F1*%
X88440000Y-47865000D02*
X111160000Y-47865000D01*
X88440000Y-51025000D02*
X88440000Y-47865000D01*
X88440000Y-57685000D02*
X88440000Y-54525000D01*
X88440000Y-57685000D02*
X111160000Y-57685000D01*
X111160000Y-51025000D02*
X111160000Y-47865000D01*
X111160000Y-57685000D02*
X111160000Y-54525000D01*
%TO.C,M6*%
X78707500Y-84130000D02*
X88747500Y-84130000D01*
X78707500Y-86490000D02*
X78707500Y-84130000D01*
X78707500Y-94530000D02*
X78707500Y-87090000D01*
X79327500Y-84130000D02*
X79327500Y-94530000D01*
X80827500Y-84130000D02*
X80827500Y-94530000D01*
X85727500Y-84130000D02*
X85727500Y-94530000D01*
X88747500Y-84130000D02*
X88747500Y-94530000D01*
X88747500Y-94530000D02*
X78707500Y-94530000D01*
X78707500Y-86790000D02*
X78097500Y-87230000D01*
X78097500Y-86350000D01*
X78707500Y-86790000D01*
G36*
X78707500Y-86790000D02*
G01*
X78097500Y-87230000D01*
X78097500Y-86350000D01*
X78707500Y-86790000D01*
G37*
%TO.C,SW9*%
X173680000Y-32942500D02*
X173980000Y-32942500D01*
X173680000Y-37082500D02*
X173680000Y-32942500D01*
X173980000Y-37082500D02*
X173680000Y-37082500D01*
X176520000Y-32942500D02*
X176820000Y-32942500D01*
X176820000Y-32942500D02*
X176820000Y-37082500D01*
X176820000Y-37082500D02*
X176520000Y-37082500D01*
%TO.C,C10*%
X177661252Y-82745000D02*
X177138748Y-82745000D01*
X177661252Y-84215000D02*
X177138748Y-84215000D01*
%TO.C,C25*%
X178790000Y-57856252D02*
X178790000Y-57333748D01*
X180260000Y-57856252D02*
X180260000Y-57333748D01*
%TO.C,C13*%
X178790000Y-62956252D02*
X178790000Y-62433748D01*
X180260000Y-62956252D02*
X180260000Y-62433748D01*
%TO.C,C72*%
X149265000Y-62776452D02*
X149265000Y-62253948D01*
X150735000Y-62776452D02*
X150735000Y-62253948D01*
%TO.C,C1*%
X117095000Y-54713748D02*
X117095000Y-55236252D01*
X118565000Y-54713748D02*
X118565000Y-55236252D01*
%TO.C,C24*%
X139857550Y-64061252D02*
X139857550Y-63538748D01*
X141327550Y-64061252D02*
X141327550Y-63538748D01*
%TO.C,C73*%
X156265000Y-62676452D02*
X156265000Y-62153948D01*
X157735000Y-62676452D02*
X157735000Y-62153948D01*
%TO.C,U5*%
X91990000Y-107215000D02*
X97510000Y-107215000D01*
X91990000Y-107390000D02*
X91990000Y-107215000D01*
X91990000Y-115635000D02*
X91990000Y-115460000D01*
X97510000Y-107215000D02*
X97510000Y-107390000D01*
X97510000Y-115460000D02*
X97510000Y-115635000D01*
X97510000Y-115635000D02*
X91990000Y-115635000D01*
X91250000Y-107385000D02*
X90910000Y-106915000D01*
X91590000Y-106915000D01*
X91250000Y-107385000D01*
G36*
X91250000Y-107385000D02*
G01*
X90910000Y-106915000D01*
X91590000Y-106915000D01*
X91250000Y-107385000D01*
G37*
%TO.C,R23*%
X96547064Y-84495000D02*
X96092936Y-84495000D01*
X96547064Y-85965000D02*
X96092936Y-85965000D01*
%TO.C,TP1*%
X118455000Y-48900000D02*
G75*
G02*
X117055000Y-48900000I-700000J0D01*
G01*
X117055000Y-48900000D02*
G75*
G02*
X118455000Y-48900000I700000J0D01*
G01*
%TO.C,C301*%
X99190000Y-68623000D02*
X99190000Y-68057000D01*
X99230000Y-68857000D02*
X99230000Y-67823000D01*
X99270000Y-69017000D02*
X99270000Y-67663000D01*
X99310000Y-69145000D02*
X99310000Y-67535000D01*
X99350000Y-69254000D02*
X99350000Y-67426000D01*
X99390000Y-69351000D02*
X99390000Y-67329000D01*
X99430000Y-69438000D02*
X99430000Y-67242000D01*
X99470000Y-69517000D02*
X99470000Y-67163000D01*
X99510000Y-67300000D02*
X99510000Y-67089000D01*
X99510000Y-69591000D02*
X99510000Y-69380000D01*
X99550000Y-67300000D02*
X99550000Y-67021000D01*
X99550000Y-69659000D02*
X99550000Y-69380000D01*
X99590000Y-67300000D02*
X99590000Y-66957000D01*
X99590000Y-69723000D02*
X99590000Y-69380000D01*
X99630000Y-67300000D02*
X99630000Y-66897000D01*
X99630000Y-69783000D02*
X99630000Y-69380000D01*
X99670000Y-67300000D02*
X99670000Y-66841000D01*
X99670000Y-69839000D02*
X99670000Y-69380000D01*
X99710000Y-67300000D02*
X99710000Y-66787000D01*
X99710000Y-69893000D02*
X99710000Y-69380000D01*
X99750000Y-67300000D02*
X99750000Y-66736000D01*
X99750000Y-69944000D02*
X99750000Y-69380000D01*
X99790000Y-67300000D02*
X99790000Y-66688000D01*
X99790000Y-69992000D02*
X99790000Y-69380000D01*
X99830000Y-67300000D02*
X99830000Y-66641000D01*
X99830000Y-70039000D02*
X99830000Y-69380000D01*
X99870000Y-67300000D02*
X99870000Y-66597000D01*
X99870000Y-70083000D02*
X99870000Y-69380000D01*
X99910000Y-67300000D02*
X99910000Y-66555000D01*
X99910000Y-70125000D02*
X99910000Y-69380000D01*
X99950000Y-67300000D02*
X99950000Y-66515000D01*
X99950000Y-70165000D02*
X99950000Y-69380000D01*
X99990000Y-67300000D02*
X99990000Y-66476000D01*
X99990000Y-70204000D02*
X99990000Y-69380000D01*
X100030000Y-67300000D02*
X100030000Y-66439000D01*
X100030000Y-70241000D02*
X100030000Y-69380000D01*
X100070000Y-67300000D02*
X100070000Y-66404000D01*
X100070000Y-70276000D02*
X100070000Y-69380000D01*
X100110000Y-67300000D02*
X100110000Y-66370000D01*
X100110000Y-70310000D02*
X100110000Y-69380000D01*
X100150000Y-67300000D02*
X100150000Y-66337000D01*
X100150000Y-70343000D02*
X100150000Y-69380000D01*
X100190000Y-67300000D02*
X100190000Y-66305000D01*
X100190000Y-70375000D02*
X100190000Y-69380000D01*
X100230000Y-67300000D02*
X100230000Y-66275000D01*
X100230000Y-70405000D02*
X100230000Y-69380000D01*
X100270000Y-67300000D02*
X100270000Y-66246000D01*
X100270000Y-70434000D02*
X100270000Y-69380000D01*
X100310000Y-67300000D02*
X100310000Y-66218000D01*
X100310000Y-70462000D02*
X100310000Y-69380000D01*
X100350000Y-67300000D02*
X100350000Y-66191000D01*
X100350000Y-70489000D02*
X100350000Y-69380000D01*
X100390000Y-67300000D02*
X100390000Y-66165000D01*
X100390000Y-70515000D02*
X100390000Y-69380000D01*
X100430000Y-67300000D02*
X100430000Y-66141000D01*
X100430000Y-70539000D02*
X100430000Y-69380000D01*
X100470000Y-67300000D02*
X100470000Y-66117000D01*
X100470000Y-70563000D02*
X100470000Y-69380000D01*
X100510000Y-67300000D02*
X100510000Y-66094000D01*
X100510000Y-70586000D02*
X100510000Y-69380000D01*
X100550000Y-67300000D02*
X100550000Y-66072000D01*
X100550000Y-70608000D02*
X100550000Y-69380000D01*
X100590000Y-67300000D02*
X100590000Y-66051000D01*
X100590000Y-70629000D02*
X100590000Y-69380000D01*
X100630000Y-67300000D02*
X100630000Y-66031000D01*
X100630000Y-70649000D02*
X100630000Y-69380000D01*
X100670000Y-67300000D02*
X100670000Y-66011000D01*
X100670000Y-70669000D02*
X100670000Y-69380000D01*
X100710000Y-67300000D02*
X100710000Y-65993000D01*
X100710000Y-70687000D02*
X100710000Y-69380000D01*
X100750000Y-67300000D02*
X100750000Y-65975000D01*
X100750000Y-70705000D02*
X100750000Y-69380000D01*
X100790000Y-67300000D02*
X100790000Y-65958000D01*
X100790000Y-70722000D02*
X100790000Y-69380000D01*
X100830000Y-67300000D02*
X100830000Y-65942000D01*
X100830000Y-70738000D02*
X100830000Y-69380000D01*
X100870000Y-67300000D02*
X100870000Y-65927000D01*
X100870000Y-70753000D02*
X100870000Y-69380000D01*
X100910000Y-67300000D02*
X100910000Y-65912000D01*
X100910000Y-70768000D02*
X100910000Y-69380000D01*
X100950000Y-67300000D02*
X100950000Y-65898000D01*
X100950000Y-70782000D02*
X100950000Y-69380000D01*
X100990000Y-67300000D02*
X100990000Y-65885000D01*
X100990000Y-70795000D02*
X100990000Y-69380000D01*
X101030000Y-67300000D02*
X101030000Y-65873000D01*
X101030000Y-70807000D02*
X101030000Y-69380000D01*
X101070000Y-67300000D02*
X101070000Y-65861000D01*
X101070000Y-70819000D02*
X101070000Y-69380000D01*
X101110000Y-67300000D02*
X101110000Y-65850000D01*
X101110000Y-70830000D02*
X101110000Y-69380000D01*
X101150000Y-67300000D02*
X101150000Y-65839000D01*
X101150000Y-70841000D02*
X101150000Y-69380000D01*
X101190000Y-67300000D02*
X101190000Y-65830000D01*
X101190000Y-70850000D02*
X101190000Y-69380000D01*
X101230000Y-67300000D02*
X101230000Y-65821000D01*
X101230000Y-70859000D02*
X101230000Y-69380000D01*
X101270000Y-67300000D02*
X101270000Y-65812000D01*
X101270000Y-70868000D02*
X101270000Y-69380000D01*
X101310000Y-67300000D02*
X101310000Y-65804000D01*
X101310000Y-70876000D02*
X101310000Y-69380000D01*
X101350000Y-67300000D02*
X101350000Y-65797000D01*
X101350000Y-70883000D02*
X101350000Y-69380000D01*
X101390000Y-67300000D02*
X101390000Y-65791000D01*
X101390000Y-70889000D02*
X101390000Y-69380000D01*
X101430000Y-67300000D02*
X101430000Y-65785000D01*
X101430000Y-70895000D02*
X101430000Y-69380000D01*
X101470000Y-67300000D02*
X101470000Y-65780000D01*
X101470000Y-70900000D02*
X101470000Y-69380000D01*
X101510000Y-67300000D02*
X101510000Y-65775000D01*
X101510000Y-70905000D02*
X101510000Y-69380000D01*
X101550000Y-67300000D02*
X101550000Y-65771000D01*
X101550000Y-70909000D02*
X101550000Y-69380000D01*
X101590000Y-70912000D02*
X101590000Y-65768000D01*
X101630000Y-70915000D02*
X101630000Y-65765000D01*
X101670000Y-70917000D02*
X101670000Y-65763000D01*
X101710000Y-70919000D02*
X101710000Y-65761000D01*
X101750000Y-70920000D02*
X101750000Y-65760000D01*
X101790000Y-70920000D02*
X101790000Y-65760000D01*
X104344775Y-70065000D02*
X104344775Y-69565000D01*
X104594775Y-69815000D02*
X104094775Y-69815000D01*
X104410000Y-68340000D02*
G75*
G02*
X99170000Y-68340000I-2620000J0D01*
G01*
X99170000Y-68340000D02*
G75*
G02*
X104410000Y-68340000I2620000J0D01*
G01*
%TO.C,SW8*%
X169080000Y-70680000D02*
X173220000Y-70680000D01*
X169080000Y-70980000D02*
X169080000Y-70680000D01*
X169080000Y-73820000D02*
X169080000Y-73520000D01*
X173220000Y-70680000D02*
X173220000Y-70980000D01*
X173220000Y-73520000D02*
X173220000Y-73820000D01*
X173220000Y-73820000D02*
X169080000Y-73820000D01*
%TO.C,R209*%
X87055000Y-130372936D02*
X87055000Y-130827064D01*
X88525000Y-130372936D02*
X88525000Y-130827064D01*
D13*
%TO.C,U4*%
X182689000Y-101462000D02*
X182689000Y-108320000D01*
D12*
X182689000Y-101462000D02*
X187769000Y-101462000D01*
D13*
X187769000Y-101462000D02*
X187769000Y-108320000D01*
D12*
X187769000Y-108320000D02*
X182689000Y-108320000D01*
X181927000Y-101716000D02*
X181673000Y-101462000D01*
X182181000Y-101462000D01*
X181927000Y-101716000D01*
G36*
X181927000Y-101716000D02*
G01*
X181673000Y-101462000D01*
X182181000Y-101462000D01*
X181927000Y-101716000D01*
G37*
%TO.C,TP2*%
X120700000Y-34250000D02*
G75*
G02*
X119300000Y-34250000I-700000J0D01*
G01*
X119300000Y-34250000D02*
G75*
G02*
X120700000Y-34250000I700000J0D01*
G01*
%TO.C,C16*%
X177198748Y-80165000D02*
X177721252Y-80165000D01*
X177198748Y-81635000D02*
X177721252Y-81635000D01*
%TO.C,C4*%
X151315000Y-36336252D02*
X151315000Y-35813748D01*
X152785000Y-36336252D02*
X152785000Y-35813748D01*
%TO.C,D3*%
X106420000Y-71170000D02*
X106264000Y-71170000D01*
X108736000Y-71170000D02*
X108580000Y-71170000D01*
X106420000Y-73770961D02*
G75*
G02*
X106420000Y-71689039I1080000J1040961D01*
G01*
X106420000Y-74401437D02*
G75*
G02*
X106264484Y-71170000I1080000J1671437D01*
G01*
X108580000Y-71689039D02*
G75*
G02*
X108580000Y-73770961I-1080000J-1040961D01*
G01*
X108735516Y-71170000D02*
G75*
G02*
X108580000Y-74401437I-1235516J-1560000D01*
G01*
%TO.C,R17*%
X179265000Y-40177064D02*
X179265000Y-39722936D01*
X180735000Y-40177064D02*
X180735000Y-39722936D01*
%TO.C,SW10*%
X178430000Y-32942500D02*
X178730000Y-32942500D01*
X178430000Y-37082500D02*
X178430000Y-32942500D01*
X178730000Y-37082500D02*
X178430000Y-37082500D01*
X181270000Y-32942500D02*
X181570000Y-32942500D01*
X181570000Y-32942500D02*
X181570000Y-37082500D01*
X181570000Y-37082500D02*
X181270000Y-37082500D01*
%TO.C,U6*%
X175215000Y-88055000D02*
X179335000Y-88055000D01*
X175215000Y-88150000D02*
X175215000Y-88055000D01*
X175215000Y-93175000D02*
X175215000Y-93080000D01*
X179335000Y-88055000D02*
X179335000Y-88150000D01*
X179335000Y-93080000D02*
X179335000Y-93175000D01*
X179335000Y-93175000D02*
X175215000Y-93175000D01*
X180115000Y-93415000D02*
X179635000Y-93415000D01*
X179875000Y-93085000D01*
X180115000Y-93415000D01*
G36*
X180115000Y-93415000D02*
G01*
X179635000Y-93415000D01*
X179875000Y-93085000D01*
X180115000Y-93415000D01*
G37*
%TO.C,U1*%
X123180000Y-42035000D02*
X123180000Y-43400000D01*
X123180000Y-43400000D02*
X124130000Y-43400000D01*
X133580000Y-42035000D02*
X133580000Y-43400000D01*
X133580000Y-43400000D02*
X132630000Y-43400000D01*
X124170000Y-46225000D02*
X123700000Y-46565000D01*
X123700000Y-45885000D01*
X124170000Y-46225000D01*
G36*
X124170000Y-46225000D02*
G01*
X123700000Y-46565000D01*
X123700000Y-45885000D01*
X124170000Y-46225000D01*
G37*
%TO.C,U2*%
X156025000Y-41855000D02*
X156295000Y-41855000D01*
X156025000Y-48275000D02*
X156025000Y-41855000D01*
X162925000Y-41855000D02*
X162655000Y-41855000D01*
X162925000Y-48275000D02*
X162925000Y-41855000D01*
X163085000Y-40465000D02*
X162615000Y-40125000D01*
X163085000Y-39785000D01*
X163085000Y-40465000D01*
G36*
X163085000Y-40465000D02*
G01*
X162615000Y-40125000D01*
X163085000Y-39785000D01*
X163085000Y-40465000D01*
G37*
%TO.C,C14*%
X131005000Y-64071252D02*
X131005000Y-63548748D01*
X132475000Y-64071252D02*
X132475000Y-63548748D01*
%TO.C,C15*%
X135380000Y-90630000D02*
X135717000Y-90630000D01*
X135380000Y-95870000D02*
X135380000Y-90630000D01*
X135717000Y-95870000D02*
X135380000Y-95870000D01*
X137783000Y-90630000D02*
X138120000Y-90630000D01*
X138120000Y-90630000D02*
X138120000Y-95870000D01*
X138120000Y-95870000D02*
X137783000Y-95870000D01*
D10*
%TO.C,U8*%
X96450000Y-87290000D02*
X92300000Y-87290000D01*
X96450000Y-92440000D02*
X92300000Y-92440000D01*
D12*
X97290000Y-92670000D02*
X96810000Y-92670000D01*
X97050000Y-92340000D01*
X97290000Y-92670000D01*
G36*
X97290000Y-92670000D02*
G01*
X96810000Y-92670000D01*
X97050000Y-92340000D01*
X97290000Y-92670000D01*
G37*
%TO.C,L1*%
X148920000Y-44320000D02*
G75*
G02*
X138680000Y-44320000I-5120000J0D01*
G01*
X138680000Y-44320000D02*
G75*
G02*
X148920000Y-44320000I5120000J0D01*
G01*
%TO.C,R3*%
X176925000Y-105817064D02*
X176925000Y-105362936D01*
X178395000Y-105817064D02*
X178395000Y-105362936D01*
%TO.C,Q201*%
X91440000Y-127140000D02*
X96060000Y-127140000D01*
X91440000Y-137360000D02*
X91440000Y-127140000D01*
X94680000Y-127140000D02*
X94680000Y-137360000D01*
X96060000Y-127140000D02*
X96060000Y-137360000D01*
X96060000Y-130400000D02*
X94680000Y-130400000D01*
X96060000Y-134100000D02*
X94680000Y-134100000D01*
X96060000Y-137360000D02*
X91440000Y-137360000D01*
%TO.C,R21*%
X129765000Y-101185436D02*
X129765000Y-101639564D01*
X131235000Y-101185436D02*
X131235000Y-101639564D01*
%TO.C,R13*%
X175814564Y-71515000D02*
X175360436Y-71515000D01*
X175814564Y-72985000D02*
X175360436Y-72985000D01*
%TO.C,C26*%
X156040000Y-33038748D02*
X156040000Y-33561252D01*
X157510000Y-33038748D02*
X157510000Y-33561252D01*
%TO.C,R2*%
X189324564Y-98305000D02*
X188870436Y-98305000D01*
X189324564Y-99775000D02*
X188870436Y-99775000D01*
%TO.C,D2*%
X136100000Y-53400000D02*
X137010000Y-53400000D01*
X138435000Y-50680000D02*
X138435000Y-56120000D01*
X138555000Y-50680000D02*
X138555000Y-56120000D01*
X138675000Y-50680000D02*
X138675000Y-56120000D01*
X147660000Y-53400000D02*
X146750000Y-53400000D01*
X137010000Y-50680000D02*
X146750000Y-50680000D01*
X146750000Y-56120000D01*
X137010000Y-56120000D01*
X137010000Y-50680000D01*
%TO.C,C304*%
X83061252Y-49515000D02*
X82538748Y-49515000D01*
X83061252Y-50985000D02*
X82538748Y-50985000D01*
%TO.C,R210*%
X120360436Y-131515000D02*
X120814564Y-131515000D01*
X120360436Y-132985000D02*
X120814564Y-132985000D01*
%TO.C,C23*%
X143072450Y-64041252D02*
X143072450Y-63518748D01*
X144542450Y-64041252D02*
X144542450Y-63518748D01*
%TO.C,J7*%
X185965331Y-63710000D02*
X186398344Y-63960000D01*
X185965331Y-64210000D02*
X185965331Y-63710000D01*
X186398344Y-63960000D02*
X185965331Y-64210000D01*
X186859669Y-54015000D02*
X196439669Y-54015000D01*
X186859669Y-84985000D02*
X186859669Y-54015000D01*
X196439669Y-84985000D02*
X186859669Y-84985000D01*
%TO.C,U3*%
X155080000Y-110505000D02*
X155175000Y-110505000D01*
X155080000Y-114625000D02*
X155080000Y-110505000D01*
X155175000Y-114625000D02*
X155080000Y-114625000D01*
X160105000Y-110505000D02*
X160200000Y-110505000D01*
X160200000Y-110505000D02*
X160200000Y-114625000D01*
X160200000Y-114625000D02*
X160105000Y-114625000D01*
X160440000Y-110205000D02*
X160110000Y-109965000D01*
X160440000Y-109725000D01*
X160440000Y-110205000D01*
G36*
X160440000Y-110205000D02*
G01*
X160110000Y-109965000D01*
X160440000Y-109725000D01*
X160440000Y-110205000D01*
G37*
%TO.C,C11*%
X135825000Y-64051252D02*
X135825000Y-63528748D01*
X137295000Y-64051252D02*
X137295000Y-63528748D01*
%TO.C,J201*%
X97090000Y-126930000D02*
X117650000Y-126930000D01*
X97090000Y-129950000D02*
X117650000Y-129950000D01*
X97090000Y-134850000D02*
X117650000Y-134850000D01*
X97090000Y-136350000D02*
X117650000Y-136350000D01*
X97090000Y-136970000D02*
X97090000Y-126930000D01*
X99450000Y-136970000D02*
X97090000Y-136970000D01*
X117650000Y-126930000D02*
X117650000Y-136970000D01*
X117650000Y-136970000D02*
X100050000Y-136970000D01*
X100190000Y-137580000D02*
X99310000Y-137580000D01*
X99750000Y-136970000D01*
X100190000Y-137580000D01*
G36*
X100190000Y-137580000D02*
G01*
X99310000Y-137580000D01*
X99750000Y-136970000D01*
X100190000Y-137580000D01*
G37*
%TO.C,C2*%
X123595000Y-56113748D02*
X123595000Y-56636252D01*
X125065000Y-56113748D02*
X125065000Y-56636252D01*
%TO.C,M4*%
X78780000Y-95590000D02*
X88820000Y-95590000D01*
X78780000Y-97950000D02*
X78780000Y-95590000D01*
X78780000Y-105990000D02*
X78780000Y-98550000D01*
X79400000Y-95590000D02*
X79400000Y-105990000D01*
X80900000Y-95590000D02*
X80900000Y-105990000D01*
X85800000Y-95590000D02*
X85800000Y-105990000D01*
X88820000Y-95590000D02*
X88820000Y-105990000D01*
X88820000Y-105990000D02*
X78780000Y-105990000D01*
X78780000Y-98250000D02*
X78170000Y-98690000D01*
X78170000Y-97810000D01*
X78780000Y-98250000D01*
G36*
X78780000Y-98250000D02*
G01*
X78170000Y-98690000D01*
X78170000Y-97810000D01*
X78780000Y-98250000D01*
G37*
%TO.C,C8*%
X120841252Y-135037500D02*
X120318748Y-135037500D01*
X120841252Y-136507500D02*
X120318748Y-136507500D01*
%TO.C,C300*%
X94515000Y-69061252D02*
X94515000Y-68538748D01*
X95985000Y-69061252D02*
X95985000Y-68538748D01*
%TO.C,R211*%
X140950436Y-108765000D02*
X141404564Y-108765000D01*
X140950436Y-110235000D02*
X141404564Y-110235000D01*
%TO.C,R26*%
X103515000Y-104277064D02*
X103515000Y-103822936D01*
X104985000Y-104277064D02*
X104985000Y-103822936D01*
%TO.C,J3*%
X150780000Y-69590000D02*
X160820000Y-69590000D01*
X150780000Y-71950000D02*
X150780000Y-69590000D01*
X150780000Y-95230000D02*
X150780000Y-72550000D01*
X151400000Y-69590000D02*
X151400000Y-95230000D01*
X152900000Y-69590000D02*
X152900000Y-95230000D01*
X157800000Y-69590000D02*
X157800000Y-95230000D01*
X160820000Y-69590000D02*
X160820000Y-95230000D01*
X160820000Y-95230000D02*
X150780000Y-95230000D01*
X150780000Y-72250000D02*
X150170000Y-72690000D01*
X150170000Y-71810000D01*
X150780000Y-72250000D01*
G36*
X150780000Y-72250000D02*
G01*
X150170000Y-72690000D01*
X150170000Y-71810000D01*
X150780000Y-72250000D01*
G37*
%TO.C,C27*%
X168211252Y-66277500D02*
X167688748Y-66277500D01*
X168211252Y-67747500D02*
X167688748Y-67747500D01*
%TO.C,SW11*%
X183680000Y-33080000D02*
X183980000Y-33080000D01*
X183680000Y-37220000D02*
X183680000Y-33080000D01*
X183980000Y-37220000D02*
X183680000Y-37220000D01*
X186520000Y-33080000D02*
X186820000Y-33080000D01*
X186820000Y-33080000D02*
X186820000Y-37220000D01*
X186820000Y-37220000D02*
X186520000Y-37220000D01*
%TO.C,J1*%
X86902500Y-33580000D02*
X96942500Y-33580000D01*
X86902500Y-43980000D02*
X86902500Y-33580000D01*
X89922500Y-43980000D02*
X89922500Y-33580000D01*
X94822500Y-43980000D02*
X94822500Y-33580000D01*
X96322500Y-43980000D02*
X96322500Y-33580000D01*
X96942500Y-33580000D02*
X96942500Y-41020000D01*
X96942500Y-41620000D02*
X96942500Y-43980000D01*
X96942500Y-43980000D02*
X86902500Y-43980000D01*
X97552500Y-41760000D02*
X96942500Y-41320000D01*
X97552500Y-40880000D01*
X97552500Y-41760000D01*
G36*
X97552500Y-41760000D02*
G01*
X96942500Y-41320000D01*
X97552500Y-40880000D01*
X97552500Y-41760000D01*
G37*
%TO.C,R22*%
X125515000Y-101272936D02*
X125515000Y-101727064D01*
X126985000Y-101272936D02*
X126985000Y-101727064D01*
%TO.C,C71*%
X185291252Y-116387500D02*
X184768748Y-116387500D01*
X185291252Y-117857500D02*
X184768748Y-117857500D01*
%TO.C,TP4*%
X166450000Y-35540000D02*
G75*
G02*
X165050000Y-35540000I-700000J0D01*
G01*
X165050000Y-35540000D02*
G75*
G02*
X166450000Y-35540000I700000J0D01*
G01*
%TO.C,C6*%
X161005000Y-35288748D02*
X161005000Y-35811252D01*
X162475000Y-35288748D02*
X162475000Y-35811252D01*
%TO.C,M5*%
X78680000Y-107260000D02*
X88720000Y-107260000D01*
X78680000Y-117660000D02*
X78680000Y-107260000D01*
X81700000Y-117660000D02*
X81700000Y-107260000D01*
X86600000Y-117660000D02*
X86600000Y-107260000D01*
X88100000Y-117660000D02*
X88100000Y-107260000D01*
X88720000Y-107260000D02*
X88720000Y-114700000D01*
X88720000Y-115300000D02*
X88720000Y-117660000D01*
X88720000Y-117660000D02*
X78680000Y-117660000D01*
X89330000Y-115440000D02*
X88720000Y-115000000D01*
X89330000Y-114560000D01*
X89330000Y-115440000D01*
G36*
X89330000Y-115440000D02*
G01*
X88720000Y-115000000D01*
X89330000Y-114560000D01*
X89330000Y-115440000D01*
G37*
%TO.C,TP3*%
X139700000Y-36750000D02*
G75*
G02*
X138300000Y-36750000I-700000J0D01*
G01*
X138300000Y-36750000D02*
G75*
G02*
X139700000Y-36750000I700000J0D01*
G01*
%TD*%
M02*
