%TF.GenerationSoftware,KiCad,Pcbnew,9.0.7*%
%TF.CreationDate,2026-04-29T20:10:20+02:00*%
%TF.ProjectId,SEIENTS_EDD,53454945-4e54-4535-9f45-44442e6b6963,rev?*%
%TF.SameCoordinates,Original*%
%TF.FileFunction,Soldermask,Bot*%
%TF.FilePolarity,Negative*%
%FSLAX46Y46*%
G04 Gerber Fmt 4.6, Leading zero omitted, Abs format (unit mm)*
G04 Created by KiCad (PCBNEW 9.0.7) date 2026-04-29 20:10:20*
%MOMM*%
%LPD*%
G01*
G04 APERTURE LIST*
G04 Aperture macros list*
%AMRoundRect*
0 Rectangle with rounded corners*
0 $1 Rounding radius*
0 $2 $3 $4 $5 $6 $7 $8 $9 X,Y pos of 4 corners*
0 Add a 4 corners polygon primitive as box body*
4,1,4,$2,$3,$4,$5,$6,$7,$8,$9,$2,$3,0*
0 Add four circle primitives for the rounded corners*
1,1,$1+$1,$2,$3*
1,1,$1+$1,$4,$5*
1,1,$1+$1,$6,$7*
1,1,$1+$1,$8,$9*
0 Add four rect primitives between the rounded corners*
20,1,$1+$1,$2,$3,$4,$5,0*
20,1,$1+$1,$4,$5,$6,$7,0*
20,1,$1+$1,$6,$7,$8,$9,0*
20,1,$1+$1,$8,$9,$2,$3,0*%
G04 Aperture macros list end*
%ADD10R,1.070000X1.070000*%
%ADD11C,1.070000*%
%ADD12C,4.000000*%
%ADD13R,1.600000X1.600000*%
%ADD14C,1.600000*%
%ADD15RoundRect,0.249999X-0.850001X-0.850001X0.850001X-0.850001X0.850001X0.850001X-0.850001X0.850001X0*%
%ADD16C,2.200000*%
%ADD17C,1.500000*%
%ADD18RoundRect,0.250000X-0.550000X-0.550000X0.550000X-0.550000X0.550000X0.550000X-0.550000X0.550000X0*%
%ADD19RoundRect,0.250000X-1.050000X1.050000X-1.050000X-1.050000X1.050000X-1.050000X1.050000X1.050000X0*%
%ADD20C,2.600000*%
%ADD21C,2.700000*%
%ADD22C,3.000000*%
%ADD23RoundRect,0.250000X0.550000X0.550000X-0.550000X0.550000X-0.550000X-0.550000X0.550000X-0.550000X0*%
%ADD24R,1.800000X1.800000*%
%ADD25C,1.800000*%
%ADD26C,0.770000*%
%ADD27R,2.000000X1.905000*%
%ADD28O,2.000000X1.905000*%
%ADD29RoundRect,0.250000X-1.350000X-1.350000X1.350000X-1.350000X1.350000X1.350000X-1.350000X1.350000X0*%
%ADD30C,3.200000*%
%ADD31RoundRect,0.250000X-1.050000X-1.050000X1.050000X-1.050000X1.050000X1.050000X-1.050000X1.050000X0*%
%ADD32RoundRect,0.250000X1.050000X-1.050000X1.050000X1.050000X-1.050000X1.050000X-1.050000X-1.050000X0*%
G04 APERTURE END LIST*
D10*
%TO.C,IC1*%
X117000000Y-74000000D03*
D11*
X117000000Y-72730000D03*
X117000000Y-71460000D03*
%TD*%
D12*
%TO.C,J8*%
X152000000Y-134250000D03*
X177000000Y-134250000D03*
D13*
X158960000Y-131410000D03*
D14*
X161730000Y-131410000D03*
X164500000Y-131410000D03*
X167270000Y-131410000D03*
X170040000Y-131410000D03*
X160345000Y-134250000D03*
X163115000Y-134250000D03*
X165885000Y-134250000D03*
X168655000Y-134250000D03*
%TD*%
%TO.C,C17*%
X162175000Y-63750000D03*
X162175000Y-61250000D03*
%TD*%
D15*
%TO.C,D100*%
X137090000Y-116500000D03*
D16*
X147250000Y-116500000D03*
%TD*%
D17*
%TO.C,Y1*%
X136470000Y-68750000D03*
X131590000Y-68750000D03*
%TD*%
D18*
%TO.C,C303*%
X111000000Y-65000000D03*
D14*
X113500000Y-65000000D03*
%TD*%
D19*
%TO.C,J4*%
X83455000Y-75370000D03*
D20*
X83455000Y-80450000D03*
%TD*%
D21*
%TO.C,F1*%
X99800000Y-52775000D03*
D22*
X88550000Y-52775000D03*
X111050000Y-52775000D03*
%TD*%
D19*
%TO.C,M6*%
X83427500Y-86790000D03*
D20*
X83427500Y-91870000D03*
%TD*%
D23*
%TO.C,C301*%
X103040000Y-68340000D03*
D14*
X100540000Y-68340000D03*
%TD*%
D24*
%TO.C,D3*%
X107500000Y-71460000D03*
D25*
X107500000Y-74000000D03*
%TD*%
D14*
%TO.C,C15*%
X136750000Y-90750000D03*
X136750000Y-95750000D03*
%TD*%
D26*
%TO.C,U8*%
X95025000Y-91165000D03*
X95025000Y-89865000D03*
X95025000Y-88565000D03*
X93725000Y-91165000D03*
X93725000Y-89865000D03*
X93725000Y-88565000D03*
%TD*%
D20*
%TO.C,L1*%
X141300000Y-44320000D03*
X146300000Y-44320000D03*
%TD*%
D27*
%TO.C,Q201*%
X92800000Y-129710000D03*
D28*
X92800000Y-132250000D03*
X92800000Y-134790000D03*
%TD*%
D29*
%TO.C,D2*%
X134260000Y-53400000D03*
D30*
X149500000Y-53400000D03*
%TD*%
D12*
%TO.C,J7*%
X191559669Y-82000000D03*
X191559669Y-57000000D03*
D13*
X188719669Y-63960000D03*
D14*
X188719669Y-66730000D03*
X188719669Y-69500000D03*
X188719669Y-72270000D03*
X188719669Y-75040000D03*
X191559669Y-65345000D03*
X191559669Y-68115000D03*
X191559669Y-70885000D03*
X191559669Y-73655000D03*
%TD*%
D31*
%TO.C,J201*%
X99750000Y-132250000D03*
D20*
X104830000Y-132250000D03*
X109910000Y-132250000D03*
X114990000Y-132250000D03*
%TD*%
D19*
%TO.C,M4*%
X83500000Y-98250000D03*
D20*
X83500000Y-103330000D03*
%TD*%
D19*
%TO.C,J3*%
X155500000Y-72250000D03*
D20*
X155500000Y-77330000D03*
X155500000Y-82410000D03*
X155500000Y-87490000D03*
X155500000Y-92570000D03*
%TD*%
D32*
%TO.C,J1*%
X92222500Y-41320000D03*
D20*
X92222500Y-36240000D03*
%TD*%
D32*
%TO.C,M5*%
X84000000Y-115000000D03*
D20*
X84000000Y-109920000D03*
%TD*%
M02*
