M48
; DRILL file {KiCad 9.0.7} date 2026-04-29T20:10:25+0200
; FORMAT={-:-/ absolute / metric / decimal}
; #@! TF.CreationDate,2026-04-29T20:10:25+02:00
; #@! TF.GenerationSoftware,Kicad,Pcbnew,9.0.7
; #@! TF.FileFunction,Plated,1,2,PTH
FMAT,2
METRIC
; #@! TA.AperFunction,Plated,PTH,ViaDrill
T1C0.250
; #@! TA.AperFunction,Plated,PTH,ViaDrill
T2C0.300
; #@! TA.AperFunction,Plated,PTH,ComponentDrill
T3C0.330
; #@! TA.AperFunction,Plated,PTH,ComponentDrill
T4C0.780
; #@! TA.AperFunction,Plated,PTH,ComponentDrill
T5C0.800
; #@! TA.AperFunction,Plated,PTH,ComponentDrill
T6C0.900
; #@! TA.AperFunction,Plated,PTH,ComponentDrill
T7C1.000
; #@! TA.AperFunction,Plated,PTH,ComponentDrill
T8C1.100
; #@! TA.AperFunction,Plated,PTH,ComponentDrill
T9C1.300
; #@! TA.AperFunction,Plated,PTH,ComponentDrill
T10C1.600
; #@! TA.AperFunction,Plated,PTH,ComponentDrill
T11C3.200
%
G90
G05
T1
X117.153Y-100.587
X123.48Y-100.587
X126.25Y-100.587
X130.5Y-100.5
X135.27Y-100.48
X141.25Y-103.75
T2
X80.825Y-50.37
X81.115Y-61.61
X81.75Y-49.2
X81.75Y-51.5
X82.02Y-60.66
X82.02Y-62.76
X86.9Y-131.53
X87.79Y-132.13
X88.55Y-52.775
X88.69Y-131.51
X89.75Y-90.5
X90.0Y-87.96
X92.525Y-113.05
X92.675Y-109.8
X94.345Y-67.905
X94.5Y-85.205
X95.095Y-66.95
X95.25Y-84.25
X95.25Y-86.25
X96.345Y-67.95
X96.95Y-111.75
X97.25Y-91.77
X100.01Y-110.525
X102.025Y-108.475
X104.25Y-103.137
X109.514Y-99.326
X114.42Y-94.82
X114.423Y-96.827
X114.85Y-106.34
X115.106Y-100.49
X115.65Y-106.96
X116.42Y-106.34
X116.48Y-97.9
X116.7Y-54.025
X117.31Y-94.16
X117.65Y-107.666
X117.83Y-53.1
X118.376Y-103.6
X118.5Y-98.75
X118.925Y-135.765
X119.0Y-54.025
X119.125Y-107.131
X119.625Y-136.74
X119.63Y-134.69
X120.25Y-94.16
X120.975Y-96.77
X122.0Y-37.0
X122.09Y-93.95
X123.225Y-55.425
X124.33Y-54.475
X124.84Y-108.31
X125.5Y-55.425
X126.02Y-106.14
X126.02Y-106.89
X126.042Y-105.39
X126.15Y-108.91
X127.43Y-108.32
X128.073Y-86.697
X128.36Y-89.43
X128.375Y-31.65
X128.38Y-49.04
X129.01Y-78.71
X129.25Y-108.45
X130.7Y-62.86
X131.72Y-108.45
X131.74Y-62.27
X131.865Y-80.365
X132.06Y-112.14
X132.09Y-114.35
X132.8Y-62.86
X132.965Y-118.965
X133.03Y-46.26
X133.75Y-108.45
X134.5Y-37.05
X135.25Y-86.625
X135.46Y-62.84
X136.05Y-75.5
X136.05Y-86.625
X136.54Y-62.0
X136.75Y-108.45
X136.85Y-75.5
X137.71Y-62.84
X138.625Y-89.27
X139.25Y-87.75
X139.663Y-62.84
X139.86Y-85.26
X139.868Y-96.05
X139.88Y-84.47
X139.96Y-89.47
X140.05Y-75.5
X140.623Y-62.22
X140.91Y-92.71
X141.25Y-95.207
X141.25Y-100.25
X141.503Y-92.15
X141.583Y-62.82
X141.613Y-79.463
X141.613Y-81.863
X142.048Y-91.564
X142.725Y-96.05
X142.877Y-62.795
X143.807Y-62.05
X144.827Y-62.82
X145.26Y-92.98
X145.26Y-97.32
X145.83Y-35.3
X146.03Y-64.35
X146.955Y-34.42
X146.997Y-65.414
X147.046Y-63.666
X148.13Y-35.3
X148.89Y-61.565
X150.0Y-60.76
X150.96Y-35.125
X151.07Y-61.565
X151.09Y-41.84
X152.05Y-34.26
X152.14Y-42.6
X153.11Y-41.86
X153.16Y-35.125
X154.75Y-82.5
X155.5Y-80.9
X155.5Y-83.75
X155.725Y-32.37
X156.09Y-61.465
X156.8Y-31.495
X157.0Y-60.63
X157.77Y-61.46
X157.825Y-32.37
X158.28Y-111.24
X158.75Y-72.25
X159.485Y-116.79
X160.735Y-36.5
X161.74Y-37.3
X161.75Y-41.5
X161.755Y-38.86
X162.0Y-70.75
X162.63Y-40.12
X162.86Y-36.5
X165.48Y-56.2
X167.055Y-61.27
X168.3Y-72.25
X169.05Y-70.65
X169.05Y-73.5
X169.605Y-61.27
X169.83Y-88.07
X171.75Y-72.5
X173.495Y-91.25
X174.025Y-32.895
X174.8Y-88.71
X174.8Y-89.98
X175.225Y-32.145
X176.17Y-91.25
X176.6Y-32.92
X176.78Y-96.1
X178.01Y-50.155
X178.345Y-84.5
X178.35Y-82.425
X178.355Y-77.025
X178.355Y-79.425
X178.775Y-32.895
X179.11Y-49.33
X179.18Y-78.225
X179.32Y-83.48
X179.46Y-80.91
X180.0Y-32.22
X180.085Y-50.155
X180.95Y-104.9
X181.32Y-91.275
X181.345Y-88.725
X181.345Y-90.0
X181.345Y-92.525
X181.382Y-32.913
X183.275Y-104.9
X183.275Y-117.125
X183.325Y-111.725
X183.95Y-33.045
X184.075Y-115.925
X184.075Y-118.075
X184.2Y-110.725
X184.2Y-112.925
X185.275Y-32.345
X186.5Y-33.07
X186.925Y-107.05
X189.55Y-107.075
X189.705Y-44.275
X189.73Y-46.375
T3
X93.725Y-88.565
X93.725Y-89.865
X93.725Y-91.165
X95.025Y-88.565
X95.025Y-89.865
X95.025Y-91.165
T4
X117.0Y-71.46
X117.0Y-72.73
X117.0Y-74.0
T5
X100.54Y-68.34
X103.04Y-68.34
X111.0Y-65.0
X113.5Y-65.0
X131.59Y-68.75
X136.47Y-68.75
X136.75Y-90.75
X136.75Y-95.75
X162.175Y-61.25
X162.175Y-63.75
T6
X107.5Y-71.46
X107.5Y-74.0
T7
X158.96Y-131.41
X160.345Y-134.25
X161.73Y-131.41
X163.115Y-134.25
X164.5Y-131.41
X165.885Y-134.25
X167.27Y-131.41
X168.655Y-134.25
X170.04Y-131.41
X188.72Y-63.96
X188.72Y-66.73
X188.72Y-69.5
X188.72Y-72.27
X188.72Y-75.04
X191.56Y-65.345
X191.56Y-68.115
X191.56Y-70.885
X191.56Y-73.655
T8
X92.8Y-129.71
X92.8Y-132.25
X92.8Y-134.79
X137.09Y-116.5
X147.25Y-116.5
T9
X83.427Y-86.79
X83.427Y-91.87
X83.455Y-75.37
X83.455Y-80.45
X83.5Y-98.25
X83.5Y-103.33
X84.0Y-109.92
X84.0Y-115.0
X88.55Y-52.775
X92.222Y-36.24
X92.222Y-41.32
X99.75Y-132.25
X104.83Y-132.25
X109.91Y-132.25
X111.05Y-52.775
X114.99Y-132.25
X141.3Y-44.32
X146.3Y-44.32
X155.5Y-72.25
X155.5Y-77.33
X155.5Y-82.41
X155.5Y-87.49
X155.5Y-92.57
T10
X134.26Y-53.4
X149.5Y-53.4
T11
X152.0Y-134.25
X177.0Y-134.25
X191.56Y-57.0
X191.56Y-82.0
M30
